G75*
%MOIN*%
%OFA0B0*%
%FSLAX25Y25*%
%IPPOS*%
%LPD*%
%AMOC8*
5,1,8,0,0,1.08239X$1,22.5*
%
%ADD10C,0.00000*%
%ADD11C,0.01600*%
%ADD12C,0.00400*%
%ADD13C,0.00500*%
%ADD14C,0.00300*%
%ADD15C,0.00800*%
%ADD16C,0.00100*%
%ADD17C,0.01000*%
%ADD18C,0.01500*%
%ADD19C,0.00600*%
%ADD20C,0.02000*%
%ADD21R,0.05000X0.07500*%
%ADD22R,0.03000X0.07000*%
%ADD23R,0.05000X0.03000*%
D10*
X0006014Y0001800D02*
X0006014Y0198650D01*
X0202864Y0198650D01*
X0202864Y0001800D01*
X0006014Y0001800D01*
D11*
X0036014Y0024300D02*
X0041014Y0019300D01*
X0046014Y0024300D01*
X0036014Y0024300D01*
X0036135Y0024179D02*
X0045893Y0024179D01*
X0044294Y0022581D02*
X0037733Y0022581D01*
X0039332Y0020982D02*
X0042696Y0020982D01*
X0041097Y0019384D02*
X0040930Y0019384D01*
D12*
X0033293Y0014104D02*
X0033293Y0011035D01*
X0031758Y0009500D01*
X0030224Y0011035D01*
X0030224Y0014104D01*
X0028689Y0013337D02*
X0028689Y0012569D01*
X0027922Y0011802D01*
X0028689Y0011035D01*
X0028689Y0010267D01*
X0027922Y0009500D01*
X0026387Y0009500D01*
X0025620Y0010267D01*
X0024085Y0010267D02*
X0024085Y0009500D01*
X0023318Y0009500D01*
X0023318Y0010267D01*
X0024085Y0010267D01*
X0021783Y0010267D02*
X0021016Y0009500D01*
X0019481Y0009500D01*
X0018714Y0010267D01*
X0020248Y0011802D02*
X0021016Y0011802D01*
X0021783Y0011035D01*
X0021783Y0010267D01*
X0021016Y0011802D02*
X0021783Y0012569D01*
X0021783Y0013337D01*
X0021016Y0014104D01*
X0019481Y0014104D01*
X0018714Y0013337D01*
X0019481Y0019500D02*
X0021016Y0019500D01*
X0021783Y0020267D01*
X0021783Y0021802D01*
X0020248Y0021802D01*
X0018714Y0023337D02*
X0018714Y0020267D01*
X0019481Y0019500D01*
X0023318Y0019500D02*
X0023318Y0024104D01*
X0026387Y0019500D01*
X0026387Y0024104D01*
X0027922Y0024104D02*
X0030224Y0024104D01*
X0030991Y0023337D01*
X0030991Y0020267D01*
X0030224Y0019500D01*
X0027922Y0019500D01*
X0027922Y0024104D01*
X0025620Y0029500D02*
X0024085Y0029500D01*
X0023318Y0030267D01*
X0021783Y0030267D02*
X0021016Y0029500D01*
X0018714Y0029500D01*
X0018714Y0034104D01*
X0021016Y0034104D01*
X0021783Y0033337D01*
X0021783Y0032569D01*
X0021016Y0031802D01*
X0018714Y0031802D01*
X0021016Y0031802D02*
X0021783Y0031035D01*
X0021783Y0030267D01*
X0023318Y0031802D02*
X0023318Y0034104D01*
X0026387Y0034104D01*
X0025620Y0032569D02*
X0026387Y0031802D01*
X0026387Y0030267D01*
X0025620Y0029500D01*
X0024852Y0032569D02*
X0023318Y0031802D01*
X0024852Y0032569D02*
X0025620Y0032569D01*
X0025620Y0039500D02*
X0025620Y0044104D01*
X0023318Y0041802D01*
X0026387Y0041802D01*
X0021783Y0041802D02*
X0018714Y0041802D01*
X0018714Y0042569D02*
X0018714Y0039500D01*
X0021783Y0039500D02*
X0021783Y0042569D01*
X0020248Y0044104D01*
X0018714Y0042569D01*
X0033710Y0048559D02*
X0034477Y0047792D01*
X0035245Y0047792D01*
X0036012Y0048559D01*
X0036012Y0050094D01*
X0036779Y0050861D01*
X0037546Y0050861D01*
X0038314Y0050094D01*
X0038314Y0048559D01*
X0037546Y0047792D01*
X0036779Y0047792D01*
X0036012Y0048559D01*
X0036012Y0050094D02*
X0035245Y0050861D01*
X0034477Y0050861D01*
X0033710Y0050094D01*
X0033710Y0048559D01*
X0033710Y0052396D02*
X0035245Y0053931D01*
X0033710Y0055465D01*
X0038314Y0055465D01*
X0038314Y0057000D02*
X0033710Y0057000D01*
X0036012Y0057000D02*
X0036012Y0060069D01*
X0035245Y0061604D02*
X0035245Y0064673D01*
X0038314Y0061604D01*
X0038314Y0064673D01*
X0038314Y0060069D02*
X0033710Y0060069D01*
X0033710Y0052396D02*
X0038314Y0052396D01*
X0025620Y0059500D02*
X0025620Y0064104D01*
X0023318Y0061802D01*
X0026387Y0061802D01*
X0021783Y0062569D02*
X0021016Y0061802D01*
X0018714Y0061802D01*
X0021016Y0061802D02*
X0021783Y0061035D01*
X0021783Y0060267D01*
X0021016Y0059500D01*
X0018714Y0059500D01*
X0018714Y0064104D01*
X0021016Y0064104D01*
X0021783Y0063337D01*
X0021783Y0062569D01*
X0021016Y0069500D02*
X0018714Y0069500D01*
X0018714Y0074104D01*
X0021016Y0074104D01*
X0021783Y0073337D01*
X0021783Y0072569D01*
X0021016Y0071802D01*
X0018714Y0071802D01*
X0021016Y0071802D02*
X0021783Y0071035D01*
X0021783Y0070267D01*
X0021016Y0069500D01*
X0023318Y0070267D02*
X0024085Y0069500D01*
X0025620Y0069500D01*
X0026387Y0070267D01*
X0026387Y0071035D01*
X0025620Y0071802D01*
X0024852Y0071802D01*
X0025620Y0071802D02*
X0026387Y0072569D01*
X0026387Y0073337D01*
X0025620Y0074104D01*
X0024085Y0074104D01*
X0023318Y0073337D01*
X0023318Y0079500D02*
X0026387Y0082569D01*
X0026387Y0083337D01*
X0025620Y0084104D01*
X0024085Y0084104D01*
X0023318Y0083337D01*
X0021783Y0083337D02*
X0021783Y0082569D01*
X0021016Y0081802D01*
X0018714Y0081802D01*
X0021016Y0081802D02*
X0021783Y0081035D01*
X0021783Y0080267D01*
X0021016Y0079500D01*
X0018714Y0079500D01*
X0018714Y0084104D01*
X0021016Y0084104D01*
X0021783Y0083337D01*
X0023318Y0079500D02*
X0026387Y0079500D01*
X0026387Y0089500D02*
X0023318Y0089500D01*
X0024852Y0089500D02*
X0024852Y0094104D01*
X0023318Y0092569D01*
X0021783Y0092569D02*
X0021016Y0091802D01*
X0018714Y0091802D01*
X0021016Y0091802D02*
X0021783Y0091035D01*
X0021783Y0090267D01*
X0021016Y0089500D01*
X0018714Y0089500D01*
X0018714Y0094104D01*
X0021016Y0094104D01*
X0021783Y0093337D01*
X0021783Y0092569D01*
X0021016Y0109500D02*
X0018714Y0109500D01*
X0018714Y0114104D01*
X0021016Y0114104D01*
X0021783Y0113337D01*
X0021783Y0112569D01*
X0021016Y0111802D01*
X0018714Y0111802D01*
X0021016Y0111802D02*
X0021783Y0111035D01*
X0021783Y0110267D01*
X0021016Y0109500D01*
X0023318Y0110267D02*
X0026387Y0113337D01*
X0026387Y0110267D01*
X0025620Y0109500D01*
X0024085Y0109500D01*
X0023318Y0110267D01*
X0023318Y0113337D01*
X0024085Y0114104D01*
X0025620Y0114104D01*
X0026387Y0113337D01*
X0026387Y0119500D02*
X0023318Y0119500D01*
X0024852Y0119500D02*
X0024852Y0124104D01*
X0023318Y0122569D01*
X0021783Y0122569D02*
X0021783Y0119500D01*
X0021783Y0121802D02*
X0018714Y0121802D01*
X0018714Y0122569D02*
X0020248Y0124104D01*
X0021783Y0122569D01*
X0018714Y0122569D02*
X0018714Y0119500D01*
X0018714Y0129500D02*
X0018714Y0132569D01*
X0020248Y0134104D01*
X0021783Y0132569D01*
X0021783Y0129500D01*
X0023318Y0130267D02*
X0026387Y0133337D01*
X0026387Y0130267D01*
X0025620Y0129500D01*
X0024085Y0129500D01*
X0023318Y0130267D01*
X0023318Y0133337D01*
X0024085Y0134104D01*
X0025620Y0134104D01*
X0026387Y0133337D01*
X0021783Y0131802D02*
X0018714Y0131802D01*
X0018714Y0139500D02*
X0018714Y0144104D01*
X0020248Y0142569D01*
X0021783Y0144104D01*
X0021783Y0139500D01*
X0023318Y0140267D02*
X0024085Y0139500D01*
X0025620Y0139500D01*
X0026387Y0140267D01*
X0027922Y0139500D02*
X0030991Y0139500D01*
X0032526Y0139500D02*
X0032526Y0144104D01*
X0034828Y0144104D01*
X0035595Y0143337D01*
X0035595Y0141802D01*
X0034828Y0141035D01*
X0032526Y0141035D01*
X0034060Y0141035D02*
X0035595Y0139500D01*
X0027922Y0139500D02*
X0027922Y0144104D01*
X0026387Y0143337D02*
X0025620Y0144104D01*
X0024085Y0144104D01*
X0023318Y0143337D01*
X0023318Y0140267D01*
X0065595Y0024871D02*
X0065595Y0024104D01*
X0065595Y0022569D02*
X0065595Y0019500D01*
X0064828Y0019500D02*
X0066362Y0019500D01*
X0068664Y0020267D02*
X0069431Y0019500D01*
X0068664Y0020267D02*
X0068664Y0023337D01*
X0067897Y0022569D02*
X0069431Y0022569D01*
X0070966Y0023337D02*
X0071733Y0024104D01*
X0073268Y0024104D01*
X0074035Y0023337D01*
X0074035Y0022569D01*
X0073268Y0021802D01*
X0074035Y0021035D01*
X0074035Y0020267D01*
X0073268Y0019500D01*
X0071733Y0019500D01*
X0070966Y0020267D01*
X0072501Y0021802D02*
X0073268Y0021802D01*
X0065595Y0022569D02*
X0064828Y0022569D01*
X0063293Y0022569D02*
X0060991Y0021035D01*
X0063293Y0019500D01*
X0060991Y0019500D02*
X0060991Y0024104D01*
X0059456Y0023337D02*
X0058689Y0024104D01*
X0057154Y0024104D01*
X0056387Y0023337D01*
X0056387Y0020267D01*
X0057154Y0019500D01*
X0058689Y0019500D01*
X0059456Y0020267D01*
X0054852Y0019500D02*
X0053318Y0019500D01*
X0054085Y0019500D02*
X0054085Y0024104D01*
X0053318Y0024104D02*
X0054852Y0024104D01*
X0051783Y0023337D02*
X0051783Y0021802D01*
X0051016Y0021035D01*
X0048714Y0021035D01*
X0048714Y0019500D02*
X0048714Y0024104D01*
X0051016Y0024104D01*
X0051783Y0023337D01*
X0028689Y0013337D02*
X0027922Y0014104D01*
X0026387Y0014104D01*
X0025620Y0013337D01*
X0027154Y0011802D02*
X0027922Y0011802D01*
X0021783Y0023337D02*
X0021016Y0024104D01*
X0019481Y0024104D01*
X0018714Y0023337D01*
X0155669Y0167000D02*
X0157204Y0167000D01*
X0157971Y0167767D01*
X0157971Y0171604D01*
X0159506Y0170837D02*
X0159506Y0170069D01*
X0160273Y0169302D01*
X0161808Y0169302D01*
X0162575Y0168535D01*
X0162575Y0167767D01*
X0161808Y0167000D01*
X0160273Y0167000D01*
X0159506Y0167767D01*
X0159506Y0170837D02*
X0160273Y0171604D01*
X0161808Y0171604D01*
X0162575Y0170837D01*
X0164110Y0171604D02*
X0164110Y0167000D01*
X0164110Y0168535D02*
X0166412Y0168535D01*
X0167179Y0169302D01*
X0167179Y0170837D01*
X0166412Y0171604D01*
X0164110Y0171604D01*
X0165644Y0168535D02*
X0167179Y0167000D01*
X0155669Y0167000D02*
X0154902Y0167767D01*
X0154902Y0171604D01*
X0184902Y0171604D02*
X0184902Y0167000D01*
X0184902Y0168535D02*
X0187204Y0168535D01*
X0187971Y0169302D01*
X0187971Y0170837D01*
X0187204Y0171604D01*
X0184902Y0171604D01*
X0186437Y0168535D02*
X0187971Y0167000D01*
X0189506Y0167767D02*
X0190273Y0167000D01*
X0191808Y0167000D01*
X0192575Y0167767D01*
X0192575Y0168535D01*
X0191808Y0169302D01*
X0190273Y0169302D01*
X0189506Y0170069D01*
X0189506Y0170837D01*
X0190273Y0171604D01*
X0191808Y0171604D01*
X0192575Y0170837D01*
X0194110Y0171604D02*
X0197179Y0171604D01*
X0195644Y0171604D02*
X0195644Y0167000D01*
X0187179Y0094104D02*
X0184110Y0094104D01*
X0184110Y0091802D01*
X0185644Y0092569D01*
X0186412Y0092569D01*
X0187179Y0091802D01*
X0187179Y0090267D01*
X0186412Y0089500D01*
X0184877Y0089500D01*
X0184110Y0090267D01*
X0182575Y0089500D02*
X0179506Y0089500D01*
X0181041Y0089500D02*
X0181041Y0094104D01*
X0179506Y0092569D01*
X0177971Y0092569D02*
X0177204Y0091802D01*
X0174902Y0091802D01*
X0174902Y0089500D02*
X0174902Y0094104D01*
X0177204Y0094104D01*
X0177971Y0093337D01*
X0177971Y0092569D01*
X0177204Y0091802D02*
X0177971Y0091035D01*
X0177971Y0090267D01*
X0177204Y0089500D01*
X0174902Y0089500D01*
X0174902Y0084104D02*
X0177204Y0084104D01*
X0177971Y0083337D01*
X0177971Y0082569D01*
X0177204Y0081802D01*
X0174902Y0081802D01*
X0174902Y0079500D02*
X0174902Y0084104D01*
X0177204Y0081802D02*
X0177971Y0081035D01*
X0177971Y0080267D01*
X0177204Y0079500D01*
X0174902Y0079500D01*
X0179506Y0079500D02*
X0182575Y0079500D01*
X0181041Y0079500D02*
X0181041Y0084104D01*
X0179506Y0082569D01*
X0184110Y0081802D02*
X0187179Y0081802D01*
X0186412Y0079500D02*
X0186412Y0084104D01*
X0184110Y0081802D01*
X0184877Y0074104D02*
X0184110Y0073337D01*
X0184877Y0074104D02*
X0186412Y0074104D01*
X0187179Y0073337D01*
X0187179Y0072569D01*
X0186412Y0071802D01*
X0187179Y0071035D01*
X0187179Y0070267D01*
X0186412Y0069500D01*
X0184877Y0069500D01*
X0184110Y0070267D01*
X0182575Y0069500D02*
X0179506Y0069500D01*
X0181041Y0069500D02*
X0181041Y0074104D01*
X0179506Y0072569D01*
X0177971Y0072569D02*
X0177204Y0071802D01*
X0174902Y0071802D01*
X0174902Y0069500D02*
X0174902Y0074104D01*
X0177204Y0074104D01*
X0177971Y0073337D01*
X0177971Y0072569D01*
X0177204Y0071802D02*
X0177971Y0071035D01*
X0177971Y0070267D01*
X0177204Y0069500D01*
X0174902Y0069500D01*
X0179506Y0064104D02*
X0181808Y0064104D01*
X0182575Y0063337D01*
X0182575Y0062569D01*
X0181808Y0061802D01*
X0179506Y0061802D01*
X0181808Y0061802D02*
X0182575Y0061035D01*
X0182575Y0060267D01*
X0181808Y0059500D01*
X0179506Y0059500D01*
X0179506Y0064104D01*
X0184110Y0063337D02*
X0184110Y0062569D01*
X0184877Y0061802D01*
X0187179Y0061802D01*
X0187179Y0063337D02*
X0186412Y0064104D01*
X0184877Y0064104D01*
X0184110Y0063337D01*
X0187179Y0063337D02*
X0187179Y0060267D01*
X0186412Y0059500D01*
X0184877Y0059500D01*
X0184110Y0060267D01*
X0185644Y0071802D02*
X0186412Y0071802D01*
X0186412Y0044104D02*
X0187179Y0043337D01*
X0187179Y0042569D01*
X0186412Y0041802D01*
X0184877Y0041802D01*
X0184110Y0042569D01*
X0184110Y0043337D01*
X0184877Y0044104D01*
X0186412Y0044104D01*
X0186412Y0041802D02*
X0187179Y0041035D01*
X0187179Y0040267D01*
X0186412Y0039500D01*
X0184877Y0039500D01*
X0184110Y0040267D01*
X0184110Y0041035D01*
X0184877Y0041802D01*
X0182575Y0042569D02*
X0181808Y0041802D01*
X0179506Y0041802D01*
X0181808Y0041802D02*
X0182575Y0041035D01*
X0182575Y0040267D01*
X0181808Y0039500D01*
X0179506Y0039500D01*
X0179506Y0044104D01*
X0181808Y0044104D01*
X0182575Y0043337D01*
X0182575Y0042569D01*
X0181808Y0034104D02*
X0179506Y0034104D01*
X0179506Y0029500D01*
X0181808Y0029500D01*
X0182575Y0030267D01*
X0182575Y0031035D01*
X0181808Y0031802D01*
X0179506Y0031802D01*
X0181808Y0031802D02*
X0182575Y0032569D01*
X0182575Y0033337D01*
X0181808Y0034104D01*
X0184110Y0034104D02*
X0187179Y0034104D01*
X0187179Y0033337D01*
X0184110Y0030267D01*
X0184110Y0029500D01*
X0184110Y0024104D02*
X0186412Y0024104D01*
X0187179Y0023337D01*
X0187179Y0020267D01*
X0186412Y0019500D01*
X0184110Y0019500D01*
X0184110Y0024104D01*
X0182575Y0024104D02*
X0182575Y0019500D01*
X0179506Y0024104D01*
X0179506Y0019500D01*
X0177971Y0020267D02*
X0177971Y0021802D01*
X0176437Y0021802D01*
X0177971Y0023337D02*
X0177204Y0024104D01*
X0175669Y0024104D01*
X0174902Y0023337D01*
X0174902Y0020267D01*
X0175669Y0019500D01*
X0177204Y0019500D01*
X0177971Y0020267D01*
X0179506Y0014104D02*
X0179506Y0011802D01*
X0181041Y0012569D01*
X0181808Y0012569D01*
X0182575Y0011802D01*
X0182575Y0010267D01*
X0181808Y0009500D01*
X0180273Y0009500D01*
X0179506Y0010267D01*
X0177971Y0011802D02*
X0174902Y0011802D01*
X0176437Y0013337D02*
X0176437Y0010267D01*
X0179506Y0014104D02*
X0182575Y0014104D01*
X0184110Y0014104D02*
X0184110Y0011035D01*
X0185644Y0009500D01*
X0187179Y0011035D01*
X0187179Y0014104D01*
D13*
X0126014Y0009300D02*
X0126014Y0006800D01*
X0106014Y0006800D01*
X0106014Y0009300D01*
X0061014Y0046800D02*
X0061014Y0066800D01*
X0061011Y0067044D01*
X0061002Y0067287D01*
X0060987Y0067530D01*
X0060967Y0067773D01*
X0060940Y0068015D01*
X0060907Y0068256D01*
X0060869Y0068496D01*
X0060825Y0068736D01*
X0060775Y0068974D01*
X0060719Y0069211D01*
X0060657Y0069447D01*
X0060590Y0069681D01*
X0060517Y0069913D01*
X0060438Y0070144D01*
X0060354Y0070372D01*
X0060264Y0070599D01*
X0060169Y0070823D01*
X0060068Y0071045D01*
X0059962Y0071264D01*
X0059851Y0071480D01*
X0059734Y0071694D01*
X0059613Y0071905D01*
X0059486Y0072113D01*
X0059354Y0072318D01*
X0059217Y0072519D01*
X0059075Y0072717D01*
X0058929Y0072912D01*
X0058778Y0073103D01*
X0058622Y0073290D01*
X0058462Y0073473D01*
X0058297Y0073653D01*
X0058128Y0073828D01*
X0057955Y0073999D01*
X0057777Y0074166D01*
X0057596Y0074328D01*
X0057411Y0074486D01*
X0057222Y0074640D01*
X0057029Y0074789D01*
X0056833Y0074933D01*
X0056633Y0075072D01*
X0056430Y0075207D01*
X0056223Y0075336D01*
X0056014Y0075460D01*
X0055802Y0075579D01*
X0055586Y0075693D01*
X0055369Y0075802D01*
X0055148Y0075905D01*
X0054925Y0076003D01*
X0054700Y0076096D01*
X0054472Y0076183D01*
X0054243Y0076264D01*
X0054011Y0076340D01*
X0053778Y0076410D01*
X0053543Y0076475D01*
X0053307Y0076534D01*
X0053069Y0076587D01*
X0052830Y0076634D01*
X0052590Y0076675D01*
X0052349Y0076710D01*
X0052108Y0076740D01*
X0051865Y0076764D01*
X0051622Y0076781D01*
X0051379Y0076793D01*
X0051136Y0076799D01*
X0050892Y0076799D01*
X0050649Y0076793D01*
X0050406Y0076781D01*
X0050163Y0076764D01*
X0049920Y0076740D01*
X0049679Y0076710D01*
X0049438Y0076675D01*
X0049198Y0076634D01*
X0048959Y0076587D01*
X0048721Y0076534D01*
X0048485Y0076475D01*
X0048250Y0076410D01*
X0048017Y0076340D01*
X0047785Y0076264D01*
X0047556Y0076183D01*
X0047328Y0076096D01*
X0047103Y0076003D01*
X0046880Y0075905D01*
X0046659Y0075802D01*
X0046442Y0075693D01*
X0046226Y0075579D01*
X0046014Y0075460D01*
X0045805Y0075336D01*
X0045598Y0075207D01*
X0045395Y0075072D01*
X0045195Y0074933D01*
X0044999Y0074789D01*
X0044806Y0074640D01*
X0044617Y0074486D01*
X0044432Y0074328D01*
X0044251Y0074166D01*
X0044073Y0073999D01*
X0043900Y0073828D01*
X0043731Y0073653D01*
X0043566Y0073473D01*
X0043406Y0073290D01*
X0043250Y0073103D01*
X0043099Y0072912D01*
X0042953Y0072717D01*
X0042811Y0072519D01*
X0042674Y0072318D01*
X0042542Y0072113D01*
X0042415Y0071905D01*
X0042294Y0071694D01*
X0042177Y0071480D01*
X0042066Y0071264D01*
X0041960Y0071045D01*
X0041859Y0070823D01*
X0041764Y0070599D01*
X0041674Y0070372D01*
X0041590Y0070144D01*
X0041511Y0069913D01*
X0041438Y0069681D01*
X0041371Y0069447D01*
X0041309Y0069211D01*
X0041253Y0068974D01*
X0041203Y0068736D01*
X0041159Y0068496D01*
X0041121Y0068256D01*
X0041088Y0068015D01*
X0041061Y0067773D01*
X0041041Y0067530D01*
X0041026Y0067287D01*
X0041017Y0067044D01*
X0041014Y0066800D01*
X0041014Y0046800D01*
X0041017Y0046556D01*
X0041026Y0046313D01*
X0041041Y0046070D01*
X0041061Y0045827D01*
X0041088Y0045585D01*
X0041121Y0045344D01*
X0041159Y0045104D01*
X0041203Y0044864D01*
X0041253Y0044626D01*
X0041309Y0044389D01*
X0041371Y0044153D01*
X0041438Y0043919D01*
X0041511Y0043687D01*
X0041590Y0043456D01*
X0041674Y0043228D01*
X0041764Y0043001D01*
X0041859Y0042777D01*
X0041960Y0042555D01*
X0042066Y0042336D01*
X0042177Y0042120D01*
X0042294Y0041906D01*
X0042415Y0041695D01*
X0042542Y0041487D01*
X0042674Y0041282D01*
X0042811Y0041081D01*
X0042953Y0040883D01*
X0043099Y0040688D01*
X0043250Y0040497D01*
X0043406Y0040310D01*
X0043566Y0040127D01*
X0043731Y0039947D01*
X0043900Y0039772D01*
X0044073Y0039601D01*
X0044251Y0039434D01*
X0044432Y0039272D01*
X0044617Y0039114D01*
X0044806Y0038960D01*
X0044999Y0038811D01*
X0045195Y0038667D01*
X0045395Y0038528D01*
X0045598Y0038393D01*
X0045805Y0038264D01*
X0046014Y0038140D01*
X0046226Y0038021D01*
X0046442Y0037907D01*
X0046659Y0037798D01*
X0046880Y0037695D01*
X0047103Y0037597D01*
X0047328Y0037504D01*
X0047556Y0037417D01*
X0047785Y0037336D01*
X0048017Y0037260D01*
X0048250Y0037190D01*
X0048485Y0037125D01*
X0048721Y0037066D01*
X0048959Y0037013D01*
X0049198Y0036966D01*
X0049438Y0036925D01*
X0049679Y0036890D01*
X0049920Y0036860D01*
X0050163Y0036836D01*
X0050406Y0036819D01*
X0050649Y0036807D01*
X0050892Y0036801D01*
X0051136Y0036801D01*
X0051379Y0036807D01*
X0051622Y0036819D01*
X0051865Y0036836D01*
X0052108Y0036860D01*
X0052349Y0036890D01*
X0052590Y0036925D01*
X0052830Y0036966D01*
X0053069Y0037013D01*
X0053307Y0037066D01*
X0053543Y0037125D01*
X0053778Y0037190D01*
X0054011Y0037260D01*
X0054243Y0037336D01*
X0054472Y0037417D01*
X0054700Y0037504D01*
X0054925Y0037597D01*
X0055148Y0037695D01*
X0055369Y0037798D01*
X0055586Y0037907D01*
X0055802Y0038021D01*
X0056014Y0038140D01*
X0056223Y0038264D01*
X0056430Y0038393D01*
X0056633Y0038528D01*
X0056833Y0038667D01*
X0057029Y0038811D01*
X0057222Y0038960D01*
X0057411Y0039114D01*
X0057596Y0039272D01*
X0057777Y0039434D01*
X0057955Y0039601D01*
X0058128Y0039772D01*
X0058297Y0039947D01*
X0058462Y0040127D01*
X0058622Y0040310D01*
X0058778Y0040497D01*
X0058929Y0040688D01*
X0059075Y0040883D01*
X0059217Y0041081D01*
X0059354Y0041282D01*
X0059486Y0041487D01*
X0059613Y0041695D01*
X0059734Y0041906D01*
X0059851Y0042120D01*
X0059962Y0042336D01*
X0060068Y0042555D01*
X0060169Y0042777D01*
X0060264Y0043001D01*
X0060354Y0043228D01*
X0060438Y0043456D01*
X0060517Y0043687D01*
X0060590Y0043919D01*
X0060657Y0044153D01*
X0060719Y0044389D01*
X0060775Y0044626D01*
X0060825Y0044864D01*
X0060869Y0045104D01*
X0060907Y0045344D01*
X0060940Y0045585D01*
X0060967Y0045827D01*
X0060987Y0046070D01*
X0061002Y0046313D01*
X0061011Y0046556D01*
X0061014Y0046800D01*
X0061264Y0097050D02*
X0061264Y0103155D01*
X0065334Y0097050D01*
X0065334Y0103155D01*
X0067360Y0105932D02*
X0063289Y0105932D01*
X0061282Y0106950D02*
X0057212Y0106950D01*
X0061282Y0111020D01*
X0061282Y0112038D01*
X0060265Y0113055D01*
X0058230Y0113055D01*
X0057212Y0112038D01*
X0055205Y0112038D02*
X0054188Y0113055D01*
X0052153Y0113055D01*
X0051135Y0112038D01*
X0049128Y0112038D02*
X0048111Y0113055D01*
X0046075Y0113055D01*
X0045058Y0112038D01*
X0045058Y0107968D01*
X0046075Y0106950D01*
X0048111Y0106950D01*
X0049128Y0107968D01*
X0051135Y0107968D02*
X0052153Y0106950D01*
X0054188Y0106950D01*
X0055205Y0107968D01*
X0055205Y0108985D01*
X0054188Y0110003D01*
X0053170Y0110003D01*
X0054188Y0110003D02*
X0055205Y0111020D01*
X0055205Y0112038D01*
X0055187Y0103155D02*
X0055187Y0097050D01*
X0053180Y0098068D02*
X0053180Y0102138D01*
X0052162Y0103155D01*
X0050127Y0103155D01*
X0049109Y0102138D01*
X0049109Y0098068D01*
X0050127Y0097050D01*
X0052162Y0097050D01*
X0053180Y0098068D01*
X0055187Y0100103D02*
X0059257Y0100103D01*
X0059257Y0103155D02*
X0059257Y0097050D01*
X0046085Y0098068D02*
X0046085Y0103155D01*
X0047102Y0103155D02*
X0045067Y0103155D01*
X0043042Y0106950D02*
X0041006Y0106950D01*
X0042024Y0106950D02*
X0042024Y0113055D01*
X0041006Y0113055D02*
X0043042Y0113055D01*
X0038999Y0112038D02*
X0038999Y0110003D01*
X0037982Y0108985D01*
X0034929Y0108985D01*
X0034929Y0106950D02*
X0034929Y0113055D01*
X0037982Y0113055D01*
X0038999Y0112038D01*
X0043032Y0098068D02*
X0044050Y0097050D01*
X0045067Y0097050D01*
X0046085Y0098068D01*
X0069367Y0110003D02*
X0073437Y0110003D01*
X0075444Y0112038D02*
X0076461Y0113055D01*
X0078496Y0113055D01*
X0079514Y0112038D01*
X0079514Y0111020D01*
X0078496Y0110003D01*
X0079514Y0108985D01*
X0079514Y0107968D01*
X0078496Y0106950D01*
X0076461Y0106950D01*
X0075444Y0107968D01*
X0077479Y0110003D02*
X0078496Y0110003D01*
X0081521Y0112038D02*
X0082539Y0113055D01*
X0084574Y0113055D01*
X0085591Y0112038D01*
X0085591Y0111020D01*
X0084574Y0110003D01*
X0085591Y0108985D01*
X0085591Y0107968D01*
X0084574Y0106950D01*
X0082539Y0106950D01*
X0081521Y0107968D01*
X0083556Y0110003D02*
X0084574Y0110003D01*
X0077488Y0103155D02*
X0073418Y0103155D01*
X0075453Y0103155D02*
X0075453Y0097050D01*
X0072419Y0106950D02*
X0072419Y0113055D01*
X0069367Y0110003D01*
X0106014Y0144300D02*
X0106014Y0146800D01*
X0111014Y0146800D01*
X0111014Y0146801D02*
X0111092Y0146671D01*
X0111172Y0146543D01*
X0111256Y0146417D01*
X0111344Y0146294D01*
X0111434Y0146173D01*
X0111528Y0146054D01*
X0111624Y0145938D01*
X0111724Y0145824D01*
X0111826Y0145713D01*
X0111932Y0145605D01*
X0112040Y0145499D01*
X0112151Y0145397D01*
X0112265Y0145297D01*
X0112381Y0145201D01*
X0112500Y0145107D01*
X0112621Y0145017D01*
X0112744Y0144929D01*
X0112870Y0144845D01*
X0112998Y0144765D01*
X0113128Y0144687D01*
X0113259Y0144614D01*
X0113393Y0144543D01*
X0113529Y0144476D01*
X0113666Y0144413D01*
X0113805Y0144353D01*
X0113945Y0144297D01*
X0114087Y0144245D01*
X0114230Y0144197D01*
X0114374Y0144152D01*
X0114520Y0144111D01*
X0114666Y0144074D01*
X0114814Y0144040D01*
X0114962Y0144011D01*
X0115111Y0143985D01*
X0115260Y0143963D01*
X0115411Y0143946D01*
X0115561Y0143932D01*
X0115712Y0143922D01*
X0115863Y0143916D01*
X0116014Y0143914D01*
X0116165Y0143916D01*
X0116316Y0143922D01*
X0116467Y0143932D01*
X0116617Y0143946D01*
X0116768Y0143963D01*
X0116917Y0143985D01*
X0117066Y0144011D01*
X0117214Y0144040D01*
X0117362Y0144074D01*
X0117508Y0144111D01*
X0117654Y0144152D01*
X0117798Y0144197D01*
X0117941Y0144245D01*
X0118083Y0144297D01*
X0118223Y0144353D01*
X0118362Y0144413D01*
X0118499Y0144476D01*
X0118635Y0144543D01*
X0118769Y0144614D01*
X0118901Y0144687D01*
X0119030Y0144765D01*
X0119158Y0144845D01*
X0119284Y0144929D01*
X0119407Y0145017D01*
X0119528Y0145107D01*
X0119647Y0145201D01*
X0119763Y0145297D01*
X0119877Y0145397D01*
X0119988Y0145499D01*
X0120096Y0145605D01*
X0120202Y0145713D01*
X0120304Y0145824D01*
X0120404Y0145938D01*
X0120500Y0146054D01*
X0120594Y0146173D01*
X0120684Y0146294D01*
X0120772Y0146417D01*
X0120856Y0146543D01*
X0120936Y0146671D01*
X0121014Y0146801D01*
X0126014Y0146800D01*
X0126014Y0144300D01*
X0126066Y0148050D02*
X0126066Y0152554D01*
X0128318Y0152554D01*
X0129068Y0151803D01*
X0129068Y0150302D01*
X0128318Y0149551D01*
X0126066Y0149551D01*
X0127567Y0149551D02*
X0129068Y0148050D01*
X0124464Y0148050D02*
X0124464Y0152554D01*
X0121462Y0152554D02*
X0121462Y0148050D01*
X0122963Y0149551D01*
X0124464Y0148050D01*
X0119860Y0150302D02*
X0119860Y0151803D01*
X0119110Y0152554D01*
X0116858Y0152554D01*
X0116858Y0148050D01*
X0116858Y0149551D02*
X0119110Y0149551D01*
X0119860Y0150302D01*
X0146014Y0174300D02*
X0166014Y0174300D01*
X0166112Y0174302D01*
X0166210Y0174308D01*
X0166308Y0174317D01*
X0166405Y0174331D01*
X0166502Y0174348D01*
X0166598Y0174369D01*
X0166693Y0174394D01*
X0166787Y0174422D01*
X0166879Y0174455D01*
X0166971Y0174490D01*
X0167061Y0174530D01*
X0167149Y0174572D01*
X0167236Y0174619D01*
X0167320Y0174668D01*
X0167403Y0174721D01*
X0167483Y0174777D01*
X0167562Y0174837D01*
X0167638Y0174899D01*
X0167711Y0174964D01*
X0167782Y0175032D01*
X0167850Y0175103D01*
X0167915Y0175176D01*
X0167977Y0175252D01*
X0168037Y0175331D01*
X0168093Y0175411D01*
X0168146Y0175494D01*
X0168195Y0175578D01*
X0168242Y0175665D01*
X0168284Y0175753D01*
X0168324Y0175843D01*
X0168359Y0175935D01*
X0168392Y0176027D01*
X0168420Y0176121D01*
X0168445Y0176216D01*
X0168466Y0176312D01*
X0168483Y0176409D01*
X0168497Y0176506D01*
X0168506Y0176604D01*
X0168512Y0176702D01*
X0168514Y0176800D01*
X0168514Y0196800D01*
X0168512Y0196898D01*
X0168506Y0196996D01*
X0168497Y0197094D01*
X0168483Y0197191D01*
X0168466Y0197288D01*
X0168445Y0197384D01*
X0168420Y0197479D01*
X0168392Y0197573D01*
X0168359Y0197665D01*
X0168324Y0197757D01*
X0168284Y0197847D01*
X0168242Y0197935D01*
X0168195Y0198022D01*
X0168146Y0198106D01*
X0168093Y0198189D01*
X0168037Y0198269D01*
X0167977Y0198348D01*
X0167915Y0198424D01*
X0167850Y0198497D01*
X0167782Y0198568D01*
X0167711Y0198636D01*
X0167638Y0198701D01*
X0167562Y0198763D01*
X0167483Y0198823D01*
X0167403Y0198879D01*
X0167320Y0198932D01*
X0167236Y0198981D01*
X0167149Y0199028D01*
X0167061Y0199070D01*
X0166971Y0199110D01*
X0166879Y0199145D01*
X0166787Y0199178D01*
X0166693Y0199206D01*
X0166598Y0199231D01*
X0166502Y0199252D01*
X0166405Y0199269D01*
X0166308Y0199283D01*
X0166210Y0199292D01*
X0166112Y0199298D01*
X0166014Y0199300D01*
X0146014Y0199300D01*
X0145916Y0199298D01*
X0145818Y0199292D01*
X0145720Y0199283D01*
X0145623Y0199269D01*
X0145526Y0199252D01*
X0145430Y0199231D01*
X0145335Y0199206D01*
X0145241Y0199178D01*
X0145149Y0199145D01*
X0145057Y0199110D01*
X0144967Y0199070D01*
X0144879Y0199028D01*
X0144792Y0198981D01*
X0144708Y0198932D01*
X0144625Y0198879D01*
X0144545Y0198823D01*
X0144466Y0198763D01*
X0144390Y0198701D01*
X0144317Y0198636D01*
X0144246Y0198568D01*
X0144178Y0198497D01*
X0144113Y0198424D01*
X0144051Y0198348D01*
X0143991Y0198269D01*
X0143935Y0198189D01*
X0143882Y0198106D01*
X0143833Y0198022D01*
X0143786Y0197935D01*
X0143744Y0197847D01*
X0143704Y0197757D01*
X0143669Y0197665D01*
X0143636Y0197573D01*
X0143608Y0197479D01*
X0143583Y0197384D01*
X0143562Y0197288D01*
X0143545Y0197191D01*
X0143531Y0197094D01*
X0143522Y0196996D01*
X0143516Y0196898D01*
X0143514Y0196800D01*
X0143514Y0176800D01*
X0143516Y0176702D01*
X0143522Y0176604D01*
X0143531Y0176506D01*
X0143545Y0176409D01*
X0143562Y0176312D01*
X0143583Y0176216D01*
X0143608Y0176121D01*
X0143636Y0176027D01*
X0143669Y0175935D01*
X0143704Y0175843D01*
X0143744Y0175753D01*
X0143786Y0175665D01*
X0143833Y0175578D01*
X0143882Y0175494D01*
X0143935Y0175411D01*
X0143991Y0175331D01*
X0144051Y0175252D01*
X0144113Y0175176D01*
X0144178Y0175103D01*
X0144246Y0175032D01*
X0144317Y0174964D01*
X0144390Y0174899D01*
X0144466Y0174837D01*
X0144545Y0174777D01*
X0144625Y0174721D01*
X0144708Y0174668D01*
X0144792Y0174619D01*
X0144879Y0174572D01*
X0144967Y0174530D01*
X0145057Y0174490D01*
X0145149Y0174455D01*
X0145241Y0174422D01*
X0145335Y0174394D01*
X0145430Y0174369D01*
X0145526Y0174348D01*
X0145623Y0174331D01*
X0145720Y0174317D01*
X0145818Y0174308D01*
X0145916Y0174302D01*
X0146014Y0174300D01*
X0148764Y0152554D02*
X0148764Y0148050D01*
X0151766Y0148050D01*
X0153368Y0148050D02*
X0156370Y0151053D01*
X0156370Y0151803D01*
X0155620Y0152554D01*
X0154118Y0152554D01*
X0153368Y0151803D01*
X0153368Y0148050D02*
X0156370Y0148050D01*
X0178764Y0148050D02*
X0181766Y0148050D01*
X0183368Y0148050D02*
X0186370Y0148050D01*
X0184869Y0148050D02*
X0184869Y0152554D01*
X0183368Y0151053D01*
X0178764Y0152554D02*
X0178764Y0148050D01*
X0176014Y0174300D02*
X0196014Y0174300D01*
X0196112Y0174302D01*
X0196210Y0174308D01*
X0196308Y0174317D01*
X0196405Y0174331D01*
X0196502Y0174348D01*
X0196598Y0174369D01*
X0196693Y0174394D01*
X0196787Y0174422D01*
X0196879Y0174455D01*
X0196971Y0174490D01*
X0197061Y0174530D01*
X0197149Y0174572D01*
X0197236Y0174619D01*
X0197320Y0174668D01*
X0197403Y0174721D01*
X0197483Y0174777D01*
X0197562Y0174837D01*
X0197638Y0174899D01*
X0197711Y0174964D01*
X0197782Y0175032D01*
X0197850Y0175103D01*
X0197915Y0175176D01*
X0197977Y0175252D01*
X0198037Y0175331D01*
X0198093Y0175411D01*
X0198146Y0175494D01*
X0198195Y0175578D01*
X0198242Y0175665D01*
X0198284Y0175753D01*
X0198324Y0175843D01*
X0198359Y0175935D01*
X0198392Y0176027D01*
X0198420Y0176121D01*
X0198445Y0176216D01*
X0198466Y0176312D01*
X0198483Y0176409D01*
X0198497Y0176506D01*
X0198506Y0176604D01*
X0198512Y0176702D01*
X0198514Y0176800D01*
X0198514Y0196800D01*
X0198512Y0196898D01*
X0198506Y0196996D01*
X0198497Y0197094D01*
X0198483Y0197191D01*
X0198466Y0197288D01*
X0198445Y0197384D01*
X0198420Y0197479D01*
X0198392Y0197573D01*
X0198359Y0197665D01*
X0198324Y0197757D01*
X0198284Y0197847D01*
X0198242Y0197935D01*
X0198195Y0198022D01*
X0198146Y0198106D01*
X0198093Y0198189D01*
X0198037Y0198269D01*
X0197977Y0198348D01*
X0197915Y0198424D01*
X0197850Y0198497D01*
X0197782Y0198568D01*
X0197711Y0198636D01*
X0197638Y0198701D01*
X0197562Y0198763D01*
X0197483Y0198823D01*
X0197403Y0198879D01*
X0197320Y0198932D01*
X0197236Y0198981D01*
X0197149Y0199028D01*
X0197061Y0199070D01*
X0196971Y0199110D01*
X0196879Y0199145D01*
X0196787Y0199178D01*
X0196693Y0199206D01*
X0196598Y0199231D01*
X0196502Y0199252D01*
X0196405Y0199269D01*
X0196308Y0199283D01*
X0196210Y0199292D01*
X0196112Y0199298D01*
X0196014Y0199300D01*
X0176014Y0199300D01*
X0175916Y0199298D01*
X0175818Y0199292D01*
X0175720Y0199283D01*
X0175623Y0199269D01*
X0175526Y0199252D01*
X0175430Y0199231D01*
X0175335Y0199206D01*
X0175241Y0199178D01*
X0175149Y0199145D01*
X0175057Y0199110D01*
X0174967Y0199070D01*
X0174879Y0199028D01*
X0174792Y0198981D01*
X0174708Y0198932D01*
X0174625Y0198879D01*
X0174545Y0198823D01*
X0174466Y0198763D01*
X0174390Y0198701D01*
X0174317Y0198636D01*
X0174246Y0198568D01*
X0174178Y0198497D01*
X0174113Y0198424D01*
X0174051Y0198348D01*
X0173991Y0198269D01*
X0173935Y0198189D01*
X0173882Y0198106D01*
X0173833Y0198022D01*
X0173786Y0197935D01*
X0173744Y0197847D01*
X0173704Y0197757D01*
X0173669Y0197665D01*
X0173636Y0197573D01*
X0173608Y0197479D01*
X0173583Y0197384D01*
X0173562Y0197288D01*
X0173545Y0197191D01*
X0173531Y0197094D01*
X0173522Y0196996D01*
X0173516Y0196898D01*
X0173514Y0196800D01*
X0173514Y0176800D01*
X0173516Y0176702D01*
X0173522Y0176604D01*
X0173531Y0176506D01*
X0173545Y0176409D01*
X0173562Y0176312D01*
X0173583Y0176216D01*
X0173608Y0176121D01*
X0173636Y0176027D01*
X0173669Y0175935D01*
X0173704Y0175843D01*
X0173744Y0175753D01*
X0173786Y0175665D01*
X0173833Y0175578D01*
X0173882Y0175494D01*
X0173935Y0175411D01*
X0173991Y0175331D01*
X0174051Y0175252D01*
X0174113Y0175176D01*
X0174178Y0175103D01*
X0174246Y0175032D01*
X0174317Y0174964D01*
X0174390Y0174899D01*
X0174466Y0174837D01*
X0174545Y0174777D01*
X0174625Y0174721D01*
X0174708Y0174668D01*
X0174792Y0174619D01*
X0174879Y0174572D01*
X0174967Y0174530D01*
X0175057Y0174490D01*
X0175149Y0174455D01*
X0175241Y0174422D01*
X0175335Y0174394D01*
X0175430Y0174369D01*
X0175526Y0174348D01*
X0175623Y0174331D01*
X0175720Y0174317D01*
X0175818Y0174308D01*
X0175916Y0174302D01*
X0176014Y0174300D01*
D14*
X0157661Y0139938D02*
X0157661Y0138003D01*
X0160564Y0138003D01*
X0160564Y0136992D02*
X0158629Y0136992D01*
X0159113Y0138003D02*
X0159113Y0138971D01*
X0160564Y0136992D02*
X0160564Y0135541D01*
X0160080Y0135057D01*
X0158629Y0135057D01*
X0160564Y0134045D02*
X0160564Y0132110D01*
X0160564Y0133078D02*
X0157661Y0133078D01*
X0158629Y0132110D01*
X0160080Y0131121D02*
X0160564Y0131121D01*
X0160564Y0130637D01*
X0160080Y0130637D01*
X0160080Y0131121D01*
X0160080Y0129626D02*
X0160564Y0129142D01*
X0160564Y0128174D01*
X0160080Y0127691D01*
X0158145Y0129626D01*
X0160080Y0129626D01*
X0158145Y0129626D02*
X0157661Y0129142D01*
X0157661Y0128174D01*
X0158145Y0127691D01*
X0160080Y0127691D01*
X0179661Y0128487D02*
X0179661Y0129455D01*
X0180145Y0129938D01*
X0182080Y0128003D01*
X0182564Y0128487D01*
X0182564Y0129455D01*
X0182080Y0129938D01*
X0180145Y0129938D01*
X0179661Y0128487D02*
X0180145Y0128003D01*
X0182080Y0128003D01*
X0182080Y0126992D02*
X0182564Y0126508D01*
X0182564Y0125541D01*
X0182080Y0125057D01*
X0182080Y0124045D02*
X0182564Y0123562D01*
X0182564Y0122594D01*
X0182080Y0122110D01*
X0181113Y0123078D02*
X0181113Y0123562D01*
X0181596Y0124045D01*
X0182080Y0124045D01*
X0181113Y0123562D02*
X0180629Y0124045D01*
X0180145Y0124045D01*
X0179661Y0123562D01*
X0179661Y0122594D01*
X0180145Y0122110D01*
X0180145Y0125057D02*
X0179661Y0125541D01*
X0179661Y0126508D01*
X0180145Y0126992D01*
X0180629Y0126992D01*
X0181113Y0126508D01*
X0181596Y0126992D01*
X0182080Y0126992D01*
X0181113Y0126508D02*
X0181113Y0126024D01*
X0116564Y0095455D02*
X0116564Y0094003D01*
X0113661Y0094003D01*
X0113661Y0095455D01*
X0114145Y0095938D01*
X0114629Y0095938D01*
X0115113Y0095455D01*
X0115113Y0094003D01*
X0115596Y0092992D02*
X0116080Y0092992D01*
X0116564Y0092508D01*
X0116564Y0091541D01*
X0116080Y0091057D01*
X0115596Y0091057D01*
X0115113Y0091541D01*
X0115113Y0092508D01*
X0115596Y0092992D01*
X0115113Y0092508D02*
X0114629Y0092992D01*
X0114145Y0092992D01*
X0113661Y0092508D01*
X0113661Y0091541D01*
X0114145Y0091057D01*
X0114629Y0091057D01*
X0115113Y0091541D01*
X0114629Y0090045D02*
X0114145Y0090045D01*
X0113661Y0089562D01*
X0113661Y0088594D01*
X0114145Y0088110D01*
X0114629Y0090045D02*
X0116564Y0088110D01*
X0116564Y0090045D01*
X0116564Y0087099D02*
X0116564Y0085164D01*
X0116564Y0086131D02*
X0113661Y0086131D01*
X0114629Y0085164D01*
X0113661Y0084152D02*
X0113661Y0082217D01*
X0116564Y0082217D01*
X0116080Y0081206D02*
X0116564Y0080722D01*
X0116564Y0079755D01*
X0116080Y0079271D01*
X0114145Y0081206D01*
X0116080Y0081206D01*
X0115113Y0082217D02*
X0115113Y0083185D01*
X0114145Y0081206D02*
X0113661Y0080722D01*
X0113661Y0079755D01*
X0114145Y0079271D01*
X0116080Y0079271D01*
X0116080Y0078259D02*
X0116564Y0077776D01*
X0116564Y0076808D01*
X0116080Y0076324D01*
X0115113Y0076324D02*
X0114629Y0077292D01*
X0114629Y0077776D01*
X0115113Y0078259D01*
X0116080Y0078259D01*
X0115113Y0076324D02*
X0113661Y0076324D01*
X0113661Y0078259D01*
X0114145Y0075313D02*
X0113661Y0074829D01*
X0113661Y0073862D01*
X0114145Y0073378D01*
X0113661Y0072366D02*
X0116564Y0070431D01*
X0116564Y0069420D02*
X0113661Y0069420D01*
X0114629Y0068452D01*
X0113661Y0067485D01*
X0116564Y0067485D01*
X0116564Y0066473D02*
X0116564Y0064538D01*
X0114629Y0066473D01*
X0114145Y0066473D01*
X0113661Y0065990D01*
X0113661Y0065022D01*
X0114145Y0064538D01*
X0114145Y0063527D02*
X0114629Y0063527D01*
X0115113Y0063043D01*
X0115596Y0063527D01*
X0116080Y0063527D01*
X0116564Y0063043D01*
X0116564Y0062076D01*
X0116080Y0061592D01*
X0116080Y0060580D02*
X0116564Y0060096D01*
X0116564Y0059129D01*
X0116080Y0058645D01*
X0114145Y0058645D01*
X0113661Y0059129D01*
X0113661Y0060096D01*
X0114145Y0060580D01*
X0114145Y0061592D02*
X0113661Y0062076D01*
X0113661Y0063043D01*
X0114145Y0063527D01*
X0115113Y0063043D02*
X0115113Y0062559D01*
X0116564Y0057648D02*
X0116564Y0056681D01*
X0116564Y0057165D02*
X0113661Y0057165D01*
X0113661Y0057648D02*
X0113661Y0056681D01*
X0114145Y0055669D02*
X0115113Y0055669D01*
X0115596Y0055186D01*
X0115596Y0053734D01*
X0116564Y0053734D02*
X0113661Y0053734D01*
X0113661Y0055186D01*
X0114145Y0055669D01*
X0113661Y0070431D02*
X0116564Y0072366D01*
X0116564Y0073378D02*
X0114629Y0075313D01*
X0114145Y0075313D01*
X0116564Y0075313D02*
X0116564Y0073378D01*
X0116564Y0095455D02*
X0116080Y0095938D01*
X0115596Y0095938D01*
X0115113Y0095455D01*
X0074375Y0094153D02*
X0071906Y0094153D01*
X0071906Y0092302D01*
X0073141Y0092919D01*
X0073758Y0092919D01*
X0074375Y0092302D01*
X0074375Y0091067D01*
X0073758Y0090450D01*
X0072523Y0090450D01*
X0071906Y0091067D01*
X0070692Y0090450D02*
X0068223Y0090450D01*
X0069458Y0090450D02*
X0069458Y0094153D01*
X0068223Y0092919D01*
X0067009Y0093536D02*
X0067009Y0091067D01*
X0066392Y0090450D01*
X0065157Y0090450D01*
X0064540Y0091067D01*
X0067009Y0093536D01*
X0066392Y0094153D01*
X0065157Y0094153D01*
X0064540Y0093536D01*
X0064540Y0091067D01*
X0063326Y0090450D02*
X0060857Y0090450D01*
X0063326Y0092919D01*
X0063326Y0093536D01*
X0062708Y0094153D01*
X0061474Y0094153D01*
X0060857Y0093536D01*
X0055956Y0092919D02*
X0055339Y0092919D01*
X0054104Y0091684D01*
X0054104Y0090450D02*
X0054104Y0092919D01*
X0052890Y0092302D02*
X0052890Y0091067D01*
X0052273Y0090450D01*
X0050421Y0090450D01*
X0049207Y0090450D02*
X0049207Y0092919D01*
X0047973Y0094153D01*
X0046738Y0092919D01*
X0046738Y0090450D01*
X0046738Y0092302D02*
X0049207Y0092302D01*
X0050421Y0092919D02*
X0050421Y0089216D01*
X0052890Y0092302D02*
X0052273Y0092919D01*
X0050421Y0092919D01*
X0057481Y0086919D02*
X0058715Y0084450D01*
X0059949Y0086919D01*
X0061164Y0086919D02*
X0062398Y0088153D01*
X0062398Y0084450D01*
X0061164Y0084450D02*
X0063633Y0084450D01*
X0056168Y0125250D02*
X0055201Y0125250D01*
X0054717Y0125734D01*
X0056652Y0127669D01*
X0056652Y0125734D01*
X0056168Y0125250D01*
X0054717Y0125734D02*
X0054717Y0127669D01*
X0055201Y0128152D01*
X0056168Y0128152D01*
X0056652Y0127669D01*
X0053706Y0127669D02*
X0053706Y0127185D01*
X0053222Y0126701D01*
X0053706Y0126217D01*
X0053706Y0125734D01*
X0053222Y0125250D01*
X0052254Y0125250D01*
X0051771Y0125734D01*
X0050759Y0125734D02*
X0050275Y0125250D01*
X0049308Y0125250D01*
X0048824Y0125734D01*
X0049792Y0126701D02*
X0050275Y0126701D01*
X0050759Y0126217D01*
X0050759Y0125734D01*
X0050275Y0126701D02*
X0050759Y0127185D01*
X0050759Y0127669D01*
X0050275Y0128152D01*
X0049308Y0128152D01*
X0048824Y0127669D01*
X0051771Y0127669D02*
X0052254Y0128152D01*
X0053222Y0128152D01*
X0053706Y0127669D01*
X0053222Y0126701D02*
X0052738Y0126701D01*
X0053664Y0146950D02*
X0055599Y0146950D01*
X0056610Y0146950D02*
X0058062Y0146950D01*
X0058545Y0147434D01*
X0058545Y0149369D01*
X0058062Y0149852D01*
X0056610Y0149852D01*
X0056610Y0146950D01*
X0053664Y0146950D02*
X0053664Y0149852D01*
X0059557Y0148885D02*
X0060524Y0149852D01*
X0060524Y0146950D01*
X0059557Y0146950D02*
X0061492Y0146950D01*
X0062503Y0146950D02*
X0064438Y0146950D01*
X0063471Y0146950D02*
X0063471Y0149852D01*
X0062503Y0148885D01*
X0065450Y0148885D02*
X0066417Y0149852D01*
X0066417Y0146950D01*
X0065450Y0146950D02*
X0067385Y0146950D01*
X0068396Y0146950D02*
X0068396Y0147434D01*
X0070331Y0149369D01*
X0070331Y0149852D01*
X0068396Y0149852D01*
X0074824Y0150185D02*
X0075792Y0151152D01*
X0075792Y0148250D01*
X0076759Y0148250D02*
X0074824Y0148250D01*
X0077771Y0148734D02*
X0077771Y0150185D01*
X0077771Y0148734D02*
X0078254Y0148250D01*
X0079706Y0148250D01*
X0079706Y0150185D01*
X0080717Y0149701D02*
X0081685Y0149701D01*
X0080717Y0148250D02*
X0080717Y0151152D01*
X0082652Y0151152D01*
X0100161Y0155674D02*
X0100161Y0156642D01*
X0100645Y0157126D01*
X0102580Y0155191D01*
X0103064Y0155674D01*
X0103064Y0156642D01*
X0102580Y0157126D01*
X0100645Y0157126D01*
X0100161Y0155674D02*
X0100645Y0155191D01*
X0102580Y0155191D01*
X0102580Y0158137D02*
X0102580Y0158621D01*
X0103064Y0158621D01*
X0103064Y0158137D01*
X0102580Y0158137D01*
X0103064Y0159610D02*
X0103064Y0161545D01*
X0103064Y0160578D02*
X0100161Y0160578D01*
X0101129Y0159610D01*
X0101129Y0162557D02*
X0102580Y0162557D01*
X0103064Y0163041D01*
X0103064Y0164492D01*
X0101129Y0164492D01*
X0101613Y0165503D02*
X0101613Y0166471D01*
X0103064Y0165503D02*
X0100161Y0165503D01*
X0100161Y0167438D01*
X0106815Y0177750D02*
X0108750Y0177750D01*
X0107783Y0177750D02*
X0107783Y0180652D01*
X0106815Y0179685D01*
X0109762Y0180169D02*
X0109762Y0178234D01*
X0111697Y0180169D01*
X0111697Y0178234D01*
X0111213Y0177750D01*
X0110246Y0177750D01*
X0109762Y0178234D01*
X0109762Y0180169D02*
X0110246Y0180652D01*
X0111213Y0180652D01*
X0111697Y0180169D01*
X0112708Y0180652D02*
X0112708Y0177750D01*
X0112708Y0178717D02*
X0114160Y0179685D01*
X0112708Y0178717D02*
X0114160Y0177750D01*
X0114160Y0190250D02*
X0112708Y0191217D01*
X0114160Y0192185D01*
X0112708Y0193152D02*
X0112708Y0190250D01*
X0111697Y0190734D02*
X0111213Y0190250D01*
X0110246Y0190250D01*
X0109762Y0190734D01*
X0111697Y0192669D01*
X0111697Y0190734D01*
X0111697Y0192669D02*
X0111213Y0193152D01*
X0110246Y0193152D01*
X0109762Y0192669D01*
X0109762Y0190734D01*
X0108750Y0190250D02*
X0106815Y0190250D01*
X0107783Y0190250D02*
X0107783Y0193152D01*
X0106815Y0192185D01*
X0076864Y0190763D02*
X0073961Y0190763D01*
X0073961Y0192698D01*
X0075413Y0191730D02*
X0075413Y0190763D01*
X0074929Y0189751D02*
X0076864Y0189751D01*
X0076864Y0188300D01*
X0076380Y0187816D01*
X0074929Y0187816D01*
X0076864Y0186805D02*
X0076864Y0184870D01*
X0076864Y0185837D02*
X0073961Y0185837D01*
X0074929Y0184870D01*
X0076380Y0183880D02*
X0076864Y0183880D01*
X0076864Y0183397D01*
X0076380Y0183397D01*
X0076380Y0183880D01*
X0076380Y0182385D02*
X0074445Y0182385D01*
X0076380Y0180450D01*
X0076864Y0180934D01*
X0076864Y0181901D01*
X0076380Y0182385D01*
X0074445Y0182385D02*
X0073961Y0181901D01*
X0073961Y0180934D01*
X0074445Y0180450D01*
X0076380Y0180450D01*
X0145792Y0053652D02*
X0144824Y0052685D01*
X0145792Y0053652D02*
X0145792Y0050750D01*
X0146759Y0050750D02*
X0144824Y0050750D01*
X0147771Y0051234D02*
X0147771Y0052685D01*
X0147771Y0051234D02*
X0148254Y0050750D01*
X0149706Y0050750D01*
X0149706Y0052685D01*
X0150717Y0052201D02*
X0151685Y0052201D01*
X0150717Y0050750D02*
X0150717Y0053652D01*
X0152652Y0053652D01*
X0074152Y0040152D02*
X0072217Y0040152D01*
X0072217Y0037250D01*
X0071206Y0037250D02*
X0071206Y0039185D01*
X0072217Y0038701D02*
X0073185Y0038701D01*
X0071206Y0037250D02*
X0069754Y0037250D01*
X0069271Y0037734D01*
X0069271Y0039185D01*
X0068259Y0037250D02*
X0066324Y0037250D01*
X0067292Y0037250D02*
X0067292Y0040152D01*
X0066324Y0039185D01*
X0065335Y0037734D02*
X0065335Y0037250D01*
X0064851Y0037250D01*
X0064851Y0037734D01*
X0065335Y0037734D01*
X0063839Y0037734D02*
X0063356Y0037250D01*
X0062388Y0037250D01*
X0061904Y0037734D01*
X0063839Y0039669D01*
X0063839Y0037734D01*
X0061904Y0037734D02*
X0061904Y0039669D01*
X0062388Y0040152D01*
X0063356Y0040152D01*
X0063839Y0039669D01*
D15*
X0068514Y0034300D02*
X0068514Y0029300D01*
X0068514Y0016800D02*
X0066014Y0014300D01*
X0063514Y0016800D01*
X0058514Y0016800D01*
X0056014Y0014300D01*
X0053514Y0016800D01*
X0048514Y0016800D01*
X0046014Y0014300D01*
X0043514Y0016800D01*
X0038514Y0016800D01*
X0036014Y0014300D01*
X0036014Y0009300D01*
X0038514Y0006800D01*
X0043514Y0006800D01*
X0046014Y0009300D01*
X0048514Y0006800D01*
X0053514Y0006800D01*
X0056014Y0009300D01*
X0058514Y0006800D01*
X0063514Y0006800D01*
X0066014Y0009300D01*
X0068514Y0006800D01*
X0073514Y0006800D01*
X0076014Y0009300D01*
X0078514Y0006800D01*
X0083514Y0006800D01*
X0086014Y0009300D01*
X0086014Y0014300D01*
X0083514Y0016800D01*
X0078514Y0016800D01*
X0076014Y0014300D01*
X0073514Y0016800D01*
X0068514Y0016800D01*
X0016014Y0014300D02*
X0016014Y0009300D01*
X0013514Y0006800D01*
X0008514Y0006800D01*
X0006014Y0009300D01*
X0006014Y0014300D01*
X0008514Y0016800D01*
X0006014Y0019300D01*
X0006014Y0024300D01*
X0008514Y0026800D01*
X0006014Y0029300D01*
X0006014Y0034300D01*
X0008514Y0036800D01*
X0006014Y0039300D01*
X0006014Y0044300D01*
X0008514Y0046800D01*
X0013514Y0046800D01*
X0016014Y0044300D01*
X0016014Y0039300D01*
X0013514Y0036800D01*
X0016014Y0034300D01*
X0016014Y0029300D01*
X0013514Y0026800D01*
X0016014Y0024300D01*
X0016014Y0019300D01*
X0013514Y0016800D01*
X0016014Y0014300D01*
X0013514Y0056800D02*
X0008514Y0056800D01*
X0006014Y0059300D01*
X0006014Y0064300D01*
X0008514Y0066800D01*
X0006014Y0069300D01*
X0006014Y0074300D01*
X0008514Y0076800D01*
X0006014Y0079300D01*
X0006014Y0084300D01*
X0008514Y0086800D01*
X0006014Y0089300D01*
X0006014Y0094300D01*
X0008514Y0096800D01*
X0013514Y0096800D01*
X0016014Y0094300D01*
X0016014Y0089300D01*
X0013514Y0086800D01*
X0016014Y0084300D01*
X0016014Y0079300D01*
X0013514Y0076800D01*
X0016014Y0074300D01*
X0016014Y0069300D01*
X0013514Y0066800D01*
X0016014Y0064300D01*
X0016014Y0059300D01*
X0013514Y0056800D01*
X0013514Y0106800D02*
X0008514Y0106800D01*
X0006014Y0109300D01*
X0006014Y0114300D01*
X0008514Y0116800D01*
X0006014Y0119300D01*
X0006014Y0124300D01*
X0008514Y0126800D01*
X0006014Y0129300D01*
X0006014Y0134300D01*
X0008514Y0136800D01*
X0006014Y0139300D01*
X0006014Y0144300D01*
X0008514Y0146800D01*
X0013514Y0146800D01*
X0016014Y0144300D01*
X0016014Y0139300D01*
X0013514Y0136800D01*
X0016014Y0134300D01*
X0016014Y0129300D01*
X0013514Y0126800D01*
X0016014Y0124300D01*
X0016014Y0119300D01*
X0013514Y0116800D01*
X0016014Y0114300D01*
X0016014Y0109300D01*
X0013514Y0106800D01*
X0041112Y0122076D02*
X0041112Y0131524D01*
X0065915Y0131524D01*
X0065915Y0122076D01*
X0041112Y0122076D01*
X0075514Y0154800D02*
X0075514Y0158800D01*
X0071171Y0161800D02*
X0071174Y0162042D01*
X0071183Y0162283D01*
X0071198Y0162524D01*
X0071218Y0162765D01*
X0071245Y0163005D01*
X0071278Y0163244D01*
X0071316Y0163483D01*
X0071360Y0163720D01*
X0071410Y0163957D01*
X0071466Y0164192D01*
X0071528Y0164425D01*
X0071595Y0164657D01*
X0071668Y0164888D01*
X0071746Y0165116D01*
X0071831Y0165342D01*
X0071920Y0165567D01*
X0072015Y0165789D01*
X0072116Y0166008D01*
X0072222Y0166226D01*
X0072333Y0166440D01*
X0072450Y0166652D01*
X0072571Y0166860D01*
X0072698Y0167066D01*
X0072830Y0167268D01*
X0072967Y0167468D01*
X0073108Y0167663D01*
X0073254Y0167856D01*
X0073405Y0168044D01*
X0073561Y0168229D01*
X0073721Y0168410D01*
X0073885Y0168587D01*
X0074054Y0168760D01*
X0074227Y0168929D01*
X0074404Y0169093D01*
X0074585Y0169253D01*
X0074770Y0169409D01*
X0074958Y0169560D01*
X0075151Y0169706D01*
X0075346Y0169847D01*
X0075546Y0169984D01*
X0075748Y0170116D01*
X0075954Y0170243D01*
X0076162Y0170364D01*
X0076374Y0170481D01*
X0076588Y0170592D01*
X0076806Y0170698D01*
X0077025Y0170799D01*
X0077247Y0170894D01*
X0077472Y0170983D01*
X0077698Y0171068D01*
X0077926Y0171146D01*
X0078157Y0171219D01*
X0078389Y0171286D01*
X0078622Y0171348D01*
X0078857Y0171404D01*
X0079094Y0171454D01*
X0079331Y0171498D01*
X0079570Y0171536D01*
X0079809Y0171569D01*
X0080049Y0171596D01*
X0080290Y0171616D01*
X0080531Y0171631D01*
X0080772Y0171640D01*
X0081014Y0171643D01*
X0081256Y0171640D01*
X0081497Y0171631D01*
X0081738Y0171616D01*
X0081979Y0171596D01*
X0082219Y0171569D01*
X0082458Y0171536D01*
X0082697Y0171498D01*
X0082934Y0171454D01*
X0083171Y0171404D01*
X0083406Y0171348D01*
X0083639Y0171286D01*
X0083871Y0171219D01*
X0084102Y0171146D01*
X0084330Y0171068D01*
X0084556Y0170983D01*
X0084781Y0170894D01*
X0085003Y0170799D01*
X0085222Y0170698D01*
X0085440Y0170592D01*
X0085654Y0170481D01*
X0085866Y0170364D01*
X0086074Y0170243D01*
X0086280Y0170116D01*
X0086482Y0169984D01*
X0086682Y0169847D01*
X0086877Y0169706D01*
X0087070Y0169560D01*
X0087258Y0169409D01*
X0087443Y0169253D01*
X0087624Y0169093D01*
X0087801Y0168929D01*
X0087974Y0168760D01*
X0088143Y0168587D01*
X0088307Y0168410D01*
X0088467Y0168229D01*
X0088623Y0168044D01*
X0088774Y0167856D01*
X0088920Y0167663D01*
X0089061Y0167468D01*
X0089198Y0167268D01*
X0089330Y0167066D01*
X0089457Y0166860D01*
X0089578Y0166652D01*
X0089695Y0166440D01*
X0089806Y0166226D01*
X0089912Y0166008D01*
X0090013Y0165789D01*
X0090108Y0165567D01*
X0090197Y0165342D01*
X0090282Y0165116D01*
X0090360Y0164888D01*
X0090433Y0164657D01*
X0090500Y0164425D01*
X0090562Y0164192D01*
X0090618Y0163957D01*
X0090668Y0163720D01*
X0090712Y0163483D01*
X0090750Y0163244D01*
X0090783Y0163005D01*
X0090810Y0162765D01*
X0090830Y0162524D01*
X0090845Y0162283D01*
X0090854Y0162042D01*
X0090857Y0161800D01*
X0090854Y0161558D01*
X0090845Y0161317D01*
X0090830Y0161076D01*
X0090810Y0160835D01*
X0090783Y0160595D01*
X0090750Y0160356D01*
X0090712Y0160117D01*
X0090668Y0159880D01*
X0090618Y0159643D01*
X0090562Y0159408D01*
X0090500Y0159175D01*
X0090433Y0158943D01*
X0090360Y0158712D01*
X0090282Y0158484D01*
X0090197Y0158258D01*
X0090108Y0158033D01*
X0090013Y0157811D01*
X0089912Y0157592D01*
X0089806Y0157374D01*
X0089695Y0157160D01*
X0089578Y0156948D01*
X0089457Y0156740D01*
X0089330Y0156534D01*
X0089198Y0156332D01*
X0089061Y0156132D01*
X0088920Y0155937D01*
X0088774Y0155744D01*
X0088623Y0155556D01*
X0088467Y0155371D01*
X0088307Y0155190D01*
X0088143Y0155013D01*
X0087974Y0154840D01*
X0087801Y0154671D01*
X0087624Y0154507D01*
X0087443Y0154347D01*
X0087258Y0154191D01*
X0087070Y0154040D01*
X0086877Y0153894D01*
X0086682Y0153753D01*
X0086482Y0153616D01*
X0086280Y0153484D01*
X0086074Y0153357D01*
X0085866Y0153236D01*
X0085654Y0153119D01*
X0085440Y0153008D01*
X0085222Y0152902D01*
X0085003Y0152801D01*
X0084781Y0152706D01*
X0084556Y0152617D01*
X0084330Y0152532D01*
X0084102Y0152454D01*
X0083871Y0152381D01*
X0083639Y0152314D01*
X0083406Y0152252D01*
X0083171Y0152196D01*
X0082934Y0152146D01*
X0082697Y0152102D01*
X0082458Y0152064D01*
X0082219Y0152031D01*
X0081979Y0152004D01*
X0081738Y0151984D01*
X0081497Y0151969D01*
X0081256Y0151960D01*
X0081014Y0151957D01*
X0080772Y0151960D01*
X0080531Y0151969D01*
X0080290Y0151984D01*
X0080049Y0152004D01*
X0079809Y0152031D01*
X0079570Y0152064D01*
X0079331Y0152102D01*
X0079094Y0152146D01*
X0078857Y0152196D01*
X0078622Y0152252D01*
X0078389Y0152314D01*
X0078157Y0152381D01*
X0077926Y0152454D01*
X0077698Y0152532D01*
X0077472Y0152617D01*
X0077247Y0152706D01*
X0077025Y0152801D01*
X0076806Y0152902D01*
X0076588Y0153008D01*
X0076374Y0153119D01*
X0076162Y0153236D01*
X0075954Y0153357D01*
X0075748Y0153484D01*
X0075546Y0153616D01*
X0075346Y0153753D01*
X0075151Y0153894D01*
X0074958Y0154040D01*
X0074770Y0154191D01*
X0074585Y0154347D01*
X0074404Y0154507D01*
X0074227Y0154671D01*
X0074054Y0154840D01*
X0073885Y0155013D01*
X0073721Y0155190D01*
X0073561Y0155371D01*
X0073405Y0155556D01*
X0073254Y0155744D01*
X0073108Y0155937D01*
X0072967Y0156132D01*
X0072830Y0156332D01*
X0072698Y0156534D01*
X0072571Y0156740D01*
X0072450Y0156948D01*
X0072333Y0157160D01*
X0072222Y0157374D01*
X0072116Y0157592D01*
X0072015Y0157811D01*
X0071920Y0158033D01*
X0071831Y0158258D01*
X0071746Y0158484D01*
X0071668Y0158712D01*
X0071595Y0158943D01*
X0071528Y0159175D01*
X0071466Y0159408D01*
X0071410Y0159643D01*
X0071360Y0159880D01*
X0071316Y0160117D01*
X0071278Y0160356D01*
X0071245Y0160595D01*
X0071218Y0160835D01*
X0071198Y0161076D01*
X0071183Y0161317D01*
X0071174Y0161558D01*
X0071171Y0161800D01*
X0093514Y0161800D02*
X0098514Y0161800D01*
X0098612Y0174576D02*
X0098612Y0184024D01*
X0123415Y0184024D01*
X0123415Y0174576D01*
X0098612Y0174576D01*
X0098612Y0187076D02*
X0098612Y0196524D01*
X0123415Y0196524D01*
X0123415Y0187076D01*
X0098612Y0187076D01*
X0083514Y0186800D02*
X0078514Y0186800D01*
X0148514Y0136800D02*
X0153514Y0136800D01*
X0166289Y0139202D02*
X0166289Y0114398D01*
X0175738Y0114398D01*
X0175738Y0139202D01*
X0166289Y0139202D01*
X0186289Y0139202D02*
X0186289Y0114398D01*
X0195738Y0114398D01*
X0195738Y0139202D01*
X0186289Y0139202D01*
X0193514Y0096800D02*
X0191014Y0094300D01*
X0191014Y0089300D01*
X0193514Y0086800D01*
X0191014Y0084300D01*
X0191014Y0079300D01*
X0193514Y0076800D01*
X0191014Y0074300D01*
X0191014Y0069300D01*
X0193514Y0066800D01*
X0191014Y0064300D01*
X0191014Y0059300D01*
X0193514Y0056800D01*
X0198514Y0056800D01*
X0201014Y0059300D01*
X0201014Y0064300D01*
X0198514Y0066800D01*
X0201014Y0069300D01*
X0201014Y0074300D01*
X0198514Y0076800D01*
X0201014Y0079300D01*
X0201014Y0084300D01*
X0198514Y0086800D01*
X0201014Y0089300D01*
X0201014Y0094300D01*
X0198514Y0096800D01*
X0193514Y0096800D01*
X0151171Y0061800D02*
X0151174Y0062042D01*
X0151183Y0062283D01*
X0151198Y0062524D01*
X0151218Y0062765D01*
X0151245Y0063005D01*
X0151278Y0063244D01*
X0151316Y0063483D01*
X0151360Y0063720D01*
X0151410Y0063957D01*
X0151466Y0064192D01*
X0151528Y0064425D01*
X0151595Y0064657D01*
X0151668Y0064888D01*
X0151746Y0065116D01*
X0151831Y0065342D01*
X0151920Y0065567D01*
X0152015Y0065789D01*
X0152116Y0066008D01*
X0152222Y0066226D01*
X0152333Y0066440D01*
X0152450Y0066652D01*
X0152571Y0066860D01*
X0152698Y0067066D01*
X0152830Y0067268D01*
X0152967Y0067468D01*
X0153108Y0067663D01*
X0153254Y0067856D01*
X0153405Y0068044D01*
X0153561Y0068229D01*
X0153721Y0068410D01*
X0153885Y0068587D01*
X0154054Y0068760D01*
X0154227Y0068929D01*
X0154404Y0069093D01*
X0154585Y0069253D01*
X0154770Y0069409D01*
X0154958Y0069560D01*
X0155151Y0069706D01*
X0155346Y0069847D01*
X0155546Y0069984D01*
X0155748Y0070116D01*
X0155954Y0070243D01*
X0156162Y0070364D01*
X0156374Y0070481D01*
X0156588Y0070592D01*
X0156806Y0070698D01*
X0157025Y0070799D01*
X0157247Y0070894D01*
X0157472Y0070983D01*
X0157698Y0071068D01*
X0157926Y0071146D01*
X0158157Y0071219D01*
X0158389Y0071286D01*
X0158622Y0071348D01*
X0158857Y0071404D01*
X0159094Y0071454D01*
X0159331Y0071498D01*
X0159570Y0071536D01*
X0159809Y0071569D01*
X0160049Y0071596D01*
X0160290Y0071616D01*
X0160531Y0071631D01*
X0160772Y0071640D01*
X0161014Y0071643D01*
X0161256Y0071640D01*
X0161497Y0071631D01*
X0161738Y0071616D01*
X0161979Y0071596D01*
X0162219Y0071569D01*
X0162458Y0071536D01*
X0162697Y0071498D01*
X0162934Y0071454D01*
X0163171Y0071404D01*
X0163406Y0071348D01*
X0163639Y0071286D01*
X0163871Y0071219D01*
X0164102Y0071146D01*
X0164330Y0071068D01*
X0164556Y0070983D01*
X0164781Y0070894D01*
X0165003Y0070799D01*
X0165222Y0070698D01*
X0165440Y0070592D01*
X0165654Y0070481D01*
X0165866Y0070364D01*
X0166074Y0070243D01*
X0166280Y0070116D01*
X0166482Y0069984D01*
X0166682Y0069847D01*
X0166877Y0069706D01*
X0167070Y0069560D01*
X0167258Y0069409D01*
X0167443Y0069253D01*
X0167624Y0069093D01*
X0167801Y0068929D01*
X0167974Y0068760D01*
X0168143Y0068587D01*
X0168307Y0068410D01*
X0168467Y0068229D01*
X0168623Y0068044D01*
X0168774Y0067856D01*
X0168920Y0067663D01*
X0169061Y0067468D01*
X0169198Y0067268D01*
X0169330Y0067066D01*
X0169457Y0066860D01*
X0169578Y0066652D01*
X0169695Y0066440D01*
X0169806Y0066226D01*
X0169912Y0066008D01*
X0170013Y0065789D01*
X0170108Y0065567D01*
X0170197Y0065342D01*
X0170282Y0065116D01*
X0170360Y0064888D01*
X0170433Y0064657D01*
X0170500Y0064425D01*
X0170562Y0064192D01*
X0170618Y0063957D01*
X0170668Y0063720D01*
X0170712Y0063483D01*
X0170750Y0063244D01*
X0170783Y0063005D01*
X0170810Y0062765D01*
X0170830Y0062524D01*
X0170845Y0062283D01*
X0170854Y0062042D01*
X0170857Y0061800D01*
X0170854Y0061558D01*
X0170845Y0061317D01*
X0170830Y0061076D01*
X0170810Y0060835D01*
X0170783Y0060595D01*
X0170750Y0060356D01*
X0170712Y0060117D01*
X0170668Y0059880D01*
X0170618Y0059643D01*
X0170562Y0059408D01*
X0170500Y0059175D01*
X0170433Y0058943D01*
X0170360Y0058712D01*
X0170282Y0058484D01*
X0170197Y0058258D01*
X0170108Y0058033D01*
X0170013Y0057811D01*
X0169912Y0057592D01*
X0169806Y0057374D01*
X0169695Y0057160D01*
X0169578Y0056948D01*
X0169457Y0056740D01*
X0169330Y0056534D01*
X0169198Y0056332D01*
X0169061Y0056132D01*
X0168920Y0055937D01*
X0168774Y0055744D01*
X0168623Y0055556D01*
X0168467Y0055371D01*
X0168307Y0055190D01*
X0168143Y0055013D01*
X0167974Y0054840D01*
X0167801Y0054671D01*
X0167624Y0054507D01*
X0167443Y0054347D01*
X0167258Y0054191D01*
X0167070Y0054040D01*
X0166877Y0053894D01*
X0166682Y0053753D01*
X0166482Y0053616D01*
X0166280Y0053484D01*
X0166074Y0053357D01*
X0165866Y0053236D01*
X0165654Y0053119D01*
X0165440Y0053008D01*
X0165222Y0052902D01*
X0165003Y0052801D01*
X0164781Y0052706D01*
X0164556Y0052617D01*
X0164330Y0052532D01*
X0164102Y0052454D01*
X0163871Y0052381D01*
X0163639Y0052314D01*
X0163406Y0052252D01*
X0163171Y0052196D01*
X0162934Y0052146D01*
X0162697Y0052102D01*
X0162458Y0052064D01*
X0162219Y0052031D01*
X0161979Y0052004D01*
X0161738Y0051984D01*
X0161497Y0051969D01*
X0161256Y0051960D01*
X0161014Y0051957D01*
X0160772Y0051960D01*
X0160531Y0051969D01*
X0160290Y0051984D01*
X0160049Y0052004D01*
X0159809Y0052031D01*
X0159570Y0052064D01*
X0159331Y0052102D01*
X0159094Y0052146D01*
X0158857Y0052196D01*
X0158622Y0052252D01*
X0158389Y0052314D01*
X0158157Y0052381D01*
X0157926Y0052454D01*
X0157698Y0052532D01*
X0157472Y0052617D01*
X0157247Y0052706D01*
X0157025Y0052801D01*
X0156806Y0052902D01*
X0156588Y0053008D01*
X0156374Y0053119D01*
X0156162Y0053236D01*
X0155954Y0053357D01*
X0155748Y0053484D01*
X0155546Y0053616D01*
X0155346Y0053753D01*
X0155151Y0053894D01*
X0154958Y0054040D01*
X0154770Y0054191D01*
X0154585Y0054347D01*
X0154404Y0054507D01*
X0154227Y0054671D01*
X0154054Y0054840D01*
X0153885Y0055013D01*
X0153721Y0055190D01*
X0153561Y0055371D01*
X0153405Y0055556D01*
X0153254Y0055744D01*
X0153108Y0055937D01*
X0152967Y0056132D01*
X0152830Y0056332D01*
X0152698Y0056534D01*
X0152571Y0056740D01*
X0152450Y0056948D01*
X0152333Y0057160D01*
X0152222Y0057374D01*
X0152116Y0057592D01*
X0152015Y0057811D01*
X0151920Y0058033D01*
X0151831Y0058258D01*
X0151746Y0058484D01*
X0151668Y0058712D01*
X0151595Y0058943D01*
X0151528Y0059175D01*
X0151466Y0059408D01*
X0151410Y0059643D01*
X0151360Y0059880D01*
X0151316Y0060117D01*
X0151278Y0060356D01*
X0151245Y0060595D01*
X0151218Y0060835D01*
X0151198Y0061076D01*
X0151183Y0061317D01*
X0151174Y0061558D01*
X0151171Y0061800D01*
X0164014Y0056300D02*
X0168014Y0056300D01*
X0191014Y0044300D02*
X0191014Y0039300D01*
X0193514Y0036800D01*
X0191014Y0034300D01*
X0191014Y0029300D01*
X0193514Y0026800D01*
X0191014Y0024300D01*
X0191014Y0019300D01*
X0193514Y0016800D01*
X0191014Y0014300D01*
X0191014Y0009300D01*
X0193514Y0006800D01*
X0198514Y0006800D01*
X0201014Y0009300D01*
X0201014Y0014300D01*
X0198514Y0016800D01*
X0201014Y0019300D01*
X0201014Y0024300D01*
X0198514Y0026800D01*
X0201014Y0029300D01*
X0201014Y0034300D01*
X0198514Y0036800D01*
X0201014Y0039300D01*
X0201014Y0044300D01*
X0198514Y0046800D01*
X0193514Y0046800D01*
X0191014Y0044300D01*
D16*
X0175964Y0170249D02*
X0175964Y0169349D01*
X0175964Y0169350D02*
X0175781Y0169346D01*
X0175598Y0169339D01*
X0175415Y0169326D01*
X0175232Y0169309D01*
X0175050Y0169288D01*
X0174869Y0169263D01*
X0174688Y0169233D01*
X0174508Y0169198D01*
X0174329Y0169160D01*
X0174151Y0169117D01*
X0173974Y0169069D01*
X0173799Y0169018D01*
X0173624Y0168962D01*
X0173451Y0168902D01*
X0173280Y0168837D01*
X0173110Y0168769D01*
X0172941Y0168697D01*
X0172775Y0168620D01*
X0172611Y0168539D01*
X0172448Y0168455D01*
X0172288Y0168366D01*
X0172129Y0168274D01*
X0171973Y0168178D01*
X0171820Y0168078D01*
X0171669Y0167974D01*
X0171520Y0167867D01*
X0171374Y0167756D01*
X0171231Y0167642D01*
X0171091Y0167524D01*
X0170954Y0167403D01*
X0170819Y0167279D01*
X0170688Y0167151D01*
X0170559Y0167020D01*
X0170434Y0166886D01*
X0170313Y0166750D01*
X0170194Y0166610D01*
X0170079Y0166467D01*
X0169968Y0166322D01*
X0169860Y0166174D01*
X0169756Y0166023D01*
X0169655Y0165870D01*
X0169558Y0165715D01*
X0169465Y0165557D01*
X0169376Y0165397D01*
X0168582Y0165820D01*
X0168682Y0166000D01*
X0168786Y0166177D01*
X0168894Y0166351D01*
X0169007Y0166523D01*
X0169124Y0166691D01*
X0169245Y0166857D01*
X0169369Y0167020D01*
X0169498Y0167180D01*
X0169631Y0167337D01*
X0169767Y0167490D01*
X0169907Y0167640D01*
X0170051Y0167787D01*
X0170198Y0167930D01*
X0170349Y0168070D01*
X0170503Y0168205D01*
X0170660Y0168337D01*
X0170820Y0168465D01*
X0170984Y0168590D01*
X0171150Y0168710D01*
X0171320Y0168826D01*
X0171492Y0168938D01*
X0171666Y0169046D01*
X0171844Y0169149D01*
X0172023Y0169248D01*
X0172206Y0169343D01*
X0172390Y0169433D01*
X0172576Y0169519D01*
X0172765Y0169600D01*
X0172955Y0169677D01*
X0173148Y0169749D01*
X0173342Y0169816D01*
X0173537Y0169879D01*
X0173734Y0169937D01*
X0173932Y0169990D01*
X0174132Y0170038D01*
X0174333Y0170081D01*
X0174534Y0170119D01*
X0174737Y0170153D01*
X0174940Y0170181D01*
X0175144Y0170205D01*
X0175349Y0170224D01*
X0175553Y0170237D01*
X0175758Y0170246D01*
X0175964Y0170250D01*
X0175964Y0170156D01*
X0175761Y0170152D01*
X0175558Y0170144D01*
X0175355Y0170130D01*
X0175153Y0170112D01*
X0174952Y0170088D01*
X0174751Y0170060D01*
X0174550Y0170027D01*
X0174351Y0169989D01*
X0174153Y0169946D01*
X0173955Y0169898D01*
X0173759Y0169846D01*
X0173564Y0169789D01*
X0173371Y0169727D01*
X0173179Y0169660D01*
X0172989Y0169589D01*
X0172801Y0169514D01*
X0172615Y0169433D01*
X0172430Y0169348D01*
X0172248Y0169259D01*
X0172068Y0169165D01*
X0171890Y0169067D01*
X0171715Y0168965D01*
X0171542Y0168859D01*
X0171372Y0168748D01*
X0171204Y0168633D01*
X0171040Y0168514D01*
X0170878Y0168391D01*
X0170720Y0168265D01*
X0170564Y0168134D01*
X0170412Y0168000D01*
X0170263Y0167862D01*
X0170117Y0167721D01*
X0169975Y0167576D01*
X0169837Y0167427D01*
X0169702Y0167276D01*
X0169571Y0167121D01*
X0169444Y0166963D01*
X0169320Y0166801D01*
X0169201Y0166637D01*
X0169085Y0166470D01*
X0168974Y0166301D01*
X0168866Y0166128D01*
X0168763Y0165953D01*
X0168665Y0165776D01*
X0168748Y0165732D01*
X0168845Y0165907D01*
X0168947Y0166080D01*
X0169053Y0166250D01*
X0169163Y0166418D01*
X0169277Y0166583D01*
X0169396Y0166745D01*
X0169518Y0166905D01*
X0169644Y0167061D01*
X0169773Y0167214D01*
X0169907Y0167364D01*
X0170043Y0167511D01*
X0170184Y0167654D01*
X0170328Y0167794D01*
X0170475Y0167930D01*
X0170626Y0168063D01*
X0170779Y0168192D01*
X0170936Y0168317D01*
X0171096Y0168439D01*
X0171259Y0168556D01*
X0171424Y0168670D01*
X0171592Y0168779D01*
X0171763Y0168885D01*
X0171936Y0168986D01*
X0172112Y0169083D01*
X0172290Y0169175D01*
X0172470Y0169263D01*
X0172653Y0169347D01*
X0172837Y0169427D01*
X0173023Y0169502D01*
X0173211Y0169572D01*
X0173401Y0169638D01*
X0173592Y0169699D01*
X0173784Y0169755D01*
X0173978Y0169807D01*
X0174173Y0169854D01*
X0174369Y0169897D01*
X0174567Y0169934D01*
X0174765Y0169967D01*
X0174963Y0169995D01*
X0175163Y0170018D01*
X0175362Y0170036D01*
X0175563Y0170050D01*
X0175763Y0170058D01*
X0175964Y0170062D01*
X0175964Y0169968D01*
X0175765Y0169964D01*
X0175567Y0169956D01*
X0175369Y0169943D01*
X0175172Y0169924D01*
X0174975Y0169902D01*
X0174778Y0169874D01*
X0174583Y0169842D01*
X0174388Y0169804D01*
X0174194Y0169763D01*
X0174001Y0169716D01*
X0173809Y0169665D01*
X0173619Y0169609D01*
X0173430Y0169549D01*
X0173243Y0169484D01*
X0173057Y0169414D01*
X0172873Y0169340D01*
X0172691Y0169261D01*
X0172511Y0169178D01*
X0172332Y0169091D01*
X0172156Y0169000D01*
X0171983Y0168904D01*
X0171811Y0168804D01*
X0171643Y0168700D01*
X0171476Y0168592D01*
X0171313Y0168479D01*
X0171152Y0168363D01*
X0170994Y0168243D01*
X0170839Y0168119D01*
X0170687Y0167992D01*
X0170538Y0167861D01*
X0170393Y0167726D01*
X0170250Y0167588D01*
X0170112Y0167446D01*
X0169976Y0167301D01*
X0169844Y0167153D01*
X0169716Y0167001D01*
X0169592Y0166847D01*
X0169471Y0166690D01*
X0169354Y0166529D01*
X0169241Y0166366D01*
X0169133Y0166200D01*
X0169028Y0166032D01*
X0168927Y0165861D01*
X0168831Y0165688D01*
X0168913Y0165643D01*
X0169009Y0165815D01*
X0169108Y0165984D01*
X0169212Y0166150D01*
X0169320Y0166314D01*
X0169431Y0166475D01*
X0169547Y0166634D01*
X0169666Y0166789D01*
X0169789Y0166942D01*
X0169916Y0167091D01*
X0170046Y0167238D01*
X0170180Y0167381D01*
X0170317Y0167521D01*
X0170458Y0167658D01*
X0170601Y0167791D01*
X0170748Y0167921D01*
X0170899Y0168047D01*
X0171052Y0168169D01*
X0171208Y0168288D01*
X0171367Y0168403D01*
X0171529Y0168513D01*
X0171693Y0168620D01*
X0171860Y0168723D01*
X0172029Y0168822D01*
X0172201Y0168917D01*
X0172375Y0169007D01*
X0172551Y0169094D01*
X0172729Y0169175D01*
X0172909Y0169253D01*
X0173091Y0169326D01*
X0173274Y0169395D01*
X0173460Y0169459D01*
X0173646Y0169519D01*
X0173834Y0169574D01*
X0174024Y0169625D01*
X0174214Y0169671D01*
X0174406Y0169712D01*
X0174599Y0169749D01*
X0174792Y0169781D01*
X0174986Y0169808D01*
X0175181Y0169831D01*
X0175376Y0169849D01*
X0175572Y0169862D01*
X0175768Y0169870D01*
X0175964Y0169874D01*
X0175964Y0169780D01*
X0175770Y0169776D01*
X0175576Y0169768D01*
X0175383Y0169755D01*
X0175190Y0169737D01*
X0174998Y0169715D01*
X0174806Y0169688D01*
X0174615Y0169656D01*
X0174424Y0169620D01*
X0174235Y0169579D01*
X0174047Y0169534D01*
X0173860Y0169484D01*
X0173674Y0169429D01*
X0173489Y0169370D01*
X0173306Y0169307D01*
X0173125Y0169239D01*
X0172945Y0169166D01*
X0172767Y0169090D01*
X0172591Y0169009D01*
X0172417Y0168923D01*
X0172245Y0168834D01*
X0172075Y0168740D01*
X0171908Y0168643D01*
X0171743Y0168541D01*
X0171581Y0168435D01*
X0171421Y0168326D01*
X0171264Y0168212D01*
X0171110Y0168095D01*
X0170958Y0167974D01*
X0170810Y0167850D01*
X0170665Y0167722D01*
X0170522Y0167590D01*
X0170383Y0167455D01*
X0170248Y0167317D01*
X0170116Y0167175D01*
X0169987Y0167030D01*
X0169862Y0166882D01*
X0169740Y0166731D01*
X0169622Y0166578D01*
X0169508Y0166421D01*
X0169398Y0166262D01*
X0169292Y0166100D01*
X0169189Y0165935D01*
X0169091Y0165768D01*
X0168996Y0165599D01*
X0169079Y0165555D01*
X0169173Y0165722D01*
X0169270Y0165887D01*
X0169371Y0166050D01*
X0169476Y0166210D01*
X0169585Y0166367D01*
X0169698Y0166522D01*
X0169814Y0166674D01*
X0169934Y0166823D01*
X0170058Y0166969D01*
X0170185Y0167112D01*
X0170316Y0167252D01*
X0170450Y0167388D01*
X0170587Y0167522D01*
X0170728Y0167652D01*
X0170871Y0167779D01*
X0171018Y0167902D01*
X0171168Y0168021D01*
X0171320Y0168137D01*
X0171475Y0168249D01*
X0171633Y0168357D01*
X0171794Y0168462D01*
X0171957Y0168562D01*
X0172122Y0168659D01*
X0172289Y0168751D01*
X0172459Y0168839D01*
X0172631Y0168924D01*
X0172805Y0169004D01*
X0172981Y0169079D01*
X0173159Y0169151D01*
X0173338Y0169218D01*
X0173519Y0169281D01*
X0173701Y0169339D01*
X0173885Y0169393D01*
X0174070Y0169443D01*
X0174256Y0169487D01*
X0174443Y0169528D01*
X0174631Y0169564D01*
X0174820Y0169595D01*
X0175009Y0169622D01*
X0175199Y0169644D01*
X0175390Y0169661D01*
X0175581Y0169674D01*
X0175772Y0169682D01*
X0175964Y0169686D01*
X0175964Y0169592D01*
X0175775Y0169588D01*
X0175586Y0169580D01*
X0175397Y0169568D01*
X0175209Y0169550D01*
X0175021Y0169528D01*
X0174834Y0169502D01*
X0174647Y0169471D01*
X0174461Y0169436D01*
X0174276Y0169396D01*
X0174092Y0169351D01*
X0173910Y0169302D01*
X0173728Y0169249D01*
X0173548Y0169192D01*
X0173370Y0169130D01*
X0173192Y0169063D01*
X0173017Y0168993D01*
X0172843Y0168918D01*
X0172671Y0168839D01*
X0172502Y0168755D01*
X0172334Y0168668D01*
X0172168Y0168577D01*
X0172005Y0168481D01*
X0171844Y0168382D01*
X0171685Y0168279D01*
X0171529Y0168172D01*
X0171376Y0168061D01*
X0171225Y0167947D01*
X0171078Y0167829D01*
X0170933Y0167707D01*
X0170791Y0167582D01*
X0170652Y0167454D01*
X0170517Y0167322D01*
X0170384Y0167187D01*
X0170255Y0167049D01*
X0170129Y0166907D01*
X0170007Y0166763D01*
X0169888Y0166616D01*
X0169773Y0166466D01*
X0169662Y0166313D01*
X0169554Y0166157D01*
X0169450Y0165999D01*
X0169350Y0165839D01*
X0169254Y0165676D01*
X0169162Y0165511D01*
X0169245Y0165466D01*
X0169336Y0165630D01*
X0169431Y0165791D01*
X0169530Y0165949D01*
X0169632Y0166105D01*
X0169739Y0166259D01*
X0169849Y0166410D01*
X0169963Y0166558D01*
X0170080Y0166704D01*
X0170201Y0166846D01*
X0170325Y0166986D01*
X0170452Y0167122D01*
X0170583Y0167256D01*
X0170717Y0167386D01*
X0170854Y0167513D01*
X0170994Y0167636D01*
X0171137Y0167756D01*
X0171283Y0167873D01*
X0171432Y0167986D01*
X0171584Y0168095D01*
X0171738Y0168201D01*
X0171894Y0168303D01*
X0172053Y0168401D01*
X0172215Y0168495D01*
X0172378Y0168585D01*
X0172544Y0168672D01*
X0172712Y0168754D01*
X0172881Y0168832D01*
X0173053Y0168906D01*
X0173226Y0168975D01*
X0173401Y0169041D01*
X0173578Y0169102D01*
X0173756Y0169159D01*
X0173935Y0169212D01*
X0174115Y0169260D01*
X0174297Y0169304D01*
X0174480Y0169344D01*
X0174663Y0169379D01*
X0174847Y0169409D01*
X0175032Y0169435D01*
X0175218Y0169457D01*
X0175404Y0169474D01*
X0175590Y0169486D01*
X0175777Y0169494D01*
X0175964Y0169498D01*
X0175964Y0169404D01*
X0175779Y0169400D01*
X0175595Y0169392D01*
X0175411Y0169380D01*
X0175227Y0169363D01*
X0175044Y0169342D01*
X0174861Y0169316D01*
X0174679Y0169286D01*
X0174498Y0169251D01*
X0174318Y0169212D01*
X0174138Y0169169D01*
X0173960Y0169121D01*
X0173783Y0169069D01*
X0173607Y0169013D01*
X0173433Y0168953D01*
X0173260Y0168888D01*
X0173089Y0168819D01*
X0172920Y0168746D01*
X0172752Y0168669D01*
X0172586Y0168588D01*
X0172423Y0168502D01*
X0172261Y0168413D01*
X0172102Y0168320D01*
X0171945Y0168223D01*
X0171790Y0168123D01*
X0171638Y0168018D01*
X0171488Y0167910D01*
X0171341Y0167799D01*
X0171197Y0167684D01*
X0171056Y0167565D01*
X0170917Y0167443D01*
X0170782Y0167318D01*
X0170650Y0167189D01*
X0170520Y0167057D01*
X0170394Y0166923D01*
X0170272Y0166785D01*
X0170153Y0166644D01*
X0170037Y0166500D01*
X0169924Y0166354D01*
X0169816Y0166205D01*
X0169711Y0166053D01*
X0169609Y0165899D01*
X0169512Y0165742D01*
X0169418Y0165583D01*
X0169328Y0165422D01*
X0168703Y0157565D02*
X0169484Y0158011D01*
X0169577Y0157854D01*
X0169674Y0157700D01*
X0169775Y0157548D01*
X0169880Y0157399D01*
X0169988Y0157252D01*
X0170099Y0157107D01*
X0170214Y0156966D01*
X0170333Y0156827D01*
X0170455Y0156692D01*
X0170580Y0156559D01*
X0170708Y0156429D01*
X0170839Y0156303D01*
X0170973Y0156179D01*
X0171110Y0156059D01*
X0171250Y0155942D01*
X0171393Y0155829D01*
X0171539Y0155719D01*
X0171687Y0155613D01*
X0171838Y0155510D01*
X0171991Y0155411D01*
X0172146Y0155316D01*
X0172304Y0155225D01*
X0172464Y0155137D01*
X0172626Y0155053D01*
X0172789Y0154973D01*
X0172955Y0154897D01*
X0173123Y0154826D01*
X0173292Y0154758D01*
X0173463Y0154694D01*
X0173635Y0154635D01*
X0173809Y0154579D01*
X0173984Y0154528D01*
X0174160Y0154481D01*
X0174337Y0154439D01*
X0174516Y0154400D01*
X0174695Y0154366D01*
X0174875Y0154336D01*
X0175055Y0154311D01*
X0175236Y0154290D01*
X0175418Y0154274D01*
X0175600Y0154261D01*
X0175782Y0154254D01*
X0175964Y0154250D01*
X0175965Y0153351D01*
X0175964Y0153350D01*
X0175760Y0153354D01*
X0175556Y0153362D01*
X0175352Y0153376D01*
X0175148Y0153394D01*
X0174945Y0153418D01*
X0174743Y0153446D01*
X0174541Y0153479D01*
X0174341Y0153517D01*
X0174141Y0153560D01*
X0173942Y0153608D01*
X0173745Y0153660D01*
X0173549Y0153718D01*
X0173354Y0153780D01*
X0173161Y0153846D01*
X0172969Y0153918D01*
X0172780Y0153994D01*
X0172592Y0154074D01*
X0172406Y0154159D01*
X0172222Y0154249D01*
X0172041Y0154342D01*
X0171862Y0154441D01*
X0171685Y0154543D01*
X0171511Y0154650D01*
X0171339Y0154761D01*
X0171170Y0154876D01*
X0171004Y0154995D01*
X0170841Y0155118D01*
X0170681Y0155245D01*
X0170524Y0155376D01*
X0170370Y0155511D01*
X0170220Y0155649D01*
X0170073Y0155791D01*
X0169929Y0155936D01*
X0169789Y0156085D01*
X0169653Y0156237D01*
X0169520Y0156393D01*
X0169392Y0156551D01*
X0169267Y0156713D01*
X0169146Y0156878D01*
X0169029Y0157045D01*
X0168916Y0157216D01*
X0168807Y0157389D01*
X0168702Y0157564D01*
X0168784Y0157611D01*
X0168887Y0157437D01*
X0168995Y0157266D01*
X0169107Y0157098D01*
X0169222Y0156932D01*
X0169342Y0156769D01*
X0169466Y0156610D01*
X0169593Y0156453D01*
X0169724Y0156299D01*
X0169859Y0156149D01*
X0169997Y0156001D01*
X0170139Y0155858D01*
X0170285Y0155717D01*
X0170433Y0155581D01*
X0170585Y0155448D01*
X0170741Y0155318D01*
X0170899Y0155193D01*
X0171060Y0155071D01*
X0171224Y0154953D01*
X0171391Y0154839D01*
X0171561Y0154730D01*
X0171733Y0154624D01*
X0171908Y0154523D01*
X0172085Y0154425D01*
X0172264Y0154333D01*
X0172446Y0154244D01*
X0172630Y0154160D01*
X0172815Y0154080D01*
X0173003Y0154005D01*
X0173192Y0153935D01*
X0173383Y0153869D01*
X0173576Y0153808D01*
X0173770Y0153751D01*
X0173965Y0153699D01*
X0174161Y0153652D01*
X0174359Y0153610D01*
X0174557Y0153572D01*
X0174757Y0153539D01*
X0174957Y0153511D01*
X0175158Y0153488D01*
X0175359Y0153470D01*
X0175560Y0153456D01*
X0175762Y0153448D01*
X0175964Y0153444D01*
X0175964Y0153538D01*
X0175765Y0153542D01*
X0175565Y0153550D01*
X0175366Y0153563D01*
X0175167Y0153582D01*
X0174968Y0153604D01*
X0174771Y0153632D01*
X0174573Y0153665D01*
X0174377Y0153702D01*
X0174182Y0153744D01*
X0173988Y0153790D01*
X0173795Y0153842D01*
X0173603Y0153898D01*
X0173413Y0153958D01*
X0173224Y0154023D01*
X0173037Y0154093D01*
X0172851Y0154167D01*
X0172668Y0154246D01*
X0172486Y0154329D01*
X0172306Y0154417D01*
X0172129Y0154508D01*
X0171954Y0154604D01*
X0171781Y0154705D01*
X0171611Y0154809D01*
X0171443Y0154918D01*
X0171278Y0155030D01*
X0171116Y0155146D01*
X0170957Y0155267D01*
X0170800Y0155391D01*
X0170647Y0155519D01*
X0170496Y0155650D01*
X0170349Y0155786D01*
X0170206Y0155924D01*
X0170065Y0156066D01*
X0169928Y0156212D01*
X0169795Y0156361D01*
X0169665Y0156513D01*
X0169539Y0156668D01*
X0169417Y0156826D01*
X0169299Y0156987D01*
X0169185Y0157150D01*
X0169074Y0157317D01*
X0168968Y0157486D01*
X0168866Y0157657D01*
X0168947Y0157704D01*
X0169048Y0157534D01*
X0169153Y0157367D01*
X0169263Y0157203D01*
X0169376Y0157041D01*
X0169493Y0156882D01*
X0169613Y0156726D01*
X0169738Y0156572D01*
X0169866Y0156422D01*
X0169998Y0156275D01*
X0170133Y0156131D01*
X0170272Y0155991D01*
X0170414Y0155854D01*
X0170559Y0155720D01*
X0170708Y0155590D01*
X0170860Y0155464D01*
X0171014Y0155341D01*
X0171172Y0155222D01*
X0171332Y0155107D01*
X0171495Y0154996D01*
X0171661Y0154889D01*
X0171829Y0154785D01*
X0172000Y0154686D01*
X0172173Y0154591D01*
X0172349Y0154501D01*
X0172526Y0154414D01*
X0172706Y0154332D01*
X0172887Y0154254D01*
X0173070Y0154181D01*
X0173255Y0154112D01*
X0173442Y0154048D01*
X0173630Y0153988D01*
X0173820Y0153932D01*
X0174010Y0153882D01*
X0174202Y0153835D01*
X0174395Y0153794D01*
X0174589Y0153757D01*
X0174784Y0153725D01*
X0174980Y0153698D01*
X0175176Y0153675D01*
X0175373Y0153657D01*
X0175570Y0153644D01*
X0175767Y0153636D01*
X0175964Y0153632D01*
X0175964Y0153726D01*
X0175769Y0153730D01*
X0175574Y0153738D01*
X0175379Y0153751D01*
X0175185Y0153769D01*
X0174991Y0153791D01*
X0174798Y0153818D01*
X0174605Y0153850D01*
X0174414Y0153886D01*
X0174223Y0153927D01*
X0174033Y0153973D01*
X0173845Y0154023D01*
X0173657Y0154078D01*
X0173471Y0154137D01*
X0173287Y0154200D01*
X0173104Y0154269D01*
X0172923Y0154341D01*
X0172744Y0154418D01*
X0172566Y0154499D01*
X0172391Y0154585D01*
X0172217Y0154674D01*
X0172046Y0154768D01*
X0171878Y0154866D01*
X0171711Y0154968D01*
X0171547Y0155074D01*
X0171386Y0155184D01*
X0171228Y0155298D01*
X0171072Y0155415D01*
X0170919Y0155537D01*
X0170769Y0155662D01*
X0170622Y0155790D01*
X0170479Y0155922D01*
X0170338Y0156058D01*
X0170201Y0156197D01*
X0170067Y0156339D01*
X0169937Y0156484D01*
X0169810Y0156632D01*
X0169687Y0156784D01*
X0169568Y0156938D01*
X0169452Y0157095D01*
X0169341Y0157255D01*
X0169233Y0157418D01*
X0169129Y0157583D01*
X0169029Y0157751D01*
X0169110Y0157797D01*
X0169209Y0157632D01*
X0169312Y0157468D01*
X0169419Y0157308D01*
X0169529Y0157150D01*
X0169643Y0156994D01*
X0169761Y0156842D01*
X0169883Y0156692D01*
X0170008Y0156546D01*
X0170137Y0156402D01*
X0170269Y0156262D01*
X0170404Y0156124D01*
X0170543Y0155990D01*
X0170685Y0155860D01*
X0170830Y0155733D01*
X0170978Y0155609D01*
X0171129Y0155490D01*
X0171283Y0155373D01*
X0171440Y0155261D01*
X0171599Y0155152D01*
X0171761Y0155048D01*
X0171926Y0154947D01*
X0172092Y0154850D01*
X0172262Y0154757D01*
X0172433Y0154669D01*
X0172606Y0154584D01*
X0172782Y0154504D01*
X0172959Y0154428D01*
X0173138Y0154356D01*
X0173319Y0154289D01*
X0173501Y0154226D01*
X0173685Y0154168D01*
X0173870Y0154114D01*
X0174056Y0154064D01*
X0174244Y0154019D01*
X0174432Y0153978D01*
X0174621Y0153942D01*
X0174812Y0153911D01*
X0175003Y0153884D01*
X0175194Y0153862D01*
X0175386Y0153845D01*
X0175579Y0153832D01*
X0175771Y0153824D01*
X0175964Y0153820D01*
X0175964Y0153914D01*
X0175774Y0153918D01*
X0175583Y0153926D01*
X0175393Y0153938D01*
X0175203Y0153956D01*
X0175014Y0153978D01*
X0174826Y0154004D01*
X0174638Y0154035D01*
X0174450Y0154071D01*
X0174264Y0154111D01*
X0174079Y0154155D01*
X0173895Y0154204D01*
X0173712Y0154258D01*
X0173530Y0154315D01*
X0173350Y0154378D01*
X0173172Y0154444D01*
X0172995Y0154515D01*
X0172820Y0154590D01*
X0172646Y0154669D01*
X0172475Y0154753D01*
X0172306Y0154840D01*
X0172139Y0154932D01*
X0171974Y0155028D01*
X0171811Y0155127D01*
X0171651Y0155231D01*
X0171494Y0155338D01*
X0171339Y0155449D01*
X0171187Y0155564D01*
X0171038Y0155682D01*
X0170892Y0155804D01*
X0170748Y0155930D01*
X0170608Y0156059D01*
X0170471Y0156191D01*
X0170337Y0156327D01*
X0170206Y0156465D01*
X0170079Y0156607D01*
X0169955Y0156752D01*
X0169835Y0156900D01*
X0169719Y0157051D01*
X0169606Y0157204D01*
X0169497Y0157360D01*
X0169391Y0157519D01*
X0169290Y0157680D01*
X0169192Y0157844D01*
X0169274Y0157891D01*
X0169370Y0157729D01*
X0169470Y0157570D01*
X0169574Y0157413D01*
X0169682Y0157258D01*
X0169794Y0157107D01*
X0169909Y0156958D01*
X0170028Y0156812D01*
X0170150Y0156669D01*
X0170276Y0156529D01*
X0170405Y0156392D01*
X0170537Y0156258D01*
X0170673Y0156127D01*
X0170811Y0156000D01*
X0170953Y0155876D01*
X0171097Y0155755D01*
X0171245Y0155638D01*
X0171395Y0155525D01*
X0171548Y0155415D01*
X0171704Y0155309D01*
X0171862Y0155207D01*
X0172022Y0155108D01*
X0172185Y0155014D01*
X0172350Y0154923D01*
X0172517Y0154837D01*
X0172686Y0154754D01*
X0172857Y0154676D01*
X0173030Y0154602D01*
X0173205Y0154532D01*
X0173382Y0154466D01*
X0173560Y0154405D01*
X0173739Y0154348D01*
X0173920Y0154295D01*
X0174102Y0154246D01*
X0174285Y0154202D01*
X0174469Y0154163D01*
X0174654Y0154128D01*
X0174839Y0154097D01*
X0175026Y0154071D01*
X0175213Y0154049D01*
X0175400Y0154032D01*
X0175588Y0154020D01*
X0175776Y0154012D01*
X0175964Y0154008D01*
X0175964Y0154102D01*
X0175778Y0154106D01*
X0175593Y0154114D01*
X0175407Y0154126D01*
X0175222Y0154143D01*
X0175037Y0154164D01*
X0174853Y0154190D01*
X0174670Y0154220D01*
X0174487Y0154255D01*
X0174305Y0154294D01*
X0174124Y0154338D01*
X0173945Y0154385D01*
X0173766Y0154438D01*
X0173589Y0154494D01*
X0173413Y0154555D01*
X0173239Y0154620D01*
X0173066Y0154689D01*
X0172895Y0154762D01*
X0172726Y0154839D01*
X0172559Y0154921D01*
X0172394Y0155006D01*
X0172231Y0155096D01*
X0172070Y0155189D01*
X0171912Y0155286D01*
X0171756Y0155387D01*
X0171602Y0155492D01*
X0171451Y0155600D01*
X0171302Y0155712D01*
X0171157Y0155828D01*
X0171014Y0155947D01*
X0170874Y0156069D01*
X0170737Y0156195D01*
X0170603Y0156324D01*
X0170473Y0156457D01*
X0170345Y0156592D01*
X0170221Y0156730D01*
X0170100Y0156872D01*
X0169983Y0157016D01*
X0169869Y0157163D01*
X0169759Y0157313D01*
X0169652Y0157465D01*
X0169550Y0157620D01*
X0169451Y0157778D01*
X0169355Y0157937D01*
X0169437Y0157984D01*
X0169531Y0157826D01*
X0169629Y0157671D01*
X0169730Y0157518D01*
X0169836Y0157367D01*
X0169945Y0157219D01*
X0170057Y0157074D01*
X0170173Y0156932D01*
X0170292Y0156792D01*
X0170415Y0156655D01*
X0170541Y0156522D01*
X0170670Y0156391D01*
X0170802Y0156263D01*
X0170937Y0156139D01*
X0171075Y0156018D01*
X0171216Y0155901D01*
X0171360Y0155787D01*
X0171507Y0155676D01*
X0171656Y0155569D01*
X0171808Y0155465D01*
X0171962Y0155366D01*
X0172118Y0155270D01*
X0172277Y0155178D01*
X0172438Y0155089D01*
X0172601Y0155005D01*
X0172766Y0154924D01*
X0172933Y0154848D01*
X0173102Y0154776D01*
X0173273Y0154707D01*
X0173445Y0154643D01*
X0173618Y0154583D01*
X0173793Y0154527D01*
X0173970Y0154476D01*
X0174147Y0154429D01*
X0174326Y0154386D01*
X0174505Y0154347D01*
X0174686Y0154313D01*
X0174867Y0154283D01*
X0175049Y0154258D01*
X0175231Y0154236D01*
X0175414Y0154220D01*
X0175597Y0154207D01*
X0175781Y0154200D01*
X0175964Y0154196D01*
X0176063Y0153351D02*
X0176063Y0154251D01*
X0176064Y0154250D02*
X0176248Y0154254D01*
X0176433Y0154262D01*
X0176617Y0154274D01*
X0176800Y0154291D01*
X0176984Y0154313D01*
X0177166Y0154338D01*
X0177348Y0154369D01*
X0177529Y0154404D01*
X0177710Y0154443D01*
X0177889Y0154487D01*
X0178067Y0154535D01*
X0178244Y0154587D01*
X0178420Y0154644D01*
X0178594Y0154704D01*
X0178766Y0154770D01*
X0178937Y0154839D01*
X0179107Y0154912D01*
X0179274Y0154990D01*
X0179439Y0155072D01*
X0179603Y0155157D01*
X0179764Y0155247D01*
X0179923Y0155341D01*
X0180080Y0155438D01*
X0180234Y0155539D01*
X0180386Y0155644D01*
X0180535Y0155753D01*
X0180681Y0155865D01*
X0180825Y0155981D01*
X0180965Y0156100D01*
X0181103Y0156223D01*
X0181238Y0156349D01*
X0181370Y0156478D01*
X0181498Y0156611D01*
X0181623Y0156746D01*
X0181745Y0156885D01*
X0182432Y0156304D01*
X0182296Y0156148D01*
X0182155Y0155996D01*
X0182011Y0155847D01*
X0181864Y0155702D01*
X0181713Y0155561D01*
X0181559Y0155424D01*
X0181401Y0155290D01*
X0181240Y0155160D01*
X0181076Y0155034D01*
X0180909Y0154912D01*
X0180739Y0154794D01*
X0180566Y0154681D01*
X0180390Y0154572D01*
X0180212Y0154467D01*
X0180031Y0154366D01*
X0179848Y0154270D01*
X0179663Y0154178D01*
X0179475Y0154091D01*
X0179285Y0154009D01*
X0179094Y0153931D01*
X0178900Y0153858D01*
X0178705Y0153790D01*
X0178508Y0153726D01*
X0178310Y0153668D01*
X0178110Y0153614D01*
X0177909Y0153565D01*
X0177707Y0153521D01*
X0177504Y0153482D01*
X0177300Y0153448D01*
X0177095Y0153419D01*
X0176890Y0153395D01*
X0176684Y0153377D01*
X0176477Y0153363D01*
X0176271Y0153354D01*
X0176064Y0153350D01*
X0176064Y0153444D01*
X0176268Y0153448D01*
X0176473Y0153457D01*
X0176677Y0153470D01*
X0176880Y0153489D01*
X0177083Y0153513D01*
X0177286Y0153541D01*
X0177488Y0153575D01*
X0177688Y0153613D01*
X0177888Y0153657D01*
X0178087Y0153705D01*
X0178284Y0153758D01*
X0178481Y0153816D01*
X0178675Y0153879D01*
X0178868Y0153947D01*
X0179060Y0154019D01*
X0179249Y0154096D01*
X0179437Y0154177D01*
X0179622Y0154263D01*
X0179805Y0154354D01*
X0179987Y0154449D01*
X0180165Y0154548D01*
X0180341Y0154652D01*
X0180515Y0154760D01*
X0180686Y0154872D01*
X0180854Y0154989D01*
X0181019Y0155109D01*
X0181182Y0155234D01*
X0181341Y0155362D01*
X0181497Y0155494D01*
X0181649Y0155630D01*
X0181799Y0155770D01*
X0181944Y0155913D01*
X0182087Y0156060D01*
X0182225Y0156211D01*
X0182360Y0156364D01*
X0182289Y0156425D01*
X0182155Y0156273D01*
X0182018Y0156124D01*
X0181877Y0155979D01*
X0181733Y0155838D01*
X0181586Y0155699D01*
X0181435Y0155565D01*
X0181281Y0155434D01*
X0181123Y0155307D01*
X0180963Y0155184D01*
X0180799Y0155065D01*
X0180633Y0154950D01*
X0180464Y0154839D01*
X0180293Y0154732D01*
X0180118Y0154630D01*
X0179942Y0154531D01*
X0179763Y0154437D01*
X0179581Y0154348D01*
X0179398Y0154263D01*
X0179213Y0154182D01*
X0179025Y0154106D01*
X0178836Y0154035D01*
X0178645Y0153968D01*
X0178453Y0153906D01*
X0178259Y0153849D01*
X0178064Y0153796D01*
X0177867Y0153749D01*
X0177670Y0153706D01*
X0177471Y0153668D01*
X0177272Y0153634D01*
X0177072Y0153606D01*
X0176871Y0153583D01*
X0176670Y0153564D01*
X0176468Y0153550D01*
X0176266Y0153542D01*
X0176064Y0153538D01*
X0176064Y0153632D01*
X0176264Y0153636D01*
X0176463Y0153644D01*
X0176663Y0153658D01*
X0176862Y0153676D01*
X0177060Y0153699D01*
X0177258Y0153727D01*
X0177455Y0153760D01*
X0177651Y0153798D01*
X0177847Y0153840D01*
X0178041Y0153887D01*
X0178234Y0153939D01*
X0178425Y0153996D01*
X0178616Y0154057D01*
X0178804Y0154123D01*
X0178991Y0154194D01*
X0179176Y0154269D01*
X0179360Y0154349D01*
X0179541Y0154433D01*
X0179720Y0154521D01*
X0179897Y0154614D01*
X0180072Y0154711D01*
X0180244Y0154813D01*
X0180413Y0154918D01*
X0180581Y0155028D01*
X0180745Y0155142D01*
X0180906Y0155259D01*
X0181065Y0155381D01*
X0181220Y0155506D01*
X0181373Y0155636D01*
X0181522Y0155769D01*
X0181668Y0155905D01*
X0181810Y0156045D01*
X0181949Y0156189D01*
X0182085Y0156336D01*
X0182217Y0156486D01*
X0182145Y0156546D01*
X0182015Y0156398D01*
X0181881Y0156253D01*
X0181743Y0156111D01*
X0181602Y0155973D01*
X0181458Y0155838D01*
X0181311Y0155706D01*
X0181160Y0155579D01*
X0181006Y0155455D01*
X0180850Y0155334D01*
X0180690Y0155218D01*
X0180528Y0155106D01*
X0180363Y0154997D01*
X0180195Y0154893D01*
X0180025Y0154793D01*
X0179852Y0154697D01*
X0179677Y0154605D01*
X0179500Y0154517D01*
X0179321Y0154434D01*
X0179140Y0154356D01*
X0178957Y0154281D01*
X0178772Y0154212D01*
X0178586Y0154147D01*
X0178398Y0154086D01*
X0178208Y0154030D01*
X0178018Y0153979D01*
X0177826Y0153932D01*
X0177633Y0153890D01*
X0177439Y0153853D01*
X0177244Y0153820D01*
X0177048Y0153793D01*
X0176852Y0153770D01*
X0176656Y0153752D01*
X0176459Y0153738D01*
X0176261Y0153730D01*
X0176064Y0153726D01*
X0176064Y0153820D01*
X0176259Y0153824D01*
X0176454Y0153832D01*
X0176649Y0153845D01*
X0176843Y0153863D01*
X0177037Y0153886D01*
X0177230Y0153913D01*
X0177423Y0153945D01*
X0177614Y0153982D01*
X0177805Y0154024D01*
X0177995Y0154070D01*
X0178183Y0154120D01*
X0178370Y0154176D01*
X0178556Y0154236D01*
X0178740Y0154300D01*
X0178923Y0154369D01*
X0179104Y0154442D01*
X0179283Y0154520D01*
X0179460Y0154602D01*
X0179635Y0154689D01*
X0179807Y0154779D01*
X0179978Y0154874D01*
X0180146Y0154973D01*
X0180312Y0155076D01*
X0180475Y0155183D01*
X0180636Y0155294D01*
X0180793Y0155409D01*
X0180948Y0155528D01*
X0181100Y0155651D01*
X0181249Y0155777D01*
X0181395Y0155907D01*
X0181537Y0156040D01*
X0181676Y0156177D01*
X0181812Y0156317D01*
X0181944Y0156461D01*
X0182073Y0156607D01*
X0182001Y0156668D01*
X0181874Y0156523D01*
X0181743Y0156381D01*
X0181609Y0156243D01*
X0181472Y0156108D01*
X0181331Y0155976D01*
X0181187Y0155848D01*
X0181040Y0155723D01*
X0180890Y0155602D01*
X0180737Y0155485D01*
X0180581Y0155371D01*
X0180422Y0155261D01*
X0180261Y0155155D01*
X0180097Y0155054D01*
X0179931Y0154956D01*
X0179763Y0154862D01*
X0179592Y0154772D01*
X0179419Y0154687D01*
X0179244Y0154606D01*
X0179067Y0154529D01*
X0178889Y0154457D01*
X0178708Y0154388D01*
X0178526Y0154325D01*
X0178343Y0154266D01*
X0178158Y0154211D01*
X0177972Y0154161D01*
X0177784Y0154115D01*
X0177596Y0154074D01*
X0177406Y0154038D01*
X0177216Y0154006D01*
X0177025Y0153979D01*
X0176834Y0153957D01*
X0176642Y0153939D01*
X0176449Y0153926D01*
X0176257Y0153918D01*
X0176064Y0153914D01*
X0176064Y0154008D01*
X0176254Y0154012D01*
X0176445Y0154020D01*
X0176635Y0154033D01*
X0176824Y0154050D01*
X0177014Y0154072D01*
X0177202Y0154099D01*
X0177390Y0154130D01*
X0177577Y0154166D01*
X0177763Y0154207D01*
X0177948Y0154252D01*
X0178132Y0154301D01*
X0178315Y0154356D01*
X0178496Y0154414D01*
X0178676Y0154477D01*
X0178854Y0154544D01*
X0179031Y0154616D01*
X0179206Y0154692D01*
X0179378Y0154772D01*
X0179549Y0154856D01*
X0179718Y0154945D01*
X0179884Y0155037D01*
X0180049Y0155134D01*
X0180210Y0155234D01*
X0180370Y0155339D01*
X0180526Y0155447D01*
X0180680Y0155560D01*
X0180831Y0155676D01*
X0180980Y0155795D01*
X0181125Y0155918D01*
X0181267Y0156045D01*
X0181406Y0156175D01*
X0181542Y0156309D01*
X0181675Y0156445D01*
X0181804Y0156585D01*
X0181930Y0156729D01*
X0181858Y0156789D01*
X0181734Y0156648D01*
X0181606Y0156510D01*
X0181475Y0156375D01*
X0181341Y0156243D01*
X0181204Y0156114D01*
X0181063Y0155989D01*
X0180919Y0155867D01*
X0180773Y0155749D01*
X0180624Y0155635D01*
X0180472Y0155524D01*
X0180317Y0155417D01*
X0180160Y0155314D01*
X0180000Y0155214D01*
X0179838Y0155119D01*
X0179673Y0155027D01*
X0179507Y0154940D01*
X0179338Y0154857D01*
X0179167Y0154777D01*
X0178995Y0154702D01*
X0178820Y0154632D01*
X0178644Y0154565D01*
X0178467Y0154503D01*
X0178287Y0154445D01*
X0178107Y0154392D01*
X0177925Y0154343D01*
X0177743Y0154299D01*
X0177559Y0154259D01*
X0177374Y0154223D01*
X0177188Y0154192D01*
X0177002Y0154166D01*
X0176815Y0154144D01*
X0176628Y0154127D01*
X0176440Y0154114D01*
X0176252Y0154106D01*
X0176064Y0154102D01*
X0176064Y0154196D01*
X0176250Y0154200D01*
X0176435Y0154208D01*
X0176621Y0154220D01*
X0176806Y0154237D01*
X0176990Y0154259D01*
X0177174Y0154285D01*
X0177358Y0154316D01*
X0177540Y0154351D01*
X0177722Y0154390D01*
X0177902Y0154434D01*
X0178082Y0154483D01*
X0178260Y0154535D01*
X0178437Y0154592D01*
X0178612Y0154654D01*
X0178786Y0154719D01*
X0178958Y0154789D01*
X0179129Y0154863D01*
X0179297Y0154941D01*
X0179464Y0155024D01*
X0179628Y0155110D01*
X0179791Y0155200D01*
X0179951Y0155295D01*
X0180109Y0155393D01*
X0180264Y0155495D01*
X0180417Y0155600D01*
X0180567Y0155710D01*
X0180715Y0155823D01*
X0180859Y0155940D01*
X0181001Y0156060D01*
X0181140Y0156183D01*
X0181276Y0156310D01*
X0181408Y0156440D01*
X0181537Y0156574D01*
X0181664Y0156710D01*
X0181786Y0156850D01*
X0182473Y0167248D02*
X0181781Y0166671D01*
X0181782Y0166672D02*
X0181663Y0166809D01*
X0181542Y0166943D01*
X0181417Y0167074D01*
X0181289Y0167202D01*
X0181158Y0167326D01*
X0181024Y0167448D01*
X0180887Y0167567D01*
X0180748Y0167682D01*
X0180605Y0167793D01*
X0180460Y0167902D01*
X0180313Y0168007D01*
X0180163Y0168108D01*
X0180011Y0168205D01*
X0179856Y0168299D01*
X0179699Y0168390D01*
X0179540Y0168476D01*
X0179379Y0168559D01*
X0179216Y0168637D01*
X0179051Y0168712D01*
X0178885Y0168783D01*
X0178717Y0168850D01*
X0178547Y0168912D01*
X0178376Y0168971D01*
X0178203Y0169026D01*
X0178030Y0169076D01*
X0177855Y0169122D01*
X0177679Y0169164D01*
X0177502Y0169202D01*
X0177324Y0169235D01*
X0177145Y0169265D01*
X0176966Y0169290D01*
X0176786Y0169310D01*
X0176606Y0169327D01*
X0176426Y0169339D01*
X0176245Y0169346D01*
X0176064Y0169350D01*
X0176063Y0170249D01*
X0176064Y0170250D01*
X0176267Y0170246D01*
X0176469Y0170238D01*
X0176672Y0170224D01*
X0176874Y0170206D01*
X0177075Y0170183D01*
X0177276Y0170155D01*
X0177476Y0170122D01*
X0177676Y0170085D01*
X0177874Y0170043D01*
X0178072Y0169996D01*
X0178268Y0169944D01*
X0178462Y0169887D01*
X0178656Y0169826D01*
X0178848Y0169761D01*
X0179038Y0169690D01*
X0179227Y0169615D01*
X0179413Y0169536D01*
X0179598Y0169452D01*
X0179781Y0169364D01*
X0179961Y0169271D01*
X0180139Y0169175D01*
X0180315Y0169073D01*
X0180488Y0168968D01*
X0180659Y0168859D01*
X0180827Y0168745D01*
X0180993Y0168628D01*
X0181155Y0168506D01*
X0181315Y0168381D01*
X0181471Y0168252D01*
X0181624Y0168119D01*
X0181774Y0167982D01*
X0181921Y0167842D01*
X0182064Y0167699D01*
X0182204Y0167552D01*
X0182341Y0167402D01*
X0182473Y0167248D01*
X0182401Y0167188D01*
X0182270Y0167340D01*
X0182135Y0167488D01*
X0181997Y0167633D01*
X0181855Y0167775D01*
X0181710Y0167914D01*
X0181562Y0168049D01*
X0181410Y0168180D01*
X0181255Y0168308D01*
X0181098Y0168432D01*
X0180937Y0168552D01*
X0180774Y0168668D01*
X0180607Y0168780D01*
X0180439Y0168888D01*
X0180267Y0168993D01*
X0180093Y0169093D01*
X0179917Y0169188D01*
X0179739Y0169280D01*
X0179558Y0169367D01*
X0179375Y0169450D01*
X0179191Y0169529D01*
X0179005Y0169603D01*
X0178816Y0169672D01*
X0178627Y0169737D01*
X0178435Y0169797D01*
X0178243Y0169853D01*
X0178049Y0169904D01*
X0177854Y0169951D01*
X0177658Y0169993D01*
X0177461Y0170030D01*
X0177263Y0170062D01*
X0177064Y0170090D01*
X0176865Y0170113D01*
X0176665Y0170131D01*
X0176465Y0170144D01*
X0176264Y0170152D01*
X0176064Y0170156D01*
X0176064Y0170062D01*
X0176262Y0170058D01*
X0176460Y0170050D01*
X0176658Y0170037D01*
X0176856Y0170019D01*
X0177053Y0169996D01*
X0177249Y0169969D01*
X0177445Y0169937D01*
X0177639Y0169901D01*
X0177833Y0169859D01*
X0178026Y0169813D01*
X0178218Y0169763D01*
X0178408Y0169707D01*
X0178597Y0169648D01*
X0178785Y0169583D01*
X0178971Y0169515D01*
X0179155Y0169442D01*
X0179338Y0169364D01*
X0179518Y0169282D01*
X0179697Y0169196D01*
X0179873Y0169105D01*
X0180047Y0169011D01*
X0180219Y0168912D01*
X0180389Y0168809D01*
X0180556Y0168702D01*
X0180720Y0168591D01*
X0180881Y0168476D01*
X0181040Y0168357D01*
X0181196Y0168235D01*
X0181349Y0168109D01*
X0181499Y0167979D01*
X0181646Y0167845D01*
X0181789Y0167708D01*
X0181929Y0167568D01*
X0182066Y0167425D01*
X0182199Y0167278D01*
X0182329Y0167128D01*
X0182257Y0167068D01*
X0182128Y0167216D01*
X0181997Y0167361D01*
X0181862Y0167503D01*
X0181723Y0167641D01*
X0181581Y0167777D01*
X0181436Y0167909D01*
X0181288Y0168037D01*
X0181137Y0168162D01*
X0180983Y0168283D01*
X0180826Y0168400D01*
X0180666Y0168514D01*
X0180504Y0168623D01*
X0180339Y0168729D01*
X0180171Y0168831D01*
X0180001Y0168929D01*
X0179829Y0169022D01*
X0179655Y0169112D01*
X0179478Y0169197D01*
X0179300Y0169278D01*
X0179120Y0169355D01*
X0178937Y0169427D01*
X0178754Y0169495D01*
X0178568Y0169558D01*
X0178381Y0169617D01*
X0178193Y0169672D01*
X0178004Y0169722D01*
X0177813Y0169767D01*
X0177621Y0169808D01*
X0177429Y0169845D01*
X0177235Y0169876D01*
X0177041Y0169903D01*
X0176846Y0169925D01*
X0176651Y0169943D01*
X0176456Y0169956D01*
X0176260Y0169964D01*
X0176064Y0169968D01*
X0176064Y0169874D01*
X0176258Y0169870D01*
X0176451Y0169862D01*
X0176644Y0169849D01*
X0176837Y0169832D01*
X0177030Y0169810D01*
X0177222Y0169783D01*
X0177413Y0169752D01*
X0177603Y0169716D01*
X0177793Y0169676D01*
X0177981Y0169631D01*
X0178168Y0169581D01*
X0178354Y0169527D01*
X0178539Y0169469D01*
X0178722Y0169406D01*
X0178904Y0169339D01*
X0179084Y0169268D01*
X0179262Y0169192D01*
X0179439Y0169112D01*
X0179613Y0169028D01*
X0179785Y0168939D01*
X0179955Y0168847D01*
X0180123Y0168750D01*
X0180289Y0168649D01*
X0180452Y0168545D01*
X0180612Y0168437D01*
X0180770Y0168324D01*
X0180925Y0168208D01*
X0181078Y0168089D01*
X0181227Y0167965D01*
X0181374Y0167839D01*
X0181517Y0167708D01*
X0181657Y0167575D01*
X0181794Y0167438D01*
X0181927Y0167297D01*
X0182058Y0167154D01*
X0182184Y0167007D01*
X0182112Y0166947D01*
X0181987Y0167092D01*
X0181858Y0167234D01*
X0181726Y0167372D01*
X0181591Y0167508D01*
X0181452Y0167640D01*
X0181311Y0167769D01*
X0181166Y0167894D01*
X0181019Y0168016D01*
X0180868Y0168134D01*
X0180715Y0168249D01*
X0180559Y0168359D01*
X0180400Y0168467D01*
X0180239Y0168570D01*
X0180075Y0168669D01*
X0179909Y0168765D01*
X0179741Y0168856D01*
X0179571Y0168943D01*
X0179399Y0169027D01*
X0179224Y0169106D01*
X0179048Y0169181D01*
X0178870Y0169251D01*
X0178691Y0169318D01*
X0178510Y0169380D01*
X0178327Y0169437D01*
X0178143Y0169491D01*
X0177958Y0169540D01*
X0177772Y0169584D01*
X0177585Y0169624D01*
X0177397Y0169659D01*
X0177208Y0169690D01*
X0177018Y0169717D01*
X0176828Y0169738D01*
X0176638Y0169756D01*
X0176447Y0169768D01*
X0176255Y0169776D01*
X0176064Y0169780D01*
X0176064Y0169686D01*
X0176253Y0169682D01*
X0176442Y0169674D01*
X0176631Y0169662D01*
X0176819Y0169645D01*
X0177007Y0169623D01*
X0177194Y0169597D01*
X0177381Y0169567D01*
X0177567Y0169532D01*
X0177752Y0169492D01*
X0177936Y0169448D01*
X0178118Y0169400D01*
X0178300Y0169347D01*
X0178480Y0169290D01*
X0178659Y0169229D01*
X0178837Y0169163D01*
X0179013Y0169094D01*
X0179187Y0169020D01*
X0179359Y0168942D01*
X0179529Y0168859D01*
X0179697Y0168773D01*
X0179863Y0168683D01*
X0180027Y0168588D01*
X0180189Y0168490D01*
X0180348Y0168388D01*
X0180505Y0168282D01*
X0180659Y0168173D01*
X0180811Y0168059D01*
X0180959Y0167943D01*
X0181105Y0167822D01*
X0181248Y0167699D01*
X0181388Y0167571D01*
X0181525Y0167441D01*
X0181659Y0167307D01*
X0181789Y0167170D01*
X0181916Y0167030D01*
X0182040Y0166887D01*
X0181968Y0166827D01*
X0181845Y0166968D01*
X0181720Y0167106D01*
X0181591Y0167242D01*
X0181459Y0167374D01*
X0181324Y0167503D01*
X0181185Y0167628D01*
X0181044Y0167751D01*
X0180900Y0167870D01*
X0180753Y0167985D01*
X0180604Y0168097D01*
X0180451Y0168205D01*
X0180296Y0168310D01*
X0180139Y0168410D01*
X0179979Y0168507D01*
X0179818Y0168601D01*
X0179653Y0168690D01*
X0179487Y0168775D01*
X0179319Y0168856D01*
X0179149Y0168934D01*
X0178977Y0169007D01*
X0178803Y0169076D01*
X0178628Y0169140D01*
X0178451Y0169201D01*
X0178273Y0169257D01*
X0178094Y0169309D01*
X0177913Y0169357D01*
X0177731Y0169400D01*
X0177549Y0169439D01*
X0177365Y0169474D01*
X0177181Y0169504D01*
X0176996Y0169530D01*
X0176810Y0169551D01*
X0176624Y0169568D01*
X0176437Y0169580D01*
X0176251Y0169588D01*
X0176064Y0169592D01*
X0176064Y0169498D01*
X0176248Y0169494D01*
X0176433Y0169487D01*
X0176617Y0169474D01*
X0176801Y0169458D01*
X0176984Y0169437D01*
X0177167Y0169411D01*
X0177349Y0169381D01*
X0177530Y0169347D01*
X0177711Y0169309D01*
X0177890Y0169266D01*
X0178069Y0169219D01*
X0178246Y0169167D01*
X0178422Y0169112D01*
X0178597Y0169052D01*
X0178770Y0168988D01*
X0178941Y0168920D01*
X0179111Y0168848D01*
X0179279Y0168771D01*
X0179445Y0168691D01*
X0179609Y0168607D01*
X0179772Y0168519D01*
X0179932Y0168427D01*
X0180089Y0168331D01*
X0180245Y0168231D01*
X0180398Y0168128D01*
X0180548Y0168021D01*
X0180696Y0167911D01*
X0180841Y0167797D01*
X0180983Y0167679D01*
X0181123Y0167558D01*
X0181259Y0167434D01*
X0181393Y0167307D01*
X0181523Y0167176D01*
X0181651Y0167043D01*
X0181775Y0166906D01*
X0181895Y0166767D01*
X0181823Y0166706D01*
X0181704Y0166844D01*
X0181581Y0166979D01*
X0181456Y0167111D01*
X0181327Y0167240D01*
X0181195Y0167366D01*
X0181060Y0167488D01*
X0180922Y0167608D01*
X0180782Y0167724D01*
X0180638Y0167836D01*
X0180492Y0167945D01*
X0180344Y0168051D01*
X0180193Y0168153D01*
X0180039Y0168251D01*
X0179884Y0168346D01*
X0179726Y0168437D01*
X0179565Y0168524D01*
X0179403Y0168607D01*
X0179239Y0168686D01*
X0179073Y0168761D01*
X0178905Y0168833D01*
X0178736Y0168900D01*
X0178565Y0168963D01*
X0178393Y0169022D01*
X0178219Y0169077D01*
X0178044Y0169128D01*
X0177868Y0169175D01*
X0177690Y0169217D01*
X0177512Y0169255D01*
X0177333Y0169289D01*
X0177153Y0169318D01*
X0176973Y0169343D01*
X0176792Y0169364D01*
X0176610Y0169381D01*
X0176428Y0169393D01*
X0176246Y0169400D01*
X0176064Y0169404D01*
X0145964Y0170249D02*
X0145964Y0169349D01*
X0145964Y0169350D02*
X0145781Y0169346D01*
X0145598Y0169339D01*
X0145415Y0169326D01*
X0145232Y0169309D01*
X0145050Y0169288D01*
X0144869Y0169263D01*
X0144688Y0169233D01*
X0144508Y0169198D01*
X0144329Y0169160D01*
X0144151Y0169117D01*
X0143974Y0169069D01*
X0143799Y0169018D01*
X0143624Y0168962D01*
X0143451Y0168902D01*
X0143280Y0168837D01*
X0143110Y0168769D01*
X0142941Y0168697D01*
X0142775Y0168620D01*
X0142611Y0168539D01*
X0142448Y0168455D01*
X0142288Y0168366D01*
X0142129Y0168274D01*
X0141973Y0168178D01*
X0141820Y0168078D01*
X0141669Y0167974D01*
X0141520Y0167867D01*
X0141374Y0167756D01*
X0141231Y0167642D01*
X0141091Y0167524D01*
X0140954Y0167403D01*
X0140819Y0167279D01*
X0140688Y0167151D01*
X0140559Y0167020D01*
X0140434Y0166886D01*
X0140313Y0166750D01*
X0140194Y0166610D01*
X0140079Y0166467D01*
X0139968Y0166322D01*
X0139860Y0166174D01*
X0139756Y0166023D01*
X0139655Y0165870D01*
X0139558Y0165715D01*
X0139465Y0165557D01*
X0139376Y0165397D01*
X0138582Y0165820D01*
X0138682Y0166000D01*
X0138786Y0166177D01*
X0138894Y0166351D01*
X0139007Y0166523D01*
X0139124Y0166691D01*
X0139245Y0166857D01*
X0139369Y0167020D01*
X0139498Y0167180D01*
X0139631Y0167337D01*
X0139767Y0167490D01*
X0139907Y0167640D01*
X0140051Y0167787D01*
X0140198Y0167930D01*
X0140349Y0168070D01*
X0140503Y0168205D01*
X0140660Y0168337D01*
X0140820Y0168465D01*
X0140984Y0168590D01*
X0141150Y0168710D01*
X0141320Y0168826D01*
X0141492Y0168938D01*
X0141666Y0169046D01*
X0141844Y0169149D01*
X0142023Y0169248D01*
X0142206Y0169343D01*
X0142390Y0169433D01*
X0142576Y0169519D01*
X0142765Y0169600D01*
X0142955Y0169677D01*
X0143148Y0169749D01*
X0143342Y0169816D01*
X0143537Y0169879D01*
X0143734Y0169937D01*
X0143932Y0169990D01*
X0144132Y0170038D01*
X0144333Y0170081D01*
X0144534Y0170119D01*
X0144737Y0170153D01*
X0144940Y0170181D01*
X0145144Y0170205D01*
X0145349Y0170224D01*
X0145553Y0170237D01*
X0145758Y0170246D01*
X0145964Y0170250D01*
X0145964Y0170156D01*
X0145761Y0170152D01*
X0145558Y0170144D01*
X0145355Y0170130D01*
X0145153Y0170112D01*
X0144952Y0170088D01*
X0144751Y0170060D01*
X0144550Y0170027D01*
X0144351Y0169989D01*
X0144153Y0169946D01*
X0143955Y0169898D01*
X0143759Y0169846D01*
X0143564Y0169789D01*
X0143371Y0169727D01*
X0143179Y0169660D01*
X0142989Y0169589D01*
X0142801Y0169514D01*
X0142615Y0169433D01*
X0142430Y0169348D01*
X0142248Y0169259D01*
X0142068Y0169165D01*
X0141890Y0169067D01*
X0141715Y0168965D01*
X0141542Y0168859D01*
X0141372Y0168748D01*
X0141204Y0168633D01*
X0141040Y0168514D01*
X0140878Y0168391D01*
X0140720Y0168265D01*
X0140564Y0168134D01*
X0140412Y0168000D01*
X0140263Y0167862D01*
X0140117Y0167721D01*
X0139975Y0167576D01*
X0139837Y0167427D01*
X0139702Y0167276D01*
X0139571Y0167121D01*
X0139444Y0166963D01*
X0139320Y0166801D01*
X0139201Y0166637D01*
X0139085Y0166470D01*
X0138974Y0166301D01*
X0138866Y0166128D01*
X0138763Y0165953D01*
X0138665Y0165776D01*
X0138748Y0165732D01*
X0138845Y0165907D01*
X0138947Y0166080D01*
X0139053Y0166250D01*
X0139163Y0166418D01*
X0139277Y0166583D01*
X0139396Y0166745D01*
X0139518Y0166905D01*
X0139644Y0167061D01*
X0139773Y0167214D01*
X0139907Y0167364D01*
X0140043Y0167511D01*
X0140184Y0167654D01*
X0140328Y0167794D01*
X0140475Y0167930D01*
X0140626Y0168063D01*
X0140779Y0168192D01*
X0140936Y0168317D01*
X0141096Y0168439D01*
X0141259Y0168556D01*
X0141424Y0168670D01*
X0141592Y0168779D01*
X0141763Y0168885D01*
X0141936Y0168986D01*
X0142112Y0169083D01*
X0142290Y0169175D01*
X0142470Y0169263D01*
X0142653Y0169347D01*
X0142837Y0169427D01*
X0143023Y0169502D01*
X0143211Y0169572D01*
X0143401Y0169638D01*
X0143592Y0169699D01*
X0143784Y0169755D01*
X0143978Y0169807D01*
X0144173Y0169854D01*
X0144369Y0169897D01*
X0144567Y0169934D01*
X0144765Y0169967D01*
X0144963Y0169995D01*
X0145163Y0170018D01*
X0145362Y0170036D01*
X0145563Y0170050D01*
X0145763Y0170058D01*
X0145964Y0170062D01*
X0145964Y0169968D01*
X0145765Y0169964D01*
X0145567Y0169956D01*
X0145369Y0169943D01*
X0145172Y0169924D01*
X0144975Y0169902D01*
X0144778Y0169874D01*
X0144583Y0169842D01*
X0144388Y0169804D01*
X0144194Y0169763D01*
X0144001Y0169716D01*
X0143809Y0169665D01*
X0143619Y0169609D01*
X0143430Y0169549D01*
X0143243Y0169484D01*
X0143057Y0169414D01*
X0142873Y0169340D01*
X0142691Y0169261D01*
X0142511Y0169178D01*
X0142332Y0169091D01*
X0142156Y0169000D01*
X0141983Y0168904D01*
X0141811Y0168804D01*
X0141643Y0168700D01*
X0141476Y0168592D01*
X0141313Y0168479D01*
X0141152Y0168363D01*
X0140994Y0168243D01*
X0140839Y0168119D01*
X0140687Y0167992D01*
X0140538Y0167861D01*
X0140393Y0167726D01*
X0140250Y0167588D01*
X0140112Y0167446D01*
X0139976Y0167301D01*
X0139844Y0167153D01*
X0139716Y0167001D01*
X0139592Y0166847D01*
X0139471Y0166690D01*
X0139354Y0166529D01*
X0139241Y0166366D01*
X0139133Y0166200D01*
X0139028Y0166032D01*
X0138927Y0165861D01*
X0138831Y0165688D01*
X0138913Y0165643D01*
X0139009Y0165815D01*
X0139108Y0165984D01*
X0139212Y0166150D01*
X0139320Y0166314D01*
X0139431Y0166475D01*
X0139547Y0166634D01*
X0139666Y0166789D01*
X0139789Y0166942D01*
X0139916Y0167091D01*
X0140046Y0167238D01*
X0140180Y0167381D01*
X0140317Y0167521D01*
X0140458Y0167658D01*
X0140601Y0167791D01*
X0140748Y0167921D01*
X0140899Y0168047D01*
X0141052Y0168169D01*
X0141208Y0168288D01*
X0141367Y0168403D01*
X0141529Y0168513D01*
X0141693Y0168620D01*
X0141860Y0168723D01*
X0142029Y0168822D01*
X0142201Y0168917D01*
X0142375Y0169007D01*
X0142551Y0169094D01*
X0142729Y0169175D01*
X0142909Y0169253D01*
X0143091Y0169326D01*
X0143274Y0169395D01*
X0143460Y0169459D01*
X0143646Y0169519D01*
X0143834Y0169574D01*
X0144024Y0169625D01*
X0144214Y0169671D01*
X0144406Y0169712D01*
X0144599Y0169749D01*
X0144792Y0169781D01*
X0144986Y0169808D01*
X0145181Y0169831D01*
X0145376Y0169849D01*
X0145572Y0169862D01*
X0145768Y0169870D01*
X0145964Y0169874D01*
X0145964Y0169780D01*
X0145770Y0169776D01*
X0145576Y0169768D01*
X0145383Y0169755D01*
X0145190Y0169737D01*
X0144998Y0169715D01*
X0144806Y0169688D01*
X0144615Y0169656D01*
X0144424Y0169620D01*
X0144235Y0169579D01*
X0144047Y0169534D01*
X0143860Y0169484D01*
X0143674Y0169429D01*
X0143489Y0169370D01*
X0143306Y0169307D01*
X0143125Y0169239D01*
X0142945Y0169166D01*
X0142767Y0169090D01*
X0142591Y0169009D01*
X0142417Y0168923D01*
X0142245Y0168834D01*
X0142075Y0168740D01*
X0141908Y0168643D01*
X0141743Y0168541D01*
X0141581Y0168435D01*
X0141421Y0168326D01*
X0141264Y0168212D01*
X0141110Y0168095D01*
X0140958Y0167974D01*
X0140810Y0167850D01*
X0140665Y0167722D01*
X0140522Y0167590D01*
X0140383Y0167455D01*
X0140248Y0167317D01*
X0140116Y0167175D01*
X0139987Y0167030D01*
X0139862Y0166882D01*
X0139740Y0166731D01*
X0139622Y0166578D01*
X0139508Y0166421D01*
X0139398Y0166262D01*
X0139292Y0166100D01*
X0139189Y0165935D01*
X0139091Y0165768D01*
X0138996Y0165599D01*
X0139079Y0165555D01*
X0139173Y0165722D01*
X0139270Y0165887D01*
X0139371Y0166050D01*
X0139476Y0166210D01*
X0139585Y0166367D01*
X0139698Y0166522D01*
X0139814Y0166674D01*
X0139934Y0166823D01*
X0140058Y0166969D01*
X0140185Y0167112D01*
X0140316Y0167252D01*
X0140450Y0167388D01*
X0140587Y0167522D01*
X0140728Y0167652D01*
X0140871Y0167779D01*
X0141018Y0167902D01*
X0141168Y0168021D01*
X0141320Y0168137D01*
X0141475Y0168249D01*
X0141633Y0168357D01*
X0141794Y0168462D01*
X0141957Y0168562D01*
X0142122Y0168659D01*
X0142289Y0168751D01*
X0142459Y0168839D01*
X0142631Y0168924D01*
X0142805Y0169004D01*
X0142981Y0169079D01*
X0143159Y0169151D01*
X0143338Y0169218D01*
X0143519Y0169281D01*
X0143701Y0169339D01*
X0143885Y0169393D01*
X0144070Y0169443D01*
X0144256Y0169487D01*
X0144443Y0169528D01*
X0144631Y0169564D01*
X0144820Y0169595D01*
X0145009Y0169622D01*
X0145199Y0169644D01*
X0145390Y0169661D01*
X0145581Y0169674D01*
X0145772Y0169682D01*
X0145964Y0169686D01*
X0145964Y0169592D01*
X0145775Y0169588D01*
X0145586Y0169580D01*
X0145397Y0169568D01*
X0145209Y0169550D01*
X0145021Y0169528D01*
X0144834Y0169502D01*
X0144647Y0169471D01*
X0144461Y0169436D01*
X0144276Y0169396D01*
X0144092Y0169351D01*
X0143910Y0169302D01*
X0143728Y0169249D01*
X0143548Y0169192D01*
X0143370Y0169130D01*
X0143192Y0169063D01*
X0143017Y0168993D01*
X0142843Y0168918D01*
X0142671Y0168839D01*
X0142502Y0168755D01*
X0142334Y0168668D01*
X0142168Y0168577D01*
X0142005Y0168481D01*
X0141844Y0168382D01*
X0141685Y0168279D01*
X0141529Y0168172D01*
X0141376Y0168061D01*
X0141225Y0167947D01*
X0141078Y0167829D01*
X0140933Y0167707D01*
X0140791Y0167582D01*
X0140652Y0167454D01*
X0140517Y0167322D01*
X0140384Y0167187D01*
X0140255Y0167049D01*
X0140129Y0166907D01*
X0140007Y0166763D01*
X0139888Y0166616D01*
X0139773Y0166466D01*
X0139662Y0166313D01*
X0139554Y0166157D01*
X0139450Y0165999D01*
X0139350Y0165839D01*
X0139254Y0165676D01*
X0139162Y0165511D01*
X0139245Y0165466D01*
X0139336Y0165630D01*
X0139431Y0165791D01*
X0139530Y0165949D01*
X0139632Y0166105D01*
X0139739Y0166259D01*
X0139849Y0166410D01*
X0139963Y0166558D01*
X0140080Y0166704D01*
X0140201Y0166846D01*
X0140325Y0166986D01*
X0140452Y0167122D01*
X0140583Y0167256D01*
X0140717Y0167386D01*
X0140854Y0167513D01*
X0140994Y0167636D01*
X0141137Y0167756D01*
X0141283Y0167873D01*
X0141432Y0167986D01*
X0141584Y0168095D01*
X0141738Y0168201D01*
X0141894Y0168303D01*
X0142053Y0168401D01*
X0142215Y0168495D01*
X0142378Y0168585D01*
X0142544Y0168672D01*
X0142712Y0168754D01*
X0142881Y0168832D01*
X0143053Y0168906D01*
X0143226Y0168975D01*
X0143401Y0169041D01*
X0143578Y0169102D01*
X0143756Y0169159D01*
X0143935Y0169212D01*
X0144115Y0169260D01*
X0144297Y0169304D01*
X0144480Y0169344D01*
X0144663Y0169379D01*
X0144847Y0169409D01*
X0145032Y0169435D01*
X0145218Y0169457D01*
X0145404Y0169474D01*
X0145590Y0169486D01*
X0145777Y0169494D01*
X0145964Y0169498D01*
X0145964Y0169404D01*
X0145779Y0169400D01*
X0145595Y0169392D01*
X0145411Y0169380D01*
X0145227Y0169363D01*
X0145044Y0169342D01*
X0144861Y0169316D01*
X0144679Y0169286D01*
X0144498Y0169251D01*
X0144318Y0169212D01*
X0144138Y0169169D01*
X0143960Y0169121D01*
X0143783Y0169069D01*
X0143607Y0169013D01*
X0143433Y0168953D01*
X0143260Y0168888D01*
X0143089Y0168819D01*
X0142920Y0168746D01*
X0142752Y0168669D01*
X0142586Y0168588D01*
X0142423Y0168502D01*
X0142261Y0168413D01*
X0142102Y0168320D01*
X0141945Y0168223D01*
X0141790Y0168123D01*
X0141638Y0168018D01*
X0141488Y0167910D01*
X0141341Y0167799D01*
X0141197Y0167684D01*
X0141056Y0167565D01*
X0140917Y0167443D01*
X0140782Y0167318D01*
X0140650Y0167189D01*
X0140520Y0167057D01*
X0140394Y0166923D01*
X0140272Y0166785D01*
X0140153Y0166644D01*
X0140037Y0166500D01*
X0139924Y0166354D01*
X0139816Y0166205D01*
X0139711Y0166053D01*
X0139609Y0165899D01*
X0139512Y0165742D01*
X0139418Y0165583D01*
X0139328Y0165422D01*
X0138703Y0157565D02*
X0139484Y0158011D01*
X0139577Y0157854D01*
X0139674Y0157700D01*
X0139775Y0157548D01*
X0139880Y0157399D01*
X0139988Y0157252D01*
X0140099Y0157107D01*
X0140214Y0156966D01*
X0140333Y0156827D01*
X0140455Y0156692D01*
X0140580Y0156559D01*
X0140708Y0156429D01*
X0140839Y0156303D01*
X0140973Y0156179D01*
X0141110Y0156059D01*
X0141250Y0155942D01*
X0141393Y0155829D01*
X0141539Y0155719D01*
X0141687Y0155613D01*
X0141838Y0155510D01*
X0141991Y0155411D01*
X0142146Y0155316D01*
X0142304Y0155225D01*
X0142464Y0155137D01*
X0142626Y0155053D01*
X0142789Y0154973D01*
X0142955Y0154897D01*
X0143123Y0154826D01*
X0143292Y0154758D01*
X0143463Y0154694D01*
X0143635Y0154635D01*
X0143809Y0154579D01*
X0143984Y0154528D01*
X0144160Y0154481D01*
X0144337Y0154439D01*
X0144516Y0154400D01*
X0144695Y0154366D01*
X0144875Y0154336D01*
X0145055Y0154311D01*
X0145236Y0154290D01*
X0145418Y0154274D01*
X0145600Y0154261D01*
X0145782Y0154254D01*
X0145964Y0154250D01*
X0145965Y0153351D01*
X0145964Y0153350D01*
X0145760Y0153354D01*
X0145556Y0153362D01*
X0145352Y0153376D01*
X0145148Y0153394D01*
X0144945Y0153418D01*
X0144743Y0153446D01*
X0144541Y0153479D01*
X0144341Y0153517D01*
X0144141Y0153560D01*
X0143942Y0153608D01*
X0143745Y0153660D01*
X0143549Y0153718D01*
X0143354Y0153780D01*
X0143161Y0153846D01*
X0142969Y0153918D01*
X0142780Y0153994D01*
X0142592Y0154074D01*
X0142406Y0154159D01*
X0142222Y0154249D01*
X0142041Y0154342D01*
X0141862Y0154441D01*
X0141685Y0154543D01*
X0141511Y0154650D01*
X0141339Y0154761D01*
X0141170Y0154876D01*
X0141004Y0154995D01*
X0140841Y0155118D01*
X0140681Y0155245D01*
X0140524Y0155376D01*
X0140370Y0155511D01*
X0140220Y0155649D01*
X0140073Y0155791D01*
X0139929Y0155936D01*
X0139789Y0156085D01*
X0139653Y0156237D01*
X0139520Y0156393D01*
X0139392Y0156551D01*
X0139267Y0156713D01*
X0139146Y0156878D01*
X0139029Y0157045D01*
X0138916Y0157216D01*
X0138807Y0157389D01*
X0138702Y0157564D01*
X0138784Y0157611D01*
X0138887Y0157437D01*
X0138995Y0157266D01*
X0139107Y0157098D01*
X0139222Y0156932D01*
X0139342Y0156769D01*
X0139466Y0156610D01*
X0139593Y0156453D01*
X0139724Y0156299D01*
X0139859Y0156149D01*
X0139997Y0156001D01*
X0140139Y0155858D01*
X0140285Y0155717D01*
X0140433Y0155581D01*
X0140585Y0155448D01*
X0140741Y0155318D01*
X0140899Y0155193D01*
X0141060Y0155071D01*
X0141224Y0154953D01*
X0141391Y0154839D01*
X0141561Y0154730D01*
X0141733Y0154624D01*
X0141908Y0154523D01*
X0142085Y0154425D01*
X0142264Y0154333D01*
X0142446Y0154244D01*
X0142630Y0154160D01*
X0142815Y0154080D01*
X0143003Y0154005D01*
X0143192Y0153935D01*
X0143383Y0153869D01*
X0143576Y0153808D01*
X0143770Y0153751D01*
X0143965Y0153699D01*
X0144161Y0153652D01*
X0144359Y0153610D01*
X0144557Y0153572D01*
X0144757Y0153539D01*
X0144957Y0153511D01*
X0145158Y0153488D01*
X0145359Y0153470D01*
X0145560Y0153456D01*
X0145762Y0153448D01*
X0145964Y0153444D01*
X0145964Y0153538D01*
X0145765Y0153542D01*
X0145565Y0153550D01*
X0145366Y0153563D01*
X0145167Y0153582D01*
X0144968Y0153604D01*
X0144771Y0153632D01*
X0144573Y0153665D01*
X0144377Y0153702D01*
X0144182Y0153744D01*
X0143988Y0153790D01*
X0143795Y0153842D01*
X0143603Y0153898D01*
X0143413Y0153958D01*
X0143224Y0154023D01*
X0143037Y0154093D01*
X0142851Y0154167D01*
X0142668Y0154246D01*
X0142486Y0154329D01*
X0142306Y0154417D01*
X0142129Y0154508D01*
X0141954Y0154604D01*
X0141781Y0154705D01*
X0141611Y0154809D01*
X0141443Y0154918D01*
X0141278Y0155030D01*
X0141116Y0155146D01*
X0140957Y0155267D01*
X0140800Y0155391D01*
X0140647Y0155519D01*
X0140496Y0155650D01*
X0140349Y0155786D01*
X0140206Y0155924D01*
X0140065Y0156066D01*
X0139928Y0156212D01*
X0139795Y0156361D01*
X0139665Y0156513D01*
X0139539Y0156668D01*
X0139417Y0156826D01*
X0139299Y0156987D01*
X0139185Y0157150D01*
X0139074Y0157317D01*
X0138968Y0157486D01*
X0138866Y0157657D01*
X0138947Y0157704D01*
X0139048Y0157534D01*
X0139153Y0157367D01*
X0139263Y0157203D01*
X0139376Y0157041D01*
X0139493Y0156882D01*
X0139613Y0156726D01*
X0139738Y0156572D01*
X0139866Y0156422D01*
X0139998Y0156275D01*
X0140133Y0156131D01*
X0140272Y0155991D01*
X0140414Y0155854D01*
X0140559Y0155720D01*
X0140708Y0155590D01*
X0140860Y0155464D01*
X0141014Y0155341D01*
X0141172Y0155222D01*
X0141332Y0155107D01*
X0141495Y0154996D01*
X0141661Y0154889D01*
X0141829Y0154785D01*
X0142000Y0154686D01*
X0142173Y0154591D01*
X0142349Y0154501D01*
X0142526Y0154414D01*
X0142706Y0154332D01*
X0142887Y0154254D01*
X0143070Y0154181D01*
X0143255Y0154112D01*
X0143442Y0154048D01*
X0143630Y0153988D01*
X0143820Y0153932D01*
X0144010Y0153882D01*
X0144202Y0153835D01*
X0144395Y0153794D01*
X0144589Y0153757D01*
X0144784Y0153725D01*
X0144980Y0153698D01*
X0145176Y0153675D01*
X0145373Y0153657D01*
X0145570Y0153644D01*
X0145767Y0153636D01*
X0145964Y0153632D01*
X0145964Y0153726D01*
X0145769Y0153730D01*
X0145574Y0153738D01*
X0145379Y0153751D01*
X0145185Y0153769D01*
X0144991Y0153791D01*
X0144798Y0153818D01*
X0144605Y0153850D01*
X0144414Y0153886D01*
X0144223Y0153927D01*
X0144033Y0153973D01*
X0143845Y0154023D01*
X0143657Y0154078D01*
X0143471Y0154137D01*
X0143287Y0154200D01*
X0143104Y0154269D01*
X0142923Y0154341D01*
X0142744Y0154418D01*
X0142566Y0154499D01*
X0142391Y0154585D01*
X0142217Y0154674D01*
X0142046Y0154768D01*
X0141878Y0154866D01*
X0141711Y0154968D01*
X0141547Y0155074D01*
X0141386Y0155184D01*
X0141228Y0155298D01*
X0141072Y0155415D01*
X0140919Y0155537D01*
X0140769Y0155662D01*
X0140622Y0155790D01*
X0140479Y0155922D01*
X0140338Y0156058D01*
X0140201Y0156197D01*
X0140067Y0156339D01*
X0139937Y0156484D01*
X0139810Y0156632D01*
X0139687Y0156784D01*
X0139568Y0156938D01*
X0139452Y0157095D01*
X0139341Y0157255D01*
X0139233Y0157418D01*
X0139129Y0157583D01*
X0139029Y0157751D01*
X0139110Y0157797D01*
X0139209Y0157632D01*
X0139312Y0157468D01*
X0139419Y0157308D01*
X0139529Y0157150D01*
X0139643Y0156994D01*
X0139761Y0156842D01*
X0139883Y0156692D01*
X0140008Y0156546D01*
X0140137Y0156402D01*
X0140269Y0156262D01*
X0140404Y0156124D01*
X0140543Y0155990D01*
X0140685Y0155860D01*
X0140830Y0155733D01*
X0140978Y0155609D01*
X0141129Y0155490D01*
X0141283Y0155373D01*
X0141440Y0155261D01*
X0141599Y0155152D01*
X0141761Y0155048D01*
X0141926Y0154947D01*
X0142092Y0154850D01*
X0142262Y0154757D01*
X0142433Y0154669D01*
X0142606Y0154584D01*
X0142782Y0154504D01*
X0142959Y0154428D01*
X0143138Y0154356D01*
X0143319Y0154289D01*
X0143501Y0154226D01*
X0143685Y0154168D01*
X0143870Y0154114D01*
X0144056Y0154064D01*
X0144244Y0154019D01*
X0144432Y0153978D01*
X0144621Y0153942D01*
X0144812Y0153911D01*
X0145003Y0153884D01*
X0145194Y0153862D01*
X0145386Y0153845D01*
X0145579Y0153832D01*
X0145771Y0153824D01*
X0145964Y0153820D01*
X0145964Y0153914D01*
X0145774Y0153918D01*
X0145583Y0153926D01*
X0145393Y0153938D01*
X0145203Y0153956D01*
X0145014Y0153978D01*
X0144826Y0154004D01*
X0144638Y0154035D01*
X0144450Y0154071D01*
X0144264Y0154111D01*
X0144079Y0154155D01*
X0143895Y0154204D01*
X0143712Y0154258D01*
X0143530Y0154315D01*
X0143350Y0154378D01*
X0143172Y0154444D01*
X0142995Y0154515D01*
X0142820Y0154590D01*
X0142646Y0154669D01*
X0142475Y0154753D01*
X0142306Y0154840D01*
X0142139Y0154932D01*
X0141974Y0155028D01*
X0141811Y0155127D01*
X0141651Y0155231D01*
X0141494Y0155338D01*
X0141339Y0155449D01*
X0141187Y0155564D01*
X0141038Y0155682D01*
X0140892Y0155804D01*
X0140748Y0155930D01*
X0140608Y0156059D01*
X0140471Y0156191D01*
X0140337Y0156327D01*
X0140206Y0156465D01*
X0140079Y0156607D01*
X0139955Y0156752D01*
X0139835Y0156900D01*
X0139719Y0157051D01*
X0139606Y0157204D01*
X0139497Y0157360D01*
X0139391Y0157519D01*
X0139290Y0157680D01*
X0139192Y0157844D01*
X0139274Y0157891D01*
X0139370Y0157729D01*
X0139470Y0157570D01*
X0139574Y0157413D01*
X0139682Y0157258D01*
X0139794Y0157107D01*
X0139909Y0156958D01*
X0140028Y0156812D01*
X0140150Y0156669D01*
X0140276Y0156529D01*
X0140405Y0156392D01*
X0140537Y0156258D01*
X0140673Y0156127D01*
X0140811Y0156000D01*
X0140953Y0155876D01*
X0141097Y0155755D01*
X0141245Y0155638D01*
X0141395Y0155525D01*
X0141548Y0155415D01*
X0141704Y0155309D01*
X0141862Y0155207D01*
X0142022Y0155108D01*
X0142185Y0155014D01*
X0142350Y0154923D01*
X0142517Y0154837D01*
X0142686Y0154754D01*
X0142857Y0154676D01*
X0143030Y0154602D01*
X0143205Y0154532D01*
X0143382Y0154466D01*
X0143560Y0154405D01*
X0143739Y0154348D01*
X0143920Y0154295D01*
X0144102Y0154246D01*
X0144285Y0154202D01*
X0144469Y0154163D01*
X0144654Y0154128D01*
X0144839Y0154097D01*
X0145026Y0154071D01*
X0145213Y0154049D01*
X0145400Y0154032D01*
X0145588Y0154020D01*
X0145776Y0154012D01*
X0145964Y0154008D01*
X0145964Y0154102D01*
X0145778Y0154106D01*
X0145593Y0154114D01*
X0145407Y0154126D01*
X0145222Y0154143D01*
X0145037Y0154164D01*
X0144853Y0154190D01*
X0144670Y0154220D01*
X0144487Y0154255D01*
X0144305Y0154294D01*
X0144124Y0154338D01*
X0143945Y0154385D01*
X0143766Y0154438D01*
X0143589Y0154494D01*
X0143413Y0154555D01*
X0143239Y0154620D01*
X0143066Y0154689D01*
X0142895Y0154762D01*
X0142726Y0154839D01*
X0142559Y0154921D01*
X0142394Y0155006D01*
X0142231Y0155096D01*
X0142070Y0155189D01*
X0141912Y0155286D01*
X0141756Y0155387D01*
X0141602Y0155492D01*
X0141451Y0155600D01*
X0141302Y0155712D01*
X0141157Y0155828D01*
X0141014Y0155947D01*
X0140874Y0156069D01*
X0140737Y0156195D01*
X0140603Y0156324D01*
X0140473Y0156457D01*
X0140345Y0156592D01*
X0140221Y0156730D01*
X0140100Y0156872D01*
X0139983Y0157016D01*
X0139869Y0157163D01*
X0139759Y0157313D01*
X0139652Y0157465D01*
X0139550Y0157620D01*
X0139451Y0157778D01*
X0139355Y0157937D01*
X0139437Y0157984D01*
X0139531Y0157826D01*
X0139629Y0157671D01*
X0139730Y0157518D01*
X0139836Y0157367D01*
X0139945Y0157219D01*
X0140057Y0157074D01*
X0140173Y0156932D01*
X0140292Y0156792D01*
X0140415Y0156655D01*
X0140541Y0156522D01*
X0140670Y0156391D01*
X0140802Y0156263D01*
X0140937Y0156139D01*
X0141075Y0156018D01*
X0141216Y0155901D01*
X0141360Y0155787D01*
X0141507Y0155676D01*
X0141656Y0155569D01*
X0141808Y0155465D01*
X0141962Y0155366D01*
X0142118Y0155270D01*
X0142277Y0155178D01*
X0142438Y0155089D01*
X0142601Y0155005D01*
X0142766Y0154924D01*
X0142933Y0154848D01*
X0143102Y0154776D01*
X0143273Y0154707D01*
X0143445Y0154643D01*
X0143618Y0154583D01*
X0143793Y0154527D01*
X0143970Y0154476D01*
X0144147Y0154429D01*
X0144326Y0154386D01*
X0144505Y0154347D01*
X0144686Y0154313D01*
X0144867Y0154283D01*
X0145049Y0154258D01*
X0145231Y0154236D01*
X0145414Y0154220D01*
X0145597Y0154207D01*
X0145781Y0154200D01*
X0145964Y0154196D01*
X0146063Y0153351D02*
X0146063Y0154251D01*
X0146064Y0154250D02*
X0146248Y0154254D01*
X0146433Y0154262D01*
X0146617Y0154274D01*
X0146800Y0154291D01*
X0146984Y0154313D01*
X0147166Y0154338D01*
X0147348Y0154369D01*
X0147529Y0154404D01*
X0147710Y0154443D01*
X0147889Y0154487D01*
X0148067Y0154535D01*
X0148244Y0154587D01*
X0148420Y0154644D01*
X0148594Y0154704D01*
X0148766Y0154770D01*
X0148937Y0154839D01*
X0149107Y0154912D01*
X0149274Y0154990D01*
X0149439Y0155072D01*
X0149603Y0155157D01*
X0149764Y0155247D01*
X0149923Y0155341D01*
X0150080Y0155438D01*
X0150234Y0155539D01*
X0150386Y0155644D01*
X0150535Y0155753D01*
X0150681Y0155865D01*
X0150825Y0155981D01*
X0150965Y0156100D01*
X0151103Y0156223D01*
X0151238Y0156349D01*
X0151370Y0156478D01*
X0151498Y0156611D01*
X0151623Y0156746D01*
X0151745Y0156885D01*
X0152432Y0156304D01*
X0152296Y0156148D01*
X0152155Y0155996D01*
X0152011Y0155847D01*
X0151864Y0155702D01*
X0151713Y0155561D01*
X0151559Y0155424D01*
X0151401Y0155290D01*
X0151240Y0155160D01*
X0151076Y0155034D01*
X0150909Y0154912D01*
X0150739Y0154794D01*
X0150566Y0154681D01*
X0150390Y0154572D01*
X0150212Y0154467D01*
X0150031Y0154366D01*
X0149848Y0154270D01*
X0149663Y0154178D01*
X0149475Y0154091D01*
X0149285Y0154009D01*
X0149094Y0153931D01*
X0148900Y0153858D01*
X0148705Y0153790D01*
X0148508Y0153726D01*
X0148310Y0153668D01*
X0148110Y0153614D01*
X0147909Y0153565D01*
X0147707Y0153521D01*
X0147504Y0153482D01*
X0147300Y0153448D01*
X0147095Y0153419D01*
X0146890Y0153395D01*
X0146684Y0153377D01*
X0146477Y0153363D01*
X0146271Y0153354D01*
X0146064Y0153350D01*
X0146064Y0153444D01*
X0146268Y0153448D01*
X0146473Y0153457D01*
X0146677Y0153470D01*
X0146880Y0153489D01*
X0147083Y0153513D01*
X0147286Y0153541D01*
X0147488Y0153575D01*
X0147688Y0153613D01*
X0147888Y0153657D01*
X0148087Y0153705D01*
X0148284Y0153758D01*
X0148481Y0153816D01*
X0148675Y0153879D01*
X0148868Y0153947D01*
X0149060Y0154019D01*
X0149249Y0154096D01*
X0149437Y0154177D01*
X0149622Y0154263D01*
X0149805Y0154354D01*
X0149987Y0154449D01*
X0150165Y0154548D01*
X0150341Y0154652D01*
X0150515Y0154760D01*
X0150686Y0154872D01*
X0150854Y0154989D01*
X0151019Y0155109D01*
X0151182Y0155234D01*
X0151341Y0155362D01*
X0151497Y0155494D01*
X0151649Y0155630D01*
X0151799Y0155770D01*
X0151944Y0155913D01*
X0152087Y0156060D01*
X0152225Y0156211D01*
X0152360Y0156364D01*
X0152289Y0156425D01*
X0152155Y0156273D01*
X0152018Y0156124D01*
X0151877Y0155979D01*
X0151733Y0155838D01*
X0151586Y0155699D01*
X0151435Y0155565D01*
X0151281Y0155434D01*
X0151123Y0155307D01*
X0150963Y0155184D01*
X0150799Y0155065D01*
X0150633Y0154950D01*
X0150464Y0154839D01*
X0150293Y0154732D01*
X0150118Y0154630D01*
X0149942Y0154531D01*
X0149763Y0154437D01*
X0149581Y0154348D01*
X0149398Y0154263D01*
X0149213Y0154182D01*
X0149025Y0154106D01*
X0148836Y0154035D01*
X0148645Y0153968D01*
X0148453Y0153906D01*
X0148259Y0153849D01*
X0148064Y0153796D01*
X0147867Y0153749D01*
X0147670Y0153706D01*
X0147471Y0153668D01*
X0147272Y0153634D01*
X0147072Y0153606D01*
X0146871Y0153583D01*
X0146670Y0153564D01*
X0146468Y0153550D01*
X0146266Y0153542D01*
X0146064Y0153538D01*
X0146064Y0153632D01*
X0146264Y0153636D01*
X0146463Y0153644D01*
X0146663Y0153658D01*
X0146862Y0153676D01*
X0147060Y0153699D01*
X0147258Y0153727D01*
X0147455Y0153760D01*
X0147651Y0153798D01*
X0147847Y0153840D01*
X0148041Y0153887D01*
X0148234Y0153939D01*
X0148425Y0153996D01*
X0148616Y0154057D01*
X0148804Y0154123D01*
X0148991Y0154194D01*
X0149176Y0154269D01*
X0149360Y0154349D01*
X0149541Y0154433D01*
X0149720Y0154521D01*
X0149897Y0154614D01*
X0150072Y0154711D01*
X0150244Y0154813D01*
X0150413Y0154918D01*
X0150581Y0155028D01*
X0150745Y0155142D01*
X0150906Y0155259D01*
X0151065Y0155381D01*
X0151220Y0155506D01*
X0151373Y0155636D01*
X0151522Y0155769D01*
X0151668Y0155905D01*
X0151810Y0156045D01*
X0151949Y0156189D01*
X0152085Y0156336D01*
X0152217Y0156486D01*
X0152145Y0156546D01*
X0152015Y0156398D01*
X0151881Y0156253D01*
X0151743Y0156111D01*
X0151602Y0155973D01*
X0151458Y0155838D01*
X0151311Y0155706D01*
X0151160Y0155579D01*
X0151006Y0155455D01*
X0150850Y0155334D01*
X0150690Y0155218D01*
X0150528Y0155106D01*
X0150363Y0154997D01*
X0150195Y0154893D01*
X0150025Y0154793D01*
X0149852Y0154697D01*
X0149677Y0154605D01*
X0149500Y0154517D01*
X0149321Y0154434D01*
X0149140Y0154356D01*
X0148957Y0154281D01*
X0148772Y0154212D01*
X0148586Y0154147D01*
X0148398Y0154086D01*
X0148208Y0154030D01*
X0148018Y0153979D01*
X0147826Y0153932D01*
X0147633Y0153890D01*
X0147439Y0153853D01*
X0147244Y0153820D01*
X0147048Y0153793D01*
X0146852Y0153770D01*
X0146656Y0153752D01*
X0146459Y0153738D01*
X0146261Y0153730D01*
X0146064Y0153726D01*
X0146064Y0153820D01*
X0146259Y0153824D01*
X0146454Y0153832D01*
X0146649Y0153845D01*
X0146843Y0153863D01*
X0147037Y0153886D01*
X0147230Y0153913D01*
X0147423Y0153945D01*
X0147614Y0153982D01*
X0147805Y0154024D01*
X0147995Y0154070D01*
X0148183Y0154120D01*
X0148370Y0154176D01*
X0148556Y0154236D01*
X0148740Y0154300D01*
X0148923Y0154369D01*
X0149104Y0154442D01*
X0149283Y0154520D01*
X0149460Y0154602D01*
X0149635Y0154689D01*
X0149807Y0154779D01*
X0149978Y0154874D01*
X0150146Y0154973D01*
X0150312Y0155076D01*
X0150475Y0155183D01*
X0150636Y0155294D01*
X0150793Y0155409D01*
X0150948Y0155528D01*
X0151100Y0155651D01*
X0151249Y0155777D01*
X0151395Y0155907D01*
X0151537Y0156040D01*
X0151676Y0156177D01*
X0151812Y0156317D01*
X0151944Y0156461D01*
X0152073Y0156607D01*
X0152001Y0156668D01*
X0151874Y0156523D01*
X0151743Y0156381D01*
X0151609Y0156243D01*
X0151472Y0156108D01*
X0151331Y0155976D01*
X0151187Y0155848D01*
X0151040Y0155723D01*
X0150890Y0155602D01*
X0150737Y0155485D01*
X0150581Y0155371D01*
X0150422Y0155261D01*
X0150261Y0155155D01*
X0150097Y0155054D01*
X0149931Y0154956D01*
X0149763Y0154862D01*
X0149592Y0154772D01*
X0149419Y0154687D01*
X0149244Y0154606D01*
X0149067Y0154529D01*
X0148889Y0154457D01*
X0148708Y0154388D01*
X0148526Y0154325D01*
X0148343Y0154266D01*
X0148158Y0154211D01*
X0147972Y0154161D01*
X0147784Y0154115D01*
X0147596Y0154074D01*
X0147406Y0154038D01*
X0147216Y0154006D01*
X0147025Y0153979D01*
X0146834Y0153957D01*
X0146642Y0153939D01*
X0146449Y0153926D01*
X0146257Y0153918D01*
X0146064Y0153914D01*
X0146064Y0154008D01*
X0146254Y0154012D01*
X0146445Y0154020D01*
X0146635Y0154033D01*
X0146824Y0154050D01*
X0147014Y0154072D01*
X0147202Y0154099D01*
X0147390Y0154130D01*
X0147577Y0154166D01*
X0147763Y0154207D01*
X0147948Y0154252D01*
X0148132Y0154301D01*
X0148315Y0154356D01*
X0148496Y0154414D01*
X0148676Y0154477D01*
X0148854Y0154544D01*
X0149031Y0154616D01*
X0149206Y0154692D01*
X0149378Y0154772D01*
X0149549Y0154856D01*
X0149718Y0154945D01*
X0149884Y0155037D01*
X0150049Y0155134D01*
X0150210Y0155234D01*
X0150370Y0155339D01*
X0150526Y0155447D01*
X0150680Y0155560D01*
X0150831Y0155676D01*
X0150980Y0155795D01*
X0151125Y0155918D01*
X0151267Y0156045D01*
X0151406Y0156175D01*
X0151542Y0156309D01*
X0151675Y0156445D01*
X0151804Y0156585D01*
X0151930Y0156729D01*
X0151858Y0156789D01*
X0151734Y0156648D01*
X0151606Y0156510D01*
X0151475Y0156375D01*
X0151341Y0156243D01*
X0151204Y0156114D01*
X0151063Y0155989D01*
X0150919Y0155867D01*
X0150773Y0155749D01*
X0150624Y0155635D01*
X0150472Y0155524D01*
X0150317Y0155417D01*
X0150160Y0155314D01*
X0150000Y0155214D01*
X0149838Y0155119D01*
X0149673Y0155027D01*
X0149507Y0154940D01*
X0149338Y0154857D01*
X0149167Y0154777D01*
X0148995Y0154702D01*
X0148820Y0154632D01*
X0148644Y0154565D01*
X0148467Y0154503D01*
X0148287Y0154445D01*
X0148107Y0154392D01*
X0147925Y0154343D01*
X0147743Y0154299D01*
X0147559Y0154259D01*
X0147374Y0154223D01*
X0147188Y0154192D01*
X0147002Y0154166D01*
X0146815Y0154144D01*
X0146628Y0154127D01*
X0146440Y0154114D01*
X0146252Y0154106D01*
X0146064Y0154102D01*
X0146064Y0154196D01*
X0146250Y0154200D01*
X0146435Y0154208D01*
X0146621Y0154220D01*
X0146806Y0154237D01*
X0146990Y0154259D01*
X0147174Y0154285D01*
X0147358Y0154316D01*
X0147540Y0154351D01*
X0147722Y0154390D01*
X0147902Y0154434D01*
X0148082Y0154483D01*
X0148260Y0154535D01*
X0148437Y0154592D01*
X0148612Y0154654D01*
X0148786Y0154719D01*
X0148958Y0154789D01*
X0149129Y0154863D01*
X0149297Y0154941D01*
X0149464Y0155024D01*
X0149628Y0155110D01*
X0149791Y0155200D01*
X0149951Y0155295D01*
X0150109Y0155393D01*
X0150264Y0155495D01*
X0150417Y0155600D01*
X0150567Y0155710D01*
X0150715Y0155823D01*
X0150859Y0155940D01*
X0151001Y0156060D01*
X0151140Y0156183D01*
X0151276Y0156310D01*
X0151408Y0156440D01*
X0151537Y0156574D01*
X0151664Y0156710D01*
X0151786Y0156850D01*
X0152473Y0167248D02*
X0151781Y0166671D01*
X0151782Y0166672D02*
X0151663Y0166809D01*
X0151542Y0166943D01*
X0151417Y0167074D01*
X0151289Y0167202D01*
X0151158Y0167326D01*
X0151024Y0167448D01*
X0150887Y0167567D01*
X0150748Y0167682D01*
X0150605Y0167793D01*
X0150460Y0167902D01*
X0150313Y0168007D01*
X0150163Y0168108D01*
X0150011Y0168205D01*
X0149856Y0168299D01*
X0149699Y0168390D01*
X0149540Y0168476D01*
X0149379Y0168559D01*
X0149216Y0168637D01*
X0149051Y0168712D01*
X0148885Y0168783D01*
X0148717Y0168850D01*
X0148547Y0168912D01*
X0148376Y0168971D01*
X0148203Y0169026D01*
X0148030Y0169076D01*
X0147855Y0169122D01*
X0147679Y0169164D01*
X0147502Y0169202D01*
X0147324Y0169235D01*
X0147145Y0169265D01*
X0146966Y0169290D01*
X0146786Y0169310D01*
X0146606Y0169327D01*
X0146426Y0169339D01*
X0146245Y0169346D01*
X0146064Y0169350D01*
X0146063Y0170249D01*
X0146064Y0170250D01*
X0146267Y0170246D01*
X0146469Y0170238D01*
X0146672Y0170224D01*
X0146874Y0170206D01*
X0147075Y0170183D01*
X0147276Y0170155D01*
X0147476Y0170122D01*
X0147676Y0170085D01*
X0147874Y0170043D01*
X0148072Y0169996D01*
X0148268Y0169944D01*
X0148462Y0169887D01*
X0148656Y0169826D01*
X0148848Y0169761D01*
X0149038Y0169690D01*
X0149227Y0169615D01*
X0149413Y0169536D01*
X0149598Y0169452D01*
X0149781Y0169364D01*
X0149961Y0169271D01*
X0150139Y0169175D01*
X0150315Y0169073D01*
X0150488Y0168968D01*
X0150659Y0168859D01*
X0150827Y0168745D01*
X0150993Y0168628D01*
X0151155Y0168506D01*
X0151315Y0168381D01*
X0151471Y0168252D01*
X0151624Y0168119D01*
X0151774Y0167982D01*
X0151921Y0167842D01*
X0152064Y0167699D01*
X0152204Y0167552D01*
X0152341Y0167402D01*
X0152473Y0167248D01*
X0152401Y0167188D01*
X0152270Y0167340D01*
X0152135Y0167488D01*
X0151997Y0167633D01*
X0151855Y0167775D01*
X0151710Y0167914D01*
X0151562Y0168049D01*
X0151410Y0168180D01*
X0151255Y0168308D01*
X0151098Y0168432D01*
X0150937Y0168552D01*
X0150774Y0168668D01*
X0150607Y0168780D01*
X0150439Y0168888D01*
X0150267Y0168993D01*
X0150093Y0169093D01*
X0149917Y0169188D01*
X0149739Y0169280D01*
X0149558Y0169367D01*
X0149375Y0169450D01*
X0149191Y0169529D01*
X0149005Y0169603D01*
X0148816Y0169672D01*
X0148627Y0169737D01*
X0148435Y0169797D01*
X0148243Y0169853D01*
X0148049Y0169904D01*
X0147854Y0169951D01*
X0147658Y0169993D01*
X0147461Y0170030D01*
X0147263Y0170062D01*
X0147064Y0170090D01*
X0146865Y0170113D01*
X0146665Y0170131D01*
X0146465Y0170144D01*
X0146264Y0170152D01*
X0146064Y0170156D01*
X0146064Y0170062D01*
X0146262Y0170058D01*
X0146460Y0170050D01*
X0146658Y0170037D01*
X0146856Y0170019D01*
X0147053Y0169996D01*
X0147249Y0169969D01*
X0147445Y0169937D01*
X0147639Y0169901D01*
X0147833Y0169859D01*
X0148026Y0169813D01*
X0148218Y0169763D01*
X0148408Y0169707D01*
X0148597Y0169648D01*
X0148785Y0169583D01*
X0148971Y0169515D01*
X0149155Y0169442D01*
X0149338Y0169364D01*
X0149518Y0169282D01*
X0149697Y0169196D01*
X0149873Y0169105D01*
X0150047Y0169011D01*
X0150219Y0168912D01*
X0150389Y0168809D01*
X0150556Y0168702D01*
X0150720Y0168591D01*
X0150881Y0168476D01*
X0151040Y0168357D01*
X0151196Y0168235D01*
X0151349Y0168109D01*
X0151499Y0167979D01*
X0151646Y0167845D01*
X0151789Y0167708D01*
X0151929Y0167568D01*
X0152066Y0167425D01*
X0152199Y0167278D01*
X0152329Y0167128D01*
X0152257Y0167068D01*
X0152128Y0167216D01*
X0151997Y0167361D01*
X0151862Y0167503D01*
X0151723Y0167641D01*
X0151581Y0167777D01*
X0151436Y0167909D01*
X0151288Y0168037D01*
X0151137Y0168162D01*
X0150983Y0168283D01*
X0150826Y0168400D01*
X0150666Y0168514D01*
X0150504Y0168623D01*
X0150339Y0168729D01*
X0150171Y0168831D01*
X0150001Y0168929D01*
X0149829Y0169022D01*
X0149655Y0169112D01*
X0149478Y0169197D01*
X0149300Y0169278D01*
X0149120Y0169355D01*
X0148937Y0169427D01*
X0148754Y0169495D01*
X0148568Y0169558D01*
X0148381Y0169617D01*
X0148193Y0169672D01*
X0148004Y0169722D01*
X0147813Y0169767D01*
X0147621Y0169808D01*
X0147429Y0169845D01*
X0147235Y0169876D01*
X0147041Y0169903D01*
X0146846Y0169925D01*
X0146651Y0169943D01*
X0146456Y0169956D01*
X0146260Y0169964D01*
X0146064Y0169968D01*
X0146064Y0169874D01*
X0146258Y0169870D01*
X0146451Y0169862D01*
X0146644Y0169849D01*
X0146837Y0169832D01*
X0147030Y0169810D01*
X0147222Y0169783D01*
X0147413Y0169752D01*
X0147603Y0169716D01*
X0147793Y0169676D01*
X0147981Y0169631D01*
X0148168Y0169581D01*
X0148354Y0169527D01*
X0148539Y0169469D01*
X0148722Y0169406D01*
X0148904Y0169339D01*
X0149084Y0169268D01*
X0149262Y0169192D01*
X0149439Y0169112D01*
X0149613Y0169028D01*
X0149785Y0168939D01*
X0149955Y0168847D01*
X0150123Y0168750D01*
X0150289Y0168649D01*
X0150452Y0168545D01*
X0150612Y0168437D01*
X0150770Y0168324D01*
X0150925Y0168208D01*
X0151078Y0168089D01*
X0151227Y0167965D01*
X0151374Y0167839D01*
X0151517Y0167708D01*
X0151657Y0167575D01*
X0151794Y0167438D01*
X0151927Y0167297D01*
X0152058Y0167154D01*
X0152184Y0167007D01*
X0152112Y0166947D01*
X0151987Y0167092D01*
X0151858Y0167234D01*
X0151726Y0167372D01*
X0151591Y0167508D01*
X0151452Y0167640D01*
X0151311Y0167769D01*
X0151166Y0167894D01*
X0151019Y0168016D01*
X0150868Y0168134D01*
X0150715Y0168249D01*
X0150559Y0168359D01*
X0150400Y0168467D01*
X0150239Y0168570D01*
X0150075Y0168669D01*
X0149909Y0168765D01*
X0149741Y0168856D01*
X0149571Y0168943D01*
X0149399Y0169027D01*
X0149224Y0169106D01*
X0149048Y0169181D01*
X0148870Y0169251D01*
X0148691Y0169318D01*
X0148510Y0169380D01*
X0148327Y0169437D01*
X0148143Y0169491D01*
X0147958Y0169540D01*
X0147772Y0169584D01*
X0147585Y0169624D01*
X0147397Y0169659D01*
X0147208Y0169690D01*
X0147018Y0169717D01*
X0146828Y0169738D01*
X0146638Y0169756D01*
X0146447Y0169768D01*
X0146255Y0169776D01*
X0146064Y0169780D01*
X0146064Y0169686D01*
X0146253Y0169682D01*
X0146442Y0169674D01*
X0146631Y0169662D01*
X0146819Y0169645D01*
X0147007Y0169623D01*
X0147194Y0169597D01*
X0147381Y0169567D01*
X0147567Y0169532D01*
X0147752Y0169492D01*
X0147936Y0169448D01*
X0148118Y0169400D01*
X0148300Y0169347D01*
X0148480Y0169290D01*
X0148659Y0169229D01*
X0148837Y0169163D01*
X0149013Y0169094D01*
X0149187Y0169020D01*
X0149359Y0168942D01*
X0149529Y0168859D01*
X0149697Y0168773D01*
X0149863Y0168683D01*
X0150027Y0168588D01*
X0150189Y0168490D01*
X0150348Y0168388D01*
X0150505Y0168282D01*
X0150659Y0168173D01*
X0150811Y0168059D01*
X0150959Y0167943D01*
X0151105Y0167822D01*
X0151248Y0167699D01*
X0151388Y0167571D01*
X0151525Y0167441D01*
X0151659Y0167307D01*
X0151789Y0167170D01*
X0151916Y0167030D01*
X0152040Y0166887D01*
X0151968Y0166827D01*
X0151845Y0166968D01*
X0151720Y0167106D01*
X0151591Y0167242D01*
X0151459Y0167374D01*
X0151324Y0167503D01*
X0151185Y0167628D01*
X0151044Y0167751D01*
X0150900Y0167870D01*
X0150753Y0167985D01*
X0150604Y0168097D01*
X0150451Y0168205D01*
X0150296Y0168310D01*
X0150139Y0168410D01*
X0149979Y0168507D01*
X0149818Y0168601D01*
X0149653Y0168690D01*
X0149487Y0168775D01*
X0149319Y0168856D01*
X0149149Y0168934D01*
X0148977Y0169007D01*
X0148803Y0169076D01*
X0148628Y0169140D01*
X0148451Y0169201D01*
X0148273Y0169257D01*
X0148094Y0169309D01*
X0147913Y0169357D01*
X0147731Y0169400D01*
X0147549Y0169439D01*
X0147365Y0169474D01*
X0147181Y0169504D01*
X0146996Y0169530D01*
X0146810Y0169551D01*
X0146624Y0169568D01*
X0146437Y0169580D01*
X0146251Y0169588D01*
X0146064Y0169592D01*
X0146064Y0169498D01*
X0146248Y0169494D01*
X0146433Y0169487D01*
X0146617Y0169474D01*
X0146801Y0169458D01*
X0146984Y0169437D01*
X0147167Y0169411D01*
X0147349Y0169381D01*
X0147530Y0169347D01*
X0147711Y0169309D01*
X0147890Y0169266D01*
X0148069Y0169219D01*
X0148246Y0169167D01*
X0148422Y0169112D01*
X0148597Y0169052D01*
X0148770Y0168988D01*
X0148941Y0168920D01*
X0149111Y0168848D01*
X0149279Y0168771D01*
X0149445Y0168691D01*
X0149609Y0168607D01*
X0149772Y0168519D01*
X0149932Y0168427D01*
X0150089Y0168331D01*
X0150245Y0168231D01*
X0150398Y0168128D01*
X0150548Y0168021D01*
X0150696Y0167911D01*
X0150841Y0167797D01*
X0150983Y0167679D01*
X0151123Y0167558D01*
X0151259Y0167434D01*
X0151393Y0167307D01*
X0151523Y0167176D01*
X0151651Y0167043D01*
X0151775Y0166906D01*
X0151895Y0166767D01*
X0151823Y0166706D01*
X0151704Y0166844D01*
X0151581Y0166979D01*
X0151456Y0167111D01*
X0151327Y0167240D01*
X0151195Y0167366D01*
X0151060Y0167488D01*
X0150922Y0167608D01*
X0150782Y0167724D01*
X0150638Y0167836D01*
X0150492Y0167945D01*
X0150344Y0168051D01*
X0150193Y0168153D01*
X0150039Y0168251D01*
X0149884Y0168346D01*
X0149726Y0168437D01*
X0149565Y0168524D01*
X0149403Y0168607D01*
X0149239Y0168686D01*
X0149073Y0168761D01*
X0148905Y0168833D01*
X0148736Y0168900D01*
X0148565Y0168963D01*
X0148393Y0169022D01*
X0148219Y0169077D01*
X0148044Y0169128D01*
X0147868Y0169175D01*
X0147690Y0169217D01*
X0147512Y0169255D01*
X0147333Y0169289D01*
X0147153Y0169318D01*
X0146973Y0169343D01*
X0146792Y0169364D01*
X0146610Y0169381D01*
X0146428Y0169393D01*
X0146246Y0169400D01*
X0146064Y0169404D01*
X0115964Y0170249D02*
X0115964Y0169349D01*
X0115964Y0169350D02*
X0115781Y0169346D01*
X0115598Y0169339D01*
X0115415Y0169326D01*
X0115232Y0169309D01*
X0115050Y0169288D01*
X0114869Y0169263D01*
X0114688Y0169233D01*
X0114508Y0169198D01*
X0114329Y0169160D01*
X0114151Y0169117D01*
X0113974Y0169069D01*
X0113799Y0169018D01*
X0113624Y0168962D01*
X0113451Y0168902D01*
X0113280Y0168837D01*
X0113110Y0168769D01*
X0112941Y0168697D01*
X0112775Y0168620D01*
X0112611Y0168539D01*
X0112448Y0168455D01*
X0112288Y0168366D01*
X0112129Y0168274D01*
X0111973Y0168178D01*
X0111820Y0168078D01*
X0111669Y0167974D01*
X0111520Y0167867D01*
X0111374Y0167756D01*
X0111231Y0167642D01*
X0111091Y0167524D01*
X0110954Y0167403D01*
X0110819Y0167279D01*
X0110688Y0167151D01*
X0110559Y0167020D01*
X0110434Y0166886D01*
X0110313Y0166750D01*
X0110194Y0166610D01*
X0110079Y0166467D01*
X0109968Y0166322D01*
X0109860Y0166174D01*
X0109756Y0166023D01*
X0109655Y0165870D01*
X0109558Y0165715D01*
X0109465Y0165557D01*
X0109376Y0165397D01*
X0108582Y0165820D01*
X0108682Y0166000D01*
X0108786Y0166177D01*
X0108894Y0166351D01*
X0109007Y0166523D01*
X0109124Y0166691D01*
X0109245Y0166857D01*
X0109369Y0167020D01*
X0109498Y0167180D01*
X0109631Y0167337D01*
X0109767Y0167490D01*
X0109907Y0167640D01*
X0110051Y0167787D01*
X0110198Y0167930D01*
X0110349Y0168070D01*
X0110503Y0168205D01*
X0110660Y0168337D01*
X0110820Y0168465D01*
X0110984Y0168590D01*
X0111150Y0168710D01*
X0111320Y0168826D01*
X0111492Y0168938D01*
X0111666Y0169046D01*
X0111844Y0169149D01*
X0112023Y0169248D01*
X0112206Y0169343D01*
X0112390Y0169433D01*
X0112576Y0169519D01*
X0112765Y0169600D01*
X0112955Y0169677D01*
X0113148Y0169749D01*
X0113342Y0169816D01*
X0113537Y0169879D01*
X0113734Y0169937D01*
X0113932Y0169990D01*
X0114132Y0170038D01*
X0114333Y0170081D01*
X0114534Y0170119D01*
X0114737Y0170153D01*
X0114940Y0170181D01*
X0115144Y0170205D01*
X0115349Y0170224D01*
X0115553Y0170237D01*
X0115758Y0170246D01*
X0115964Y0170250D01*
X0115964Y0170156D01*
X0115761Y0170152D01*
X0115558Y0170144D01*
X0115355Y0170130D01*
X0115153Y0170112D01*
X0114952Y0170088D01*
X0114751Y0170060D01*
X0114550Y0170027D01*
X0114351Y0169989D01*
X0114153Y0169946D01*
X0113955Y0169898D01*
X0113759Y0169846D01*
X0113564Y0169789D01*
X0113371Y0169727D01*
X0113179Y0169660D01*
X0112989Y0169589D01*
X0112801Y0169514D01*
X0112615Y0169433D01*
X0112430Y0169348D01*
X0112248Y0169259D01*
X0112068Y0169165D01*
X0111890Y0169067D01*
X0111715Y0168965D01*
X0111542Y0168859D01*
X0111372Y0168748D01*
X0111204Y0168633D01*
X0111040Y0168514D01*
X0110878Y0168391D01*
X0110720Y0168265D01*
X0110564Y0168134D01*
X0110412Y0168000D01*
X0110263Y0167862D01*
X0110117Y0167721D01*
X0109975Y0167576D01*
X0109837Y0167427D01*
X0109702Y0167276D01*
X0109571Y0167121D01*
X0109444Y0166963D01*
X0109320Y0166801D01*
X0109201Y0166637D01*
X0109085Y0166470D01*
X0108974Y0166301D01*
X0108866Y0166128D01*
X0108763Y0165953D01*
X0108665Y0165776D01*
X0108748Y0165732D01*
X0108845Y0165907D01*
X0108947Y0166080D01*
X0109053Y0166250D01*
X0109163Y0166418D01*
X0109277Y0166583D01*
X0109396Y0166745D01*
X0109518Y0166905D01*
X0109644Y0167061D01*
X0109773Y0167214D01*
X0109907Y0167364D01*
X0110043Y0167511D01*
X0110184Y0167654D01*
X0110328Y0167794D01*
X0110475Y0167930D01*
X0110626Y0168063D01*
X0110779Y0168192D01*
X0110936Y0168317D01*
X0111096Y0168439D01*
X0111259Y0168556D01*
X0111424Y0168670D01*
X0111592Y0168779D01*
X0111763Y0168885D01*
X0111936Y0168986D01*
X0112112Y0169083D01*
X0112290Y0169175D01*
X0112470Y0169263D01*
X0112653Y0169347D01*
X0112837Y0169427D01*
X0113023Y0169502D01*
X0113211Y0169572D01*
X0113401Y0169638D01*
X0113592Y0169699D01*
X0113784Y0169755D01*
X0113978Y0169807D01*
X0114173Y0169854D01*
X0114369Y0169897D01*
X0114567Y0169934D01*
X0114765Y0169967D01*
X0114963Y0169995D01*
X0115163Y0170018D01*
X0115362Y0170036D01*
X0115563Y0170050D01*
X0115763Y0170058D01*
X0115964Y0170062D01*
X0115964Y0169968D01*
X0115765Y0169964D01*
X0115567Y0169956D01*
X0115369Y0169943D01*
X0115172Y0169924D01*
X0114975Y0169902D01*
X0114778Y0169874D01*
X0114583Y0169842D01*
X0114388Y0169804D01*
X0114194Y0169763D01*
X0114001Y0169716D01*
X0113809Y0169665D01*
X0113619Y0169609D01*
X0113430Y0169549D01*
X0113243Y0169484D01*
X0113057Y0169414D01*
X0112873Y0169340D01*
X0112691Y0169261D01*
X0112511Y0169178D01*
X0112332Y0169091D01*
X0112156Y0169000D01*
X0111983Y0168904D01*
X0111811Y0168804D01*
X0111643Y0168700D01*
X0111476Y0168592D01*
X0111313Y0168479D01*
X0111152Y0168363D01*
X0110994Y0168243D01*
X0110839Y0168119D01*
X0110687Y0167992D01*
X0110538Y0167861D01*
X0110393Y0167726D01*
X0110250Y0167588D01*
X0110112Y0167446D01*
X0109976Y0167301D01*
X0109844Y0167153D01*
X0109716Y0167001D01*
X0109592Y0166847D01*
X0109471Y0166690D01*
X0109354Y0166529D01*
X0109241Y0166366D01*
X0109133Y0166200D01*
X0109028Y0166032D01*
X0108927Y0165861D01*
X0108831Y0165688D01*
X0108913Y0165643D01*
X0109009Y0165815D01*
X0109108Y0165984D01*
X0109212Y0166150D01*
X0109320Y0166314D01*
X0109431Y0166475D01*
X0109547Y0166634D01*
X0109666Y0166789D01*
X0109789Y0166942D01*
X0109916Y0167091D01*
X0110046Y0167238D01*
X0110180Y0167381D01*
X0110317Y0167521D01*
X0110458Y0167658D01*
X0110601Y0167791D01*
X0110748Y0167921D01*
X0110899Y0168047D01*
X0111052Y0168169D01*
X0111208Y0168288D01*
X0111367Y0168403D01*
X0111529Y0168513D01*
X0111693Y0168620D01*
X0111860Y0168723D01*
X0112029Y0168822D01*
X0112201Y0168917D01*
X0112375Y0169007D01*
X0112551Y0169094D01*
X0112729Y0169175D01*
X0112909Y0169253D01*
X0113091Y0169326D01*
X0113274Y0169395D01*
X0113460Y0169459D01*
X0113646Y0169519D01*
X0113834Y0169574D01*
X0114024Y0169625D01*
X0114214Y0169671D01*
X0114406Y0169712D01*
X0114599Y0169749D01*
X0114792Y0169781D01*
X0114986Y0169808D01*
X0115181Y0169831D01*
X0115376Y0169849D01*
X0115572Y0169862D01*
X0115768Y0169870D01*
X0115964Y0169874D01*
X0115964Y0169780D01*
X0115770Y0169776D01*
X0115576Y0169768D01*
X0115383Y0169755D01*
X0115190Y0169737D01*
X0114998Y0169715D01*
X0114806Y0169688D01*
X0114615Y0169656D01*
X0114424Y0169620D01*
X0114235Y0169579D01*
X0114047Y0169534D01*
X0113860Y0169484D01*
X0113674Y0169429D01*
X0113489Y0169370D01*
X0113306Y0169307D01*
X0113125Y0169239D01*
X0112945Y0169166D01*
X0112767Y0169090D01*
X0112591Y0169009D01*
X0112417Y0168923D01*
X0112245Y0168834D01*
X0112075Y0168740D01*
X0111908Y0168643D01*
X0111743Y0168541D01*
X0111581Y0168435D01*
X0111421Y0168326D01*
X0111264Y0168212D01*
X0111110Y0168095D01*
X0110958Y0167974D01*
X0110810Y0167850D01*
X0110665Y0167722D01*
X0110522Y0167590D01*
X0110383Y0167455D01*
X0110248Y0167317D01*
X0110116Y0167175D01*
X0109987Y0167030D01*
X0109862Y0166882D01*
X0109740Y0166731D01*
X0109622Y0166578D01*
X0109508Y0166421D01*
X0109398Y0166262D01*
X0109292Y0166100D01*
X0109189Y0165935D01*
X0109091Y0165768D01*
X0108996Y0165599D01*
X0109079Y0165555D01*
X0109173Y0165722D01*
X0109270Y0165887D01*
X0109371Y0166050D01*
X0109476Y0166210D01*
X0109585Y0166367D01*
X0109698Y0166522D01*
X0109814Y0166674D01*
X0109934Y0166823D01*
X0110058Y0166969D01*
X0110185Y0167112D01*
X0110316Y0167252D01*
X0110450Y0167388D01*
X0110587Y0167522D01*
X0110728Y0167652D01*
X0110871Y0167779D01*
X0111018Y0167902D01*
X0111168Y0168021D01*
X0111320Y0168137D01*
X0111475Y0168249D01*
X0111633Y0168357D01*
X0111794Y0168462D01*
X0111957Y0168562D01*
X0112122Y0168659D01*
X0112289Y0168751D01*
X0112459Y0168839D01*
X0112631Y0168924D01*
X0112805Y0169004D01*
X0112981Y0169079D01*
X0113159Y0169151D01*
X0113338Y0169218D01*
X0113519Y0169281D01*
X0113701Y0169339D01*
X0113885Y0169393D01*
X0114070Y0169443D01*
X0114256Y0169487D01*
X0114443Y0169528D01*
X0114631Y0169564D01*
X0114820Y0169595D01*
X0115009Y0169622D01*
X0115199Y0169644D01*
X0115390Y0169661D01*
X0115581Y0169674D01*
X0115772Y0169682D01*
X0115964Y0169686D01*
X0115964Y0169592D01*
X0115775Y0169588D01*
X0115586Y0169580D01*
X0115397Y0169568D01*
X0115209Y0169550D01*
X0115021Y0169528D01*
X0114834Y0169502D01*
X0114647Y0169471D01*
X0114461Y0169436D01*
X0114276Y0169396D01*
X0114092Y0169351D01*
X0113910Y0169302D01*
X0113728Y0169249D01*
X0113548Y0169192D01*
X0113370Y0169130D01*
X0113192Y0169063D01*
X0113017Y0168993D01*
X0112843Y0168918D01*
X0112671Y0168839D01*
X0112502Y0168755D01*
X0112334Y0168668D01*
X0112168Y0168577D01*
X0112005Y0168481D01*
X0111844Y0168382D01*
X0111685Y0168279D01*
X0111529Y0168172D01*
X0111376Y0168061D01*
X0111225Y0167947D01*
X0111078Y0167829D01*
X0110933Y0167707D01*
X0110791Y0167582D01*
X0110652Y0167454D01*
X0110517Y0167322D01*
X0110384Y0167187D01*
X0110255Y0167049D01*
X0110129Y0166907D01*
X0110007Y0166763D01*
X0109888Y0166616D01*
X0109773Y0166466D01*
X0109662Y0166313D01*
X0109554Y0166157D01*
X0109450Y0165999D01*
X0109350Y0165839D01*
X0109254Y0165676D01*
X0109162Y0165511D01*
X0109245Y0165466D01*
X0109336Y0165630D01*
X0109431Y0165791D01*
X0109530Y0165949D01*
X0109632Y0166105D01*
X0109739Y0166259D01*
X0109849Y0166410D01*
X0109963Y0166558D01*
X0110080Y0166704D01*
X0110201Y0166846D01*
X0110325Y0166986D01*
X0110452Y0167122D01*
X0110583Y0167256D01*
X0110717Y0167386D01*
X0110854Y0167513D01*
X0110994Y0167636D01*
X0111137Y0167756D01*
X0111283Y0167873D01*
X0111432Y0167986D01*
X0111584Y0168095D01*
X0111738Y0168201D01*
X0111894Y0168303D01*
X0112053Y0168401D01*
X0112215Y0168495D01*
X0112378Y0168585D01*
X0112544Y0168672D01*
X0112712Y0168754D01*
X0112881Y0168832D01*
X0113053Y0168906D01*
X0113226Y0168975D01*
X0113401Y0169041D01*
X0113578Y0169102D01*
X0113756Y0169159D01*
X0113935Y0169212D01*
X0114115Y0169260D01*
X0114297Y0169304D01*
X0114480Y0169344D01*
X0114663Y0169379D01*
X0114847Y0169409D01*
X0115032Y0169435D01*
X0115218Y0169457D01*
X0115404Y0169474D01*
X0115590Y0169486D01*
X0115777Y0169494D01*
X0115964Y0169498D01*
X0115964Y0169404D01*
X0115779Y0169400D01*
X0115595Y0169392D01*
X0115411Y0169380D01*
X0115227Y0169363D01*
X0115044Y0169342D01*
X0114861Y0169316D01*
X0114679Y0169286D01*
X0114498Y0169251D01*
X0114318Y0169212D01*
X0114138Y0169169D01*
X0113960Y0169121D01*
X0113783Y0169069D01*
X0113607Y0169013D01*
X0113433Y0168953D01*
X0113260Y0168888D01*
X0113089Y0168819D01*
X0112920Y0168746D01*
X0112752Y0168669D01*
X0112586Y0168588D01*
X0112423Y0168502D01*
X0112261Y0168413D01*
X0112102Y0168320D01*
X0111945Y0168223D01*
X0111790Y0168123D01*
X0111638Y0168018D01*
X0111488Y0167910D01*
X0111341Y0167799D01*
X0111197Y0167684D01*
X0111056Y0167565D01*
X0110917Y0167443D01*
X0110782Y0167318D01*
X0110650Y0167189D01*
X0110520Y0167057D01*
X0110394Y0166923D01*
X0110272Y0166785D01*
X0110153Y0166644D01*
X0110037Y0166500D01*
X0109924Y0166354D01*
X0109816Y0166205D01*
X0109711Y0166053D01*
X0109609Y0165899D01*
X0109512Y0165742D01*
X0109418Y0165583D01*
X0109328Y0165422D01*
X0108703Y0157565D02*
X0109484Y0158011D01*
X0109577Y0157854D01*
X0109674Y0157700D01*
X0109775Y0157548D01*
X0109880Y0157399D01*
X0109988Y0157252D01*
X0110099Y0157107D01*
X0110214Y0156966D01*
X0110333Y0156827D01*
X0110455Y0156692D01*
X0110580Y0156559D01*
X0110708Y0156429D01*
X0110839Y0156303D01*
X0110973Y0156179D01*
X0111110Y0156059D01*
X0111250Y0155942D01*
X0111393Y0155829D01*
X0111539Y0155719D01*
X0111687Y0155613D01*
X0111838Y0155510D01*
X0111991Y0155411D01*
X0112146Y0155316D01*
X0112304Y0155225D01*
X0112464Y0155137D01*
X0112626Y0155053D01*
X0112789Y0154973D01*
X0112955Y0154897D01*
X0113123Y0154826D01*
X0113292Y0154758D01*
X0113463Y0154694D01*
X0113635Y0154635D01*
X0113809Y0154579D01*
X0113984Y0154528D01*
X0114160Y0154481D01*
X0114337Y0154439D01*
X0114516Y0154400D01*
X0114695Y0154366D01*
X0114875Y0154336D01*
X0115055Y0154311D01*
X0115236Y0154290D01*
X0115418Y0154274D01*
X0115600Y0154261D01*
X0115782Y0154254D01*
X0115964Y0154250D01*
X0115965Y0153351D01*
X0115964Y0153350D01*
X0115760Y0153354D01*
X0115556Y0153362D01*
X0115352Y0153376D01*
X0115148Y0153394D01*
X0114945Y0153418D01*
X0114743Y0153446D01*
X0114541Y0153479D01*
X0114341Y0153517D01*
X0114141Y0153560D01*
X0113942Y0153608D01*
X0113745Y0153660D01*
X0113549Y0153718D01*
X0113354Y0153780D01*
X0113161Y0153846D01*
X0112969Y0153918D01*
X0112780Y0153994D01*
X0112592Y0154074D01*
X0112406Y0154159D01*
X0112222Y0154249D01*
X0112041Y0154342D01*
X0111862Y0154441D01*
X0111685Y0154543D01*
X0111511Y0154650D01*
X0111339Y0154761D01*
X0111170Y0154876D01*
X0111004Y0154995D01*
X0110841Y0155118D01*
X0110681Y0155245D01*
X0110524Y0155376D01*
X0110370Y0155511D01*
X0110220Y0155649D01*
X0110073Y0155791D01*
X0109929Y0155936D01*
X0109789Y0156085D01*
X0109653Y0156237D01*
X0109520Y0156393D01*
X0109392Y0156551D01*
X0109267Y0156713D01*
X0109146Y0156878D01*
X0109029Y0157045D01*
X0108916Y0157216D01*
X0108807Y0157389D01*
X0108702Y0157564D01*
X0108784Y0157611D01*
X0108887Y0157437D01*
X0108995Y0157266D01*
X0109107Y0157098D01*
X0109222Y0156932D01*
X0109342Y0156769D01*
X0109466Y0156610D01*
X0109593Y0156453D01*
X0109724Y0156299D01*
X0109859Y0156149D01*
X0109997Y0156001D01*
X0110139Y0155858D01*
X0110285Y0155717D01*
X0110433Y0155581D01*
X0110585Y0155448D01*
X0110741Y0155318D01*
X0110899Y0155193D01*
X0111060Y0155071D01*
X0111224Y0154953D01*
X0111391Y0154839D01*
X0111561Y0154730D01*
X0111733Y0154624D01*
X0111908Y0154523D01*
X0112085Y0154425D01*
X0112264Y0154333D01*
X0112446Y0154244D01*
X0112630Y0154160D01*
X0112815Y0154080D01*
X0113003Y0154005D01*
X0113192Y0153935D01*
X0113383Y0153869D01*
X0113576Y0153808D01*
X0113770Y0153751D01*
X0113965Y0153699D01*
X0114161Y0153652D01*
X0114359Y0153610D01*
X0114557Y0153572D01*
X0114757Y0153539D01*
X0114957Y0153511D01*
X0115158Y0153488D01*
X0115359Y0153470D01*
X0115560Y0153456D01*
X0115762Y0153448D01*
X0115964Y0153444D01*
X0115964Y0153538D01*
X0115765Y0153542D01*
X0115565Y0153550D01*
X0115366Y0153563D01*
X0115167Y0153582D01*
X0114968Y0153604D01*
X0114771Y0153632D01*
X0114573Y0153665D01*
X0114377Y0153702D01*
X0114182Y0153744D01*
X0113988Y0153790D01*
X0113795Y0153842D01*
X0113603Y0153898D01*
X0113413Y0153958D01*
X0113224Y0154023D01*
X0113037Y0154093D01*
X0112851Y0154167D01*
X0112668Y0154246D01*
X0112486Y0154329D01*
X0112306Y0154417D01*
X0112129Y0154508D01*
X0111954Y0154604D01*
X0111781Y0154705D01*
X0111611Y0154809D01*
X0111443Y0154918D01*
X0111278Y0155030D01*
X0111116Y0155146D01*
X0110957Y0155267D01*
X0110800Y0155391D01*
X0110647Y0155519D01*
X0110496Y0155650D01*
X0110349Y0155786D01*
X0110206Y0155924D01*
X0110065Y0156066D01*
X0109928Y0156212D01*
X0109795Y0156361D01*
X0109665Y0156513D01*
X0109539Y0156668D01*
X0109417Y0156826D01*
X0109299Y0156987D01*
X0109185Y0157150D01*
X0109074Y0157317D01*
X0108968Y0157486D01*
X0108866Y0157657D01*
X0108947Y0157704D01*
X0109048Y0157534D01*
X0109153Y0157367D01*
X0109263Y0157203D01*
X0109376Y0157041D01*
X0109493Y0156882D01*
X0109613Y0156726D01*
X0109738Y0156572D01*
X0109866Y0156422D01*
X0109998Y0156275D01*
X0110133Y0156131D01*
X0110272Y0155991D01*
X0110414Y0155854D01*
X0110559Y0155720D01*
X0110708Y0155590D01*
X0110860Y0155464D01*
X0111014Y0155341D01*
X0111172Y0155222D01*
X0111332Y0155107D01*
X0111495Y0154996D01*
X0111661Y0154889D01*
X0111829Y0154785D01*
X0112000Y0154686D01*
X0112173Y0154591D01*
X0112349Y0154501D01*
X0112526Y0154414D01*
X0112706Y0154332D01*
X0112887Y0154254D01*
X0113070Y0154181D01*
X0113255Y0154112D01*
X0113442Y0154048D01*
X0113630Y0153988D01*
X0113820Y0153932D01*
X0114010Y0153882D01*
X0114202Y0153835D01*
X0114395Y0153794D01*
X0114589Y0153757D01*
X0114784Y0153725D01*
X0114980Y0153698D01*
X0115176Y0153675D01*
X0115373Y0153657D01*
X0115570Y0153644D01*
X0115767Y0153636D01*
X0115964Y0153632D01*
X0115964Y0153726D01*
X0115769Y0153730D01*
X0115574Y0153738D01*
X0115379Y0153751D01*
X0115185Y0153769D01*
X0114991Y0153791D01*
X0114798Y0153818D01*
X0114605Y0153850D01*
X0114414Y0153886D01*
X0114223Y0153927D01*
X0114033Y0153973D01*
X0113845Y0154023D01*
X0113657Y0154078D01*
X0113471Y0154137D01*
X0113287Y0154200D01*
X0113104Y0154269D01*
X0112923Y0154341D01*
X0112744Y0154418D01*
X0112566Y0154499D01*
X0112391Y0154585D01*
X0112217Y0154674D01*
X0112046Y0154768D01*
X0111878Y0154866D01*
X0111711Y0154968D01*
X0111547Y0155074D01*
X0111386Y0155184D01*
X0111228Y0155298D01*
X0111072Y0155415D01*
X0110919Y0155537D01*
X0110769Y0155662D01*
X0110622Y0155790D01*
X0110479Y0155922D01*
X0110338Y0156058D01*
X0110201Y0156197D01*
X0110067Y0156339D01*
X0109937Y0156484D01*
X0109810Y0156632D01*
X0109687Y0156784D01*
X0109568Y0156938D01*
X0109452Y0157095D01*
X0109341Y0157255D01*
X0109233Y0157418D01*
X0109129Y0157583D01*
X0109029Y0157751D01*
X0109110Y0157797D01*
X0109209Y0157632D01*
X0109312Y0157468D01*
X0109419Y0157308D01*
X0109529Y0157150D01*
X0109643Y0156994D01*
X0109761Y0156842D01*
X0109883Y0156692D01*
X0110008Y0156546D01*
X0110137Y0156402D01*
X0110269Y0156262D01*
X0110404Y0156124D01*
X0110543Y0155990D01*
X0110685Y0155860D01*
X0110830Y0155733D01*
X0110978Y0155609D01*
X0111129Y0155490D01*
X0111283Y0155373D01*
X0111440Y0155261D01*
X0111599Y0155152D01*
X0111761Y0155048D01*
X0111926Y0154947D01*
X0112092Y0154850D01*
X0112262Y0154757D01*
X0112433Y0154669D01*
X0112606Y0154584D01*
X0112782Y0154504D01*
X0112959Y0154428D01*
X0113138Y0154356D01*
X0113319Y0154289D01*
X0113501Y0154226D01*
X0113685Y0154168D01*
X0113870Y0154114D01*
X0114056Y0154064D01*
X0114244Y0154019D01*
X0114432Y0153978D01*
X0114621Y0153942D01*
X0114812Y0153911D01*
X0115003Y0153884D01*
X0115194Y0153862D01*
X0115386Y0153845D01*
X0115579Y0153832D01*
X0115771Y0153824D01*
X0115964Y0153820D01*
X0115964Y0153914D01*
X0115774Y0153918D01*
X0115583Y0153926D01*
X0115393Y0153938D01*
X0115203Y0153956D01*
X0115014Y0153978D01*
X0114826Y0154004D01*
X0114638Y0154035D01*
X0114450Y0154071D01*
X0114264Y0154111D01*
X0114079Y0154155D01*
X0113895Y0154204D01*
X0113712Y0154258D01*
X0113530Y0154315D01*
X0113350Y0154378D01*
X0113172Y0154444D01*
X0112995Y0154515D01*
X0112820Y0154590D01*
X0112646Y0154669D01*
X0112475Y0154753D01*
X0112306Y0154840D01*
X0112139Y0154932D01*
X0111974Y0155028D01*
X0111811Y0155127D01*
X0111651Y0155231D01*
X0111494Y0155338D01*
X0111339Y0155449D01*
X0111187Y0155564D01*
X0111038Y0155682D01*
X0110892Y0155804D01*
X0110748Y0155930D01*
X0110608Y0156059D01*
X0110471Y0156191D01*
X0110337Y0156327D01*
X0110206Y0156465D01*
X0110079Y0156607D01*
X0109955Y0156752D01*
X0109835Y0156900D01*
X0109719Y0157051D01*
X0109606Y0157204D01*
X0109497Y0157360D01*
X0109391Y0157519D01*
X0109290Y0157680D01*
X0109192Y0157844D01*
X0109274Y0157891D01*
X0109370Y0157729D01*
X0109470Y0157570D01*
X0109574Y0157413D01*
X0109682Y0157258D01*
X0109794Y0157107D01*
X0109909Y0156958D01*
X0110028Y0156812D01*
X0110150Y0156669D01*
X0110276Y0156529D01*
X0110405Y0156392D01*
X0110537Y0156258D01*
X0110673Y0156127D01*
X0110811Y0156000D01*
X0110953Y0155876D01*
X0111097Y0155755D01*
X0111245Y0155638D01*
X0111395Y0155525D01*
X0111548Y0155415D01*
X0111704Y0155309D01*
X0111862Y0155207D01*
X0112022Y0155108D01*
X0112185Y0155014D01*
X0112350Y0154923D01*
X0112517Y0154837D01*
X0112686Y0154754D01*
X0112857Y0154676D01*
X0113030Y0154602D01*
X0113205Y0154532D01*
X0113382Y0154466D01*
X0113560Y0154405D01*
X0113739Y0154348D01*
X0113920Y0154295D01*
X0114102Y0154246D01*
X0114285Y0154202D01*
X0114469Y0154163D01*
X0114654Y0154128D01*
X0114839Y0154097D01*
X0115026Y0154071D01*
X0115213Y0154049D01*
X0115400Y0154032D01*
X0115588Y0154020D01*
X0115776Y0154012D01*
X0115964Y0154008D01*
X0115964Y0154102D01*
X0115778Y0154106D01*
X0115593Y0154114D01*
X0115407Y0154126D01*
X0115222Y0154143D01*
X0115037Y0154164D01*
X0114853Y0154190D01*
X0114670Y0154220D01*
X0114487Y0154255D01*
X0114305Y0154294D01*
X0114124Y0154338D01*
X0113945Y0154385D01*
X0113766Y0154438D01*
X0113589Y0154494D01*
X0113413Y0154555D01*
X0113239Y0154620D01*
X0113066Y0154689D01*
X0112895Y0154762D01*
X0112726Y0154839D01*
X0112559Y0154921D01*
X0112394Y0155006D01*
X0112231Y0155096D01*
X0112070Y0155189D01*
X0111912Y0155286D01*
X0111756Y0155387D01*
X0111602Y0155492D01*
X0111451Y0155600D01*
X0111302Y0155712D01*
X0111157Y0155828D01*
X0111014Y0155947D01*
X0110874Y0156069D01*
X0110737Y0156195D01*
X0110603Y0156324D01*
X0110473Y0156457D01*
X0110345Y0156592D01*
X0110221Y0156730D01*
X0110100Y0156872D01*
X0109983Y0157016D01*
X0109869Y0157163D01*
X0109759Y0157313D01*
X0109652Y0157465D01*
X0109550Y0157620D01*
X0109451Y0157778D01*
X0109355Y0157937D01*
X0109437Y0157984D01*
X0109531Y0157826D01*
X0109629Y0157671D01*
X0109730Y0157518D01*
X0109836Y0157367D01*
X0109945Y0157219D01*
X0110057Y0157074D01*
X0110173Y0156932D01*
X0110292Y0156792D01*
X0110415Y0156655D01*
X0110541Y0156522D01*
X0110670Y0156391D01*
X0110802Y0156263D01*
X0110937Y0156139D01*
X0111075Y0156018D01*
X0111216Y0155901D01*
X0111360Y0155787D01*
X0111507Y0155676D01*
X0111656Y0155569D01*
X0111808Y0155465D01*
X0111962Y0155366D01*
X0112118Y0155270D01*
X0112277Y0155178D01*
X0112438Y0155089D01*
X0112601Y0155005D01*
X0112766Y0154924D01*
X0112933Y0154848D01*
X0113102Y0154776D01*
X0113273Y0154707D01*
X0113445Y0154643D01*
X0113618Y0154583D01*
X0113793Y0154527D01*
X0113970Y0154476D01*
X0114147Y0154429D01*
X0114326Y0154386D01*
X0114505Y0154347D01*
X0114686Y0154313D01*
X0114867Y0154283D01*
X0115049Y0154258D01*
X0115231Y0154236D01*
X0115414Y0154220D01*
X0115597Y0154207D01*
X0115781Y0154200D01*
X0115964Y0154196D01*
X0116063Y0153351D02*
X0116063Y0154251D01*
X0116064Y0154250D02*
X0116248Y0154254D01*
X0116433Y0154262D01*
X0116617Y0154274D01*
X0116800Y0154291D01*
X0116984Y0154313D01*
X0117166Y0154338D01*
X0117348Y0154369D01*
X0117529Y0154404D01*
X0117710Y0154443D01*
X0117889Y0154487D01*
X0118067Y0154535D01*
X0118244Y0154587D01*
X0118420Y0154644D01*
X0118594Y0154704D01*
X0118766Y0154770D01*
X0118937Y0154839D01*
X0119107Y0154912D01*
X0119274Y0154990D01*
X0119439Y0155072D01*
X0119603Y0155157D01*
X0119764Y0155247D01*
X0119923Y0155341D01*
X0120080Y0155438D01*
X0120234Y0155539D01*
X0120386Y0155644D01*
X0120535Y0155753D01*
X0120681Y0155865D01*
X0120825Y0155981D01*
X0120965Y0156100D01*
X0121103Y0156223D01*
X0121238Y0156349D01*
X0121370Y0156478D01*
X0121498Y0156611D01*
X0121623Y0156746D01*
X0121745Y0156885D01*
X0122432Y0156304D01*
X0122296Y0156148D01*
X0122155Y0155996D01*
X0122011Y0155847D01*
X0121864Y0155702D01*
X0121713Y0155561D01*
X0121559Y0155424D01*
X0121401Y0155290D01*
X0121240Y0155160D01*
X0121076Y0155034D01*
X0120909Y0154912D01*
X0120739Y0154794D01*
X0120566Y0154681D01*
X0120390Y0154572D01*
X0120212Y0154467D01*
X0120031Y0154366D01*
X0119848Y0154270D01*
X0119663Y0154178D01*
X0119475Y0154091D01*
X0119285Y0154009D01*
X0119094Y0153931D01*
X0118900Y0153858D01*
X0118705Y0153790D01*
X0118508Y0153726D01*
X0118310Y0153668D01*
X0118110Y0153614D01*
X0117909Y0153565D01*
X0117707Y0153521D01*
X0117504Y0153482D01*
X0117300Y0153448D01*
X0117095Y0153419D01*
X0116890Y0153395D01*
X0116684Y0153377D01*
X0116477Y0153363D01*
X0116271Y0153354D01*
X0116064Y0153350D01*
X0116064Y0153444D01*
X0116268Y0153448D01*
X0116473Y0153457D01*
X0116677Y0153470D01*
X0116880Y0153489D01*
X0117083Y0153513D01*
X0117286Y0153541D01*
X0117488Y0153575D01*
X0117688Y0153613D01*
X0117888Y0153657D01*
X0118087Y0153705D01*
X0118284Y0153758D01*
X0118481Y0153816D01*
X0118675Y0153879D01*
X0118868Y0153947D01*
X0119060Y0154019D01*
X0119249Y0154096D01*
X0119437Y0154177D01*
X0119622Y0154263D01*
X0119805Y0154354D01*
X0119987Y0154449D01*
X0120165Y0154548D01*
X0120341Y0154652D01*
X0120515Y0154760D01*
X0120686Y0154872D01*
X0120854Y0154989D01*
X0121019Y0155109D01*
X0121182Y0155234D01*
X0121341Y0155362D01*
X0121497Y0155494D01*
X0121649Y0155630D01*
X0121799Y0155770D01*
X0121944Y0155913D01*
X0122087Y0156060D01*
X0122225Y0156211D01*
X0122360Y0156364D01*
X0122289Y0156425D01*
X0122155Y0156273D01*
X0122018Y0156124D01*
X0121877Y0155979D01*
X0121733Y0155838D01*
X0121586Y0155699D01*
X0121435Y0155565D01*
X0121281Y0155434D01*
X0121123Y0155307D01*
X0120963Y0155184D01*
X0120799Y0155065D01*
X0120633Y0154950D01*
X0120464Y0154839D01*
X0120293Y0154732D01*
X0120118Y0154630D01*
X0119942Y0154531D01*
X0119763Y0154437D01*
X0119581Y0154348D01*
X0119398Y0154263D01*
X0119213Y0154182D01*
X0119025Y0154106D01*
X0118836Y0154035D01*
X0118645Y0153968D01*
X0118453Y0153906D01*
X0118259Y0153849D01*
X0118064Y0153796D01*
X0117867Y0153749D01*
X0117670Y0153706D01*
X0117471Y0153668D01*
X0117272Y0153634D01*
X0117072Y0153606D01*
X0116871Y0153583D01*
X0116670Y0153564D01*
X0116468Y0153550D01*
X0116266Y0153542D01*
X0116064Y0153538D01*
X0116064Y0153632D01*
X0116264Y0153636D01*
X0116463Y0153644D01*
X0116663Y0153658D01*
X0116862Y0153676D01*
X0117060Y0153699D01*
X0117258Y0153727D01*
X0117455Y0153760D01*
X0117651Y0153798D01*
X0117847Y0153840D01*
X0118041Y0153887D01*
X0118234Y0153939D01*
X0118425Y0153996D01*
X0118616Y0154057D01*
X0118804Y0154123D01*
X0118991Y0154194D01*
X0119176Y0154269D01*
X0119360Y0154349D01*
X0119541Y0154433D01*
X0119720Y0154521D01*
X0119897Y0154614D01*
X0120072Y0154711D01*
X0120244Y0154813D01*
X0120413Y0154918D01*
X0120581Y0155028D01*
X0120745Y0155142D01*
X0120906Y0155259D01*
X0121065Y0155381D01*
X0121220Y0155506D01*
X0121373Y0155636D01*
X0121522Y0155769D01*
X0121668Y0155905D01*
X0121810Y0156045D01*
X0121949Y0156189D01*
X0122085Y0156336D01*
X0122217Y0156486D01*
X0122145Y0156546D01*
X0122015Y0156398D01*
X0121881Y0156253D01*
X0121743Y0156111D01*
X0121602Y0155973D01*
X0121458Y0155838D01*
X0121311Y0155706D01*
X0121160Y0155579D01*
X0121006Y0155455D01*
X0120850Y0155334D01*
X0120690Y0155218D01*
X0120528Y0155106D01*
X0120363Y0154997D01*
X0120195Y0154893D01*
X0120025Y0154793D01*
X0119852Y0154697D01*
X0119677Y0154605D01*
X0119500Y0154517D01*
X0119321Y0154434D01*
X0119140Y0154356D01*
X0118957Y0154281D01*
X0118772Y0154212D01*
X0118586Y0154147D01*
X0118398Y0154086D01*
X0118208Y0154030D01*
X0118018Y0153979D01*
X0117826Y0153932D01*
X0117633Y0153890D01*
X0117439Y0153853D01*
X0117244Y0153820D01*
X0117048Y0153793D01*
X0116852Y0153770D01*
X0116656Y0153752D01*
X0116459Y0153738D01*
X0116261Y0153730D01*
X0116064Y0153726D01*
X0116064Y0153820D01*
X0116259Y0153824D01*
X0116454Y0153832D01*
X0116649Y0153845D01*
X0116843Y0153863D01*
X0117037Y0153886D01*
X0117230Y0153913D01*
X0117423Y0153945D01*
X0117614Y0153982D01*
X0117805Y0154024D01*
X0117995Y0154070D01*
X0118183Y0154120D01*
X0118370Y0154176D01*
X0118556Y0154236D01*
X0118740Y0154300D01*
X0118923Y0154369D01*
X0119104Y0154442D01*
X0119283Y0154520D01*
X0119460Y0154602D01*
X0119635Y0154689D01*
X0119807Y0154779D01*
X0119978Y0154874D01*
X0120146Y0154973D01*
X0120312Y0155076D01*
X0120475Y0155183D01*
X0120636Y0155294D01*
X0120793Y0155409D01*
X0120948Y0155528D01*
X0121100Y0155651D01*
X0121249Y0155777D01*
X0121395Y0155907D01*
X0121537Y0156040D01*
X0121676Y0156177D01*
X0121812Y0156317D01*
X0121944Y0156461D01*
X0122073Y0156607D01*
X0122001Y0156668D01*
X0121874Y0156523D01*
X0121743Y0156381D01*
X0121609Y0156243D01*
X0121472Y0156108D01*
X0121331Y0155976D01*
X0121187Y0155848D01*
X0121040Y0155723D01*
X0120890Y0155602D01*
X0120737Y0155485D01*
X0120581Y0155371D01*
X0120422Y0155261D01*
X0120261Y0155155D01*
X0120097Y0155054D01*
X0119931Y0154956D01*
X0119763Y0154862D01*
X0119592Y0154772D01*
X0119419Y0154687D01*
X0119244Y0154606D01*
X0119067Y0154529D01*
X0118889Y0154457D01*
X0118708Y0154388D01*
X0118526Y0154325D01*
X0118343Y0154266D01*
X0118158Y0154211D01*
X0117972Y0154161D01*
X0117784Y0154115D01*
X0117596Y0154074D01*
X0117406Y0154038D01*
X0117216Y0154006D01*
X0117025Y0153979D01*
X0116834Y0153957D01*
X0116642Y0153939D01*
X0116449Y0153926D01*
X0116257Y0153918D01*
X0116064Y0153914D01*
X0116064Y0154008D01*
X0116254Y0154012D01*
X0116445Y0154020D01*
X0116635Y0154033D01*
X0116824Y0154050D01*
X0117014Y0154072D01*
X0117202Y0154099D01*
X0117390Y0154130D01*
X0117577Y0154166D01*
X0117763Y0154207D01*
X0117948Y0154252D01*
X0118132Y0154301D01*
X0118315Y0154356D01*
X0118496Y0154414D01*
X0118676Y0154477D01*
X0118854Y0154544D01*
X0119031Y0154616D01*
X0119206Y0154692D01*
X0119378Y0154772D01*
X0119549Y0154856D01*
X0119718Y0154945D01*
X0119884Y0155037D01*
X0120049Y0155134D01*
X0120210Y0155234D01*
X0120370Y0155339D01*
X0120526Y0155447D01*
X0120680Y0155560D01*
X0120831Y0155676D01*
X0120980Y0155795D01*
X0121125Y0155918D01*
X0121267Y0156045D01*
X0121406Y0156175D01*
X0121542Y0156309D01*
X0121675Y0156445D01*
X0121804Y0156585D01*
X0121930Y0156729D01*
X0121858Y0156789D01*
X0121734Y0156648D01*
X0121606Y0156510D01*
X0121475Y0156375D01*
X0121341Y0156243D01*
X0121204Y0156114D01*
X0121063Y0155989D01*
X0120919Y0155867D01*
X0120773Y0155749D01*
X0120624Y0155635D01*
X0120472Y0155524D01*
X0120317Y0155417D01*
X0120160Y0155314D01*
X0120000Y0155214D01*
X0119838Y0155119D01*
X0119673Y0155027D01*
X0119507Y0154940D01*
X0119338Y0154857D01*
X0119167Y0154777D01*
X0118995Y0154702D01*
X0118820Y0154632D01*
X0118644Y0154565D01*
X0118467Y0154503D01*
X0118287Y0154445D01*
X0118107Y0154392D01*
X0117925Y0154343D01*
X0117743Y0154299D01*
X0117559Y0154259D01*
X0117374Y0154223D01*
X0117188Y0154192D01*
X0117002Y0154166D01*
X0116815Y0154144D01*
X0116628Y0154127D01*
X0116440Y0154114D01*
X0116252Y0154106D01*
X0116064Y0154102D01*
X0116064Y0154196D01*
X0116250Y0154200D01*
X0116435Y0154208D01*
X0116621Y0154220D01*
X0116806Y0154237D01*
X0116990Y0154259D01*
X0117174Y0154285D01*
X0117358Y0154316D01*
X0117540Y0154351D01*
X0117722Y0154390D01*
X0117902Y0154434D01*
X0118082Y0154483D01*
X0118260Y0154535D01*
X0118437Y0154592D01*
X0118612Y0154654D01*
X0118786Y0154719D01*
X0118958Y0154789D01*
X0119129Y0154863D01*
X0119297Y0154941D01*
X0119464Y0155024D01*
X0119628Y0155110D01*
X0119791Y0155200D01*
X0119951Y0155295D01*
X0120109Y0155393D01*
X0120264Y0155495D01*
X0120417Y0155600D01*
X0120567Y0155710D01*
X0120715Y0155823D01*
X0120859Y0155940D01*
X0121001Y0156060D01*
X0121140Y0156183D01*
X0121276Y0156310D01*
X0121408Y0156440D01*
X0121537Y0156574D01*
X0121664Y0156710D01*
X0121786Y0156850D01*
X0122473Y0167248D02*
X0121781Y0166671D01*
X0121782Y0166672D02*
X0121663Y0166809D01*
X0121542Y0166943D01*
X0121417Y0167074D01*
X0121289Y0167202D01*
X0121158Y0167326D01*
X0121024Y0167448D01*
X0120887Y0167567D01*
X0120748Y0167682D01*
X0120605Y0167793D01*
X0120460Y0167902D01*
X0120313Y0168007D01*
X0120163Y0168108D01*
X0120011Y0168205D01*
X0119856Y0168299D01*
X0119699Y0168390D01*
X0119540Y0168476D01*
X0119379Y0168559D01*
X0119216Y0168637D01*
X0119051Y0168712D01*
X0118885Y0168783D01*
X0118717Y0168850D01*
X0118547Y0168912D01*
X0118376Y0168971D01*
X0118203Y0169026D01*
X0118030Y0169076D01*
X0117855Y0169122D01*
X0117679Y0169164D01*
X0117502Y0169202D01*
X0117324Y0169235D01*
X0117145Y0169265D01*
X0116966Y0169290D01*
X0116786Y0169310D01*
X0116606Y0169327D01*
X0116426Y0169339D01*
X0116245Y0169346D01*
X0116064Y0169350D01*
X0116063Y0170249D01*
X0116064Y0170250D01*
X0116267Y0170246D01*
X0116469Y0170238D01*
X0116672Y0170224D01*
X0116874Y0170206D01*
X0117075Y0170183D01*
X0117276Y0170155D01*
X0117476Y0170122D01*
X0117676Y0170085D01*
X0117874Y0170043D01*
X0118072Y0169996D01*
X0118268Y0169944D01*
X0118462Y0169887D01*
X0118656Y0169826D01*
X0118848Y0169761D01*
X0119038Y0169690D01*
X0119227Y0169615D01*
X0119413Y0169536D01*
X0119598Y0169452D01*
X0119781Y0169364D01*
X0119961Y0169271D01*
X0120139Y0169175D01*
X0120315Y0169073D01*
X0120488Y0168968D01*
X0120659Y0168859D01*
X0120827Y0168745D01*
X0120993Y0168628D01*
X0121155Y0168506D01*
X0121315Y0168381D01*
X0121471Y0168252D01*
X0121624Y0168119D01*
X0121774Y0167982D01*
X0121921Y0167842D01*
X0122064Y0167699D01*
X0122204Y0167552D01*
X0122341Y0167402D01*
X0122473Y0167248D01*
X0122401Y0167188D01*
X0122270Y0167340D01*
X0122135Y0167488D01*
X0121997Y0167633D01*
X0121855Y0167775D01*
X0121710Y0167914D01*
X0121562Y0168049D01*
X0121410Y0168180D01*
X0121255Y0168308D01*
X0121098Y0168432D01*
X0120937Y0168552D01*
X0120774Y0168668D01*
X0120607Y0168780D01*
X0120439Y0168888D01*
X0120267Y0168993D01*
X0120093Y0169093D01*
X0119917Y0169188D01*
X0119739Y0169280D01*
X0119558Y0169367D01*
X0119375Y0169450D01*
X0119191Y0169529D01*
X0119005Y0169603D01*
X0118816Y0169672D01*
X0118627Y0169737D01*
X0118435Y0169797D01*
X0118243Y0169853D01*
X0118049Y0169904D01*
X0117854Y0169951D01*
X0117658Y0169993D01*
X0117461Y0170030D01*
X0117263Y0170062D01*
X0117064Y0170090D01*
X0116865Y0170113D01*
X0116665Y0170131D01*
X0116465Y0170144D01*
X0116264Y0170152D01*
X0116064Y0170156D01*
X0116064Y0170062D01*
X0116262Y0170058D01*
X0116460Y0170050D01*
X0116658Y0170037D01*
X0116856Y0170019D01*
X0117053Y0169996D01*
X0117249Y0169969D01*
X0117445Y0169937D01*
X0117639Y0169901D01*
X0117833Y0169859D01*
X0118026Y0169813D01*
X0118218Y0169763D01*
X0118408Y0169707D01*
X0118597Y0169648D01*
X0118785Y0169583D01*
X0118971Y0169515D01*
X0119155Y0169442D01*
X0119338Y0169364D01*
X0119518Y0169282D01*
X0119697Y0169196D01*
X0119873Y0169105D01*
X0120047Y0169011D01*
X0120219Y0168912D01*
X0120389Y0168809D01*
X0120556Y0168702D01*
X0120720Y0168591D01*
X0120881Y0168476D01*
X0121040Y0168357D01*
X0121196Y0168235D01*
X0121349Y0168109D01*
X0121499Y0167979D01*
X0121646Y0167845D01*
X0121789Y0167708D01*
X0121929Y0167568D01*
X0122066Y0167425D01*
X0122199Y0167278D01*
X0122329Y0167128D01*
X0122257Y0167068D01*
X0122128Y0167216D01*
X0121997Y0167361D01*
X0121862Y0167503D01*
X0121723Y0167641D01*
X0121581Y0167777D01*
X0121436Y0167909D01*
X0121288Y0168037D01*
X0121137Y0168162D01*
X0120983Y0168283D01*
X0120826Y0168400D01*
X0120666Y0168514D01*
X0120504Y0168623D01*
X0120339Y0168729D01*
X0120171Y0168831D01*
X0120001Y0168929D01*
X0119829Y0169022D01*
X0119655Y0169112D01*
X0119478Y0169197D01*
X0119300Y0169278D01*
X0119120Y0169355D01*
X0118937Y0169427D01*
X0118754Y0169495D01*
X0118568Y0169558D01*
X0118381Y0169617D01*
X0118193Y0169672D01*
X0118004Y0169722D01*
X0117813Y0169767D01*
X0117621Y0169808D01*
X0117429Y0169845D01*
X0117235Y0169876D01*
X0117041Y0169903D01*
X0116846Y0169925D01*
X0116651Y0169943D01*
X0116456Y0169956D01*
X0116260Y0169964D01*
X0116064Y0169968D01*
X0116064Y0169874D01*
X0116258Y0169870D01*
X0116451Y0169862D01*
X0116644Y0169849D01*
X0116837Y0169832D01*
X0117030Y0169810D01*
X0117222Y0169783D01*
X0117413Y0169752D01*
X0117603Y0169716D01*
X0117793Y0169676D01*
X0117981Y0169631D01*
X0118168Y0169581D01*
X0118354Y0169527D01*
X0118539Y0169469D01*
X0118722Y0169406D01*
X0118904Y0169339D01*
X0119084Y0169268D01*
X0119262Y0169192D01*
X0119439Y0169112D01*
X0119613Y0169028D01*
X0119785Y0168939D01*
X0119955Y0168847D01*
X0120123Y0168750D01*
X0120289Y0168649D01*
X0120452Y0168545D01*
X0120612Y0168437D01*
X0120770Y0168324D01*
X0120925Y0168208D01*
X0121078Y0168089D01*
X0121227Y0167965D01*
X0121374Y0167839D01*
X0121517Y0167708D01*
X0121657Y0167575D01*
X0121794Y0167438D01*
X0121927Y0167297D01*
X0122058Y0167154D01*
X0122184Y0167007D01*
X0122112Y0166947D01*
X0121987Y0167092D01*
X0121858Y0167234D01*
X0121726Y0167372D01*
X0121591Y0167508D01*
X0121452Y0167640D01*
X0121311Y0167769D01*
X0121166Y0167894D01*
X0121019Y0168016D01*
X0120868Y0168134D01*
X0120715Y0168249D01*
X0120559Y0168359D01*
X0120400Y0168467D01*
X0120239Y0168570D01*
X0120075Y0168669D01*
X0119909Y0168765D01*
X0119741Y0168856D01*
X0119571Y0168943D01*
X0119399Y0169027D01*
X0119224Y0169106D01*
X0119048Y0169181D01*
X0118870Y0169251D01*
X0118691Y0169318D01*
X0118510Y0169380D01*
X0118327Y0169437D01*
X0118143Y0169491D01*
X0117958Y0169540D01*
X0117772Y0169584D01*
X0117585Y0169624D01*
X0117397Y0169659D01*
X0117208Y0169690D01*
X0117018Y0169717D01*
X0116828Y0169738D01*
X0116638Y0169756D01*
X0116447Y0169768D01*
X0116255Y0169776D01*
X0116064Y0169780D01*
X0116064Y0169686D01*
X0116253Y0169682D01*
X0116442Y0169674D01*
X0116631Y0169662D01*
X0116819Y0169645D01*
X0117007Y0169623D01*
X0117194Y0169597D01*
X0117381Y0169567D01*
X0117567Y0169532D01*
X0117752Y0169492D01*
X0117936Y0169448D01*
X0118118Y0169400D01*
X0118300Y0169347D01*
X0118480Y0169290D01*
X0118659Y0169229D01*
X0118837Y0169163D01*
X0119013Y0169094D01*
X0119187Y0169020D01*
X0119359Y0168942D01*
X0119529Y0168859D01*
X0119697Y0168773D01*
X0119863Y0168683D01*
X0120027Y0168588D01*
X0120189Y0168490D01*
X0120348Y0168388D01*
X0120505Y0168282D01*
X0120659Y0168173D01*
X0120811Y0168059D01*
X0120959Y0167943D01*
X0121105Y0167822D01*
X0121248Y0167699D01*
X0121388Y0167571D01*
X0121525Y0167441D01*
X0121659Y0167307D01*
X0121789Y0167170D01*
X0121916Y0167030D01*
X0122040Y0166887D01*
X0121968Y0166827D01*
X0121845Y0166968D01*
X0121720Y0167106D01*
X0121591Y0167242D01*
X0121459Y0167374D01*
X0121324Y0167503D01*
X0121185Y0167628D01*
X0121044Y0167751D01*
X0120900Y0167870D01*
X0120753Y0167985D01*
X0120604Y0168097D01*
X0120451Y0168205D01*
X0120296Y0168310D01*
X0120139Y0168410D01*
X0119979Y0168507D01*
X0119818Y0168601D01*
X0119653Y0168690D01*
X0119487Y0168775D01*
X0119319Y0168856D01*
X0119149Y0168934D01*
X0118977Y0169007D01*
X0118803Y0169076D01*
X0118628Y0169140D01*
X0118451Y0169201D01*
X0118273Y0169257D01*
X0118094Y0169309D01*
X0117913Y0169357D01*
X0117731Y0169400D01*
X0117549Y0169439D01*
X0117365Y0169474D01*
X0117181Y0169504D01*
X0116996Y0169530D01*
X0116810Y0169551D01*
X0116624Y0169568D01*
X0116437Y0169580D01*
X0116251Y0169588D01*
X0116064Y0169592D01*
X0116064Y0169498D01*
X0116248Y0169494D01*
X0116433Y0169487D01*
X0116617Y0169474D01*
X0116801Y0169458D01*
X0116984Y0169437D01*
X0117167Y0169411D01*
X0117349Y0169381D01*
X0117530Y0169347D01*
X0117711Y0169309D01*
X0117890Y0169266D01*
X0118069Y0169219D01*
X0118246Y0169167D01*
X0118422Y0169112D01*
X0118597Y0169052D01*
X0118770Y0168988D01*
X0118941Y0168920D01*
X0119111Y0168848D01*
X0119279Y0168771D01*
X0119445Y0168691D01*
X0119609Y0168607D01*
X0119772Y0168519D01*
X0119932Y0168427D01*
X0120089Y0168331D01*
X0120245Y0168231D01*
X0120398Y0168128D01*
X0120548Y0168021D01*
X0120696Y0167911D01*
X0120841Y0167797D01*
X0120983Y0167679D01*
X0121123Y0167558D01*
X0121259Y0167434D01*
X0121393Y0167307D01*
X0121523Y0167176D01*
X0121651Y0167043D01*
X0121775Y0166906D01*
X0121895Y0166767D01*
X0121823Y0166706D01*
X0121704Y0166844D01*
X0121581Y0166979D01*
X0121456Y0167111D01*
X0121327Y0167240D01*
X0121195Y0167366D01*
X0121060Y0167488D01*
X0120922Y0167608D01*
X0120782Y0167724D01*
X0120638Y0167836D01*
X0120492Y0167945D01*
X0120344Y0168051D01*
X0120193Y0168153D01*
X0120039Y0168251D01*
X0119884Y0168346D01*
X0119726Y0168437D01*
X0119565Y0168524D01*
X0119403Y0168607D01*
X0119239Y0168686D01*
X0119073Y0168761D01*
X0118905Y0168833D01*
X0118736Y0168900D01*
X0118565Y0168963D01*
X0118393Y0169022D01*
X0118219Y0169077D01*
X0118044Y0169128D01*
X0117868Y0169175D01*
X0117690Y0169217D01*
X0117512Y0169255D01*
X0117333Y0169289D01*
X0117153Y0169318D01*
X0116973Y0169343D01*
X0116792Y0169364D01*
X0116610Y0169381D01*
X0116428Y0169393D01*
X0116246Y0169400D01*
X0116064Y0169404D01*
D17*
X0122214Y0166900D02*
X0122214Y0164900D01*
X0122214Y0158500D02*
X0122214Y0156700D01*
X0152214Y0156700D02*
X0152214Y0158500D01*
X0152214Y0164900D02*
X0152214Y0166900D01*
X0182214Y0166900D02*
X0182214Y0164900D01*
X0182214Y0158500D02*
X0182214Y0156700D01*
D18*
X0178943Y0186800D02*
X0178945Y0186974D01*
X0178952Y0187147D01*
X0178962Y0187320D01*
X0178977Y0187493D01*
X0178996Y0187666D01*
X0179020Y0187838D01*
X0179047Y0188009D01*
X0179079Y0188179D01*
X0179115Y0188349D01*
X0179155Y0188518D01*
X0179199Y0188686D01*
X0179247Y0188853D01*
X0179300Y0189018D01*
X0179356Y0189182D01*
X0179417Y0189345D01*
X0179481Y0189506D01*
X0179550Y0189665D01*
X0179622Y0189823D01*
X0179698Y0189979D01*
X0179778Y0190133D01*
X0179862Y0190285D01*
X0179949Y0190435D01*
X0180040Y0190583D01*
X0180135Y0190728D01*
X0180233Y0190872D01*
X0180335Y0191012D01*
X0180440Y0191150D01*
X0180548Y0191286D01*
X0180660Y0191419D01*
X0180775Y0191549D01*
X0180893Y0191676D01*
X0181014Y0191800D01*
X0181138Y0191921D01*
X0181265Y0192039D01*
X0181395Y0192154D01*
X0181528Y0192266D01*
X0181664Y0192374D01*
X0181802Y0192479D01*
X0181942Y0192581D01*
X0182086Y0192679D01*
X0182231Y0192774D01*
X0182379Y0192865D01*
X0182529Y0192952D01*
X0182681Y0193036D01*
X0182835Y0193116D01*
X0182991Y0193192D01*
X0183149Y0193264D01*
X0183308Y0193333D01*
X0183469Y0193397D01*
X0183632Y0193458D01*
X0183796Y0193514D01*
X0183961Y0193567D01*
X0184128Y0193615D01*
X0184296Y0193659D01*
X0184465Y0193699D01*
X0184635Y0193735D01*
X0184805Y0193767D01*
X0184976Y0193794D01*
X0185148Y0193818D01*
X0185321Y0193837D01*
X0185494Y0193852D01*
X0185667Y0193862D01*
X0185840Y0193869D01*
X0186014Y0193871D01*
X0186188Y0193869D01*
X0186361Y0193862D01*
X0186534Y0193852D01*
X0186707Y0193837D01*
X0186880Y0193818D01*
X0187052Y0193794D01*
X0187223Y0193767D01*
X0187393Y0193735D01*
X0187563Y0193699D01*
X0187732Y0193659D01*
X0187900Y0193615D01*
X0188067Y0193567D01*
X0188232Y0193514D01*
X0188396Y0193458D01*
X0188559Y0193397D01*
X0188720Y0193333D01*
X0188879Y0193264D01*
X0189037Y0193192D01*
X0189193Y0193116D01*
X0189347Y0193036D01*
X0189499Y0192952D01*
X0189649Y0192865D01*
X0189797Y0192774D01*
X0189942Y0192679D01*
X0190086Y0192581D01*
X0190226Y0192479D01*
X0190364Y0192374D01*
X0190500Y0192266D01*
X0190633Y0192154D01*
X0190763Y0192039D01*
X0190890Y0191921D01*
X0191014Y0191800D01*
X0191135Y0191676D01*
X0191253Y0191549D01*
X0191368Y0191419D01*
X0191480Y0191286D01*
X0191588Y0191150D01*
X0191693Y0191012D01*
X0191795Y0190872D01*
X0191893Y0190728D01*
X0191988Y0190583D01*
X0192079Y0190435D01*
X0192166Y0190285D01*
X0192250Y0190133D01*
X0192330Y0189979D01*
X0192406Y0189823D01*
X0192478Y0189665D01*
X0192547Y0189506D01*
X0192611Y0189345D01*
X0192672Y0189182D01*
X0192728Y0189018D01*
X0192781Y0188853D01*
X0192829Y0188686D01*
X0192873Y0188518D01*
X0192913Y0188349D01*
X0192949Y0188179D01*
X0192981Y0188009D01*
X0193008Y0187838D01*
X0193032Y0187666D01*
X0193051Y0187493D01*
X0193066Y0187320D01*
X0193076Y0187147D01*
X0193083Y0186974D01*
X0193085Y0186800D01*
X0193083Y0186626D01*
X0193076Y0186453D01*
X0193066Y0186280D01*
X0193051Y0186107D01*
X0193032Y0185934D01*
X0193008Y0185762D01*
X0192981Y0185591D01*
X0192949Y0185421D01*
X0192913Y0185251D01*
X0192873Y0185082D01*
X0192829Y0184914D01*
X0192781Y0184747D01*
X0192728Y0184582D01*
X0192672Y0184418D01*
X0192611Y0184255D01*
X0192547Y0184094D01*
X0192478Y0183935D01*
X0192406Y0183777D01*
X0192330Y0183621D01*
X0192250Y0183467D01*
X0192166Y0183315D01*
X0192079Y0183165D01*
X0191988Y0183017D01*
X0191893Y0182872D01*
X0191795Y0182728D01*
X0191693Y0182588D01*
X0191588Y0182450D01*
X0191480Y0182314D01*
X0191368Y0182181D01*
X0191253Y0182051D01*
X0191135Y0181924D01*
X0191014Y0181800D01*
X0190890Y0181679D01*
X0190763Y0181561D01*
X0190633Y0181446D01*
X0190500Y0181334D01*
X0190364Y0181226D01*
X0190226Y0181121D01*
X0190086Y0181019D01*
X0189942Y0180921D01*
X0189797Y0180826D01*
X0189649Y0180735D01*
X0189499Y0180648D01*
X0189347Y0180564D01*
X0189193Y0180484D01*
X0189037Y0180408D01*
X0188879Y0180336D01*
X0188720Y0180267D01*
X0188559Y0180203D01*
X0188396Y0180142D01*
X0188232Y0180086D01*
X0188067Y0180033D01*
X0187900Y0179985D01*
X0187732Y0179941D01*
X0187563Y0179901D01*
X0187393Y0179865D01*
X0187223Y0179833D01*
X0187052Y0179806D01*
X0186880Y0179782D01*
X0186707Y0179763D01*
X0186534Y0179748D01*
X0186361Y0179738D01*
X0186188Y0179731D01*
X0186014Y0179729D01*
X0185840Y0179731D01*
X0185667Y0179738D01*
X0185494Y0179748D01*
X0185321Y0179763D01*
X0185148Y0179782D01*
X0184976Y0179806D01*
X0184805Y0179833D01*
X0184635Y0179865D01*
X0184465Y0179901D01*
X0184296Y0179941D01*
X0184128Y0179985D01*
X0183961Y0180033D01*
X0183796Y0180086D01*
X0183632Y0180142D01*
X0183469Y0180203D01*
X0183308Y0180267D01*
X0183149Y0180336D01*
X0182991Y0180408D01*
X0182835Y0180484D01*
X0182681Y0180564D01*
X0182529Y0180648D01*
X0182379Y0180735D01*
X0182231Y0180826D01*
X0182086Y0180921D01*
X0181942Y0181019D01*
X0181802Y0181121D01*
X0181664Y0181226D01*
X0181528Y0181334D01*
X0181395Y0181446D01*
X0181265Y0181561D01*
X0181138Y0181679D01*
X0181014Y0181800D01*
X0180893Y0181924D01*
X0180775Y0182051D01*
X0180660Y0182181D01*
X0180548Y0182314D01*
X0180440Y0182450D01*
X0180335Y0182588D01*
X0180233Y0182728D01*
X0180135Y0182872D01*
X0180040Y0183017D01*
X0179949Y0183165D01*
X0179862Y0183315D01*
X0179778Y0183467D01*
X0179698Y0183621D01*
X0179622Y0183777D01*
X0179550Y0183935D01*
X0179481Y0184094D01*
X0179417Y0184255D01*
X0179356Y0184418D01*
X0179300Y0184582D01*
X0179247Y0184747D01*
X0179199Y0184914D01*
X0179155Y0185082D01*
X0179115Y0185251D01*
X0179079Y0185421D01*
X0179047Y0185591D01*
X0179020Y0185762D01*
X0178996Y0185934D01*
X0178977Y0186107D01*
X0178962Y0186280D01*
X0178952Y0186453D01*
X0178945Y0186626D01*
X0178943Y0186800D01*
X0148943Y0186800D02*
X0148945Y0186974D01*
X0148952Y0187147D01*
X0148962Y0187320D01*
X0148977Y0187493D01*
X0148996Y0187666D01*
X0149020Y0187838D01*
X0149047Y0188009D01*
X0149079Y0188179D01*
X0149115Y0188349D01*
X0149155Y0188518D01*
X0149199Y0188686D01*
X0149247Y0188853D01*
X0149300Y0189018D01*
X0149356Y0189182D01*
X0149417Y0189345D01*
X0149481Y0189506D01*
X0149550Y0189665D01*
X0149622Y0189823D01*
X0149698Y0189979D01*
X0149778Y0190133D01*
X0149862Y0190285D01*
X0149949Y0190435D01*
X0150040Y0190583D01*
X0150135Y0190728D01*
X0150233Y0190872D01*
X0150335Y0191012D01*
X0150440Y0191150D01*
X0150548Y0191286D01*
X0150660Y0191419D01*
X0150775Y0191549D01*
X0150893Y0191676D01*
X0151014Y0191800D01*
X0151138Y0191921D01*
X0151265Y0192039D01*
X0151395Y0192154D01*
X0151528Y0192266D01*
X0151664Y0192374D01*
X0151802Y0192479D01*
X0151942Y0192581D01*
X0152086Y0192679D01*
X0152231Y0192774D01*
X0152379Y0192865D01*
X0152529Y0192952D01*
X0152681Y0193036D01*
X0152835Y0193116D01*
X0152991Y0193192D01*
X0153149Y0193264D01*
X0153308Y0193333D01*
X0153469Y0193397D01*
X0153632Y0193458D01*
X0153796Y0193514D01*
X0153961Y0193567D01*
X0154128Y0193615D01*
X0154296Y0193659D01*
X0154465Y0193699D01*
X0154635Y0193735D01*
X0154805Y0193767D01*
X0154976Y0193794D01*
X0155148Y0193818D01*
X0155321Y0193837D01*
X0155494Y0193852D01*
X0155667Y0193862D01*
X0155840Y0193869D01*
X0156014Y0193871D01*
X0156188Y0193869D01*
X0156361Y0193862D01*
X0156534Y0193852D01*
X0156707Y0193837D01*
X0156880Y0193818D01*
X0157052Y0193794D01*
X0157223Y0193767D01*
X0157393Y0193735D01*
X0157563Y0193699D01*
X0157732Y0193659D01*
X0157900Y0193615D01*
X0158067Y0193567D01*
X0158232Y0193514D01*
X0158396Y0193458D01*
X0158559Y0193397D01*
X0158720Y0193333D01*
X0158879Y0193264D01*
X0159037Y0193192D01*
X0159193Y0193116D01*
X0159347Y0193036D01*
X0159499Y0192952D01*
X0159649Y0192865D01*
X0159797Y0192774D01*
X0159942Y0192679D01*
X0160086Y0192581D01*
X0160226Y0192479D01*
X0160364Y0192374D01*
X0160500Y0192266D01*
X0160633Y0192154D01*
X0160763Y0192039D01*
X0160890Y0191921D01*
X0161014Y0191800D01*
X0161135Y0191676D01*
X0161253Y0191549D01*
X0161368Y0191419D01*
X0161480Y0191286D01*
X0161588Y0191150D01*
X0161693Y0191012D01*
X0161795Y0190872D01*
X0161893Y0190728D01*
X0161988Y0190583D01*
X0162079Y0190435D01*
X0162166Y0190285D01*
X0162250Y0190133D01*
X0162330Y0189979D01*
X0162406Y0189823D01*
X0162478Y0189665D01*
X0162547Y0189506D01*
X0162611Y0189345D01*
X0162672Y0189182D01*
X0162728Y0189018D01*
X0162781Y0188853D01*
X0162829Y0188686D01*
X0162873Y0188518D01*
X0162913Y0188349D01*
X0162949Y0188179D01*
X0162981Y0188009D01*
X0163008Y0187838D01*
X0163032Y0187666D01*
X0163051Y0187493D01*
X0163066Y0187320D01*
X0163076Y0187147D01*
X0163083Y0186974D01*
X0163085Y0186800D01*
X0163083Y0186626D01*
X0163076Y0186453D01*
X0163066Y0186280D01*
X0163051Y0186107D01*
X0163032Y0185934D01*
X0163008Y0185762D01*
X0162981Y0185591D01*
X0162949Y0185421D01*
X0162913Y0185251D01*
X0162873Y0185082D01*
X0162829Y0184914D01*
X0162781Y0184747D01*
X0162728Y0184582D01*
X0162672Y0184418D01*
X0162611Y0184255D01*
X0162547Y0184094D01*
X0162478Y0183935D01*
X0162406Y0183777D01*
X0162330Y0183621D01*
X0162250Y0183467D01*
X0162166Y0183315D01*
X0162079Y0183165D01*
X0161988Y0183017D01*
X0161893Y0182872D01*
X0161795Y0182728D01*
X0161693Y0182588D01*
X0161588Y0182450D01*
X0161480Y0182314D01*
X0161368Y0182181D01*
X0161253Y0182051D01*
X0161135Y0181924D01*
X0161014Y0181800D01*
X0160890Y0181679D01*
X0160763Y0181561D01*
X0160633Y0181446D01*
X0160500Y0181334D01*
X0160364Y0181226D01*
X0160226Y0181121D01*
X0160086Y0181019D01*
X0159942Y0180921D01*
X0159797Y0180826D01*
X0159649Y0180735D01*
X0159499Y0180648D01*
X0159347Y0180564D01*
X0159193Y0180484D01*
X0159037Y0180408D01*
X0158879Y0180336D01*
X0158720Y0180267D01*
X0158559Y0180203D01*
X0158396Y0180142D01*
X0158232Y0180086D01*
X0158067Y0180033D01*
X0157900Y0179985D01*
X0157732Y0179941D01*
X0157563Y0179901D01*
X0157393Y0179865D01*
X0157223Y0179833D01*
X0157052Y0179806D01*
X0156880Y0179782D01*
X0156707Y0179763D01*
X0156534Y0179748D01*
X0156361Y0179738D01*
X0156188Y0179731D01*
X0156014Y0179729D01*
X0155840Y0179731D01*
X0155667Y0179738D01*
X0155494Y0179748D01*
X0155321Y0179763D01*
X0155148Y0179782D01*
X0154976Y0179806D01*
X0154805Y0179833D01*
X0154635Y0179865D01*
X0154465Y0179901D01*
X0154296Y0179941D01*
X0154128Y0179985D01*
X0153961Y0180033D01*
X0153796Y0180086D01*
X0153632Y0180142D01*
X0153469Y0180203D01*
X0153308Y0180267D01*
X0153149Y0180336D01*
X0152991Y0180408D01*
X0152835Y0180484D01*
X0152681Y0180564D01*
X0152529Y0180648D01*
X0152379Y0180735D01*
X0152231Y0180826D01*
X0152086Y0180921D01*
X0151942Y0181019D01*
X0151802Y0181121D01*
X0151664Y0181226D01*
X0151528Y0181334D01*
X0151395Y0181446D01*
X0151265Y0181561D01*
X0151138Y0181679D01*
X0151014Y0181800D01*
X0150893Y0181924D01*
X0150775Y0182051D01*
X0150660Y0182181D01*
X0150548Y0182314D01*
X0150440Y0182450D01*
X0150335Y0182588D01*
X0150233Y0182728D01*
X0150135Y0182872D01*
X0150040Y0183017D01*
X0149949Y0183165D01*
X0149862Y0183315D01*
X0149778Y0183467D01*
X0149698Y0183621D01*
X0149622Y0183777D01*
X0149550Y0183935D01*
X0149481Y0184094D01*
X0149417Y0184255D01*
X0149356Y0184418D01*
X0149300Y0184582D01*
X0149247Y0184747D01*
X0149199Y0184914D01*
X0149155Y0185082D01*
X0149115Y0185251D01*
X0149079Y0185421D01*
X0149047Y0185591D01*
X0149020Y0185762D01*
X0148996Y0185934D01*
X0148977Y0186107D01*
X0148962Y0186280D01*
X0148952Y0186453D01*
X0148945Y0186626D01*
X0148943Y0186800D01*
D19*
X0068014Y0190800D02*
X0068014Y0152800D01*
X0067014Y0151800D01*
X0055514Y0151800D01*
X0068014Y0190800D02*
X0067014Y0191800D01*
X0055514Y0191800D01*
D20*
X0065614Y0153600D03*
D21*
X0053514Y0154550D03*
X0053514Y0189050D03*
D22*
X0052514Y0181800D03*
X0052514Y0171800D03*
X0052514Y0161800D03*
D23*
X0053514Y0166800D03*
X0053514Y0176800D03*
M02*
