G75*
%MOIN*%
%OFA0B0*%
%FSLAX25Y25*%
%IPPOS*%
%LPD*%
%AMOC8*
5,1,8,0,0,1.08239X$1,22.5*
%
%ADD10C,0.00000*%
%ADD11C,0.06500*%
%ADD12R,0.06500X0.06500*%
%ADD13C,0.07400*%
%ADD14R,0.07400X0.07400*%
%ADD15C,0.07600*%
%ADD16C,0.06496*%
%ADD17C,0.05150*%
%ADD18C,0.11220*%
%ADD19C,0.06000*%
%ADD20C,0.01600*%
%ADD21OC8,0.03562*%
D10*
X0006014Y0001800D02*
X0006014Y0198650D01*
X0202864Y0198650D01*
X0202864Y0001800D01*
X0006014Y0001800D01*
D11*
X0063514Y0031800D03*
X0073514Y0031800D03*
X0166014Y0061800D03*
X0151014Y0131800D03*
X0151014Y0141800D03*
X0096014Y0156800D03*
X0096014Y0166800D03*
X0081014Y0156800D03*
X0081014Y0181800D03*
X0081014Y0191800D03*
D12*
X0081014Y0166800D03*
X0156014Y0061800D03*
D13*
X0196014Y0061800D03*
X0196014Y0071800D03*
X0196014Y0081800D03*
X0191014Y0106800D03*
X0171014Y0106800D03*
X0171014Y0146800D03*
X0171014Y0161800D03*
X0181014Y0161800D03*
X0191014Y0146800D03*
X0151014Y0161800D03*
X0141014Y0161800D03*
X0131014Y0179300D03*
X0131014Y0191800D03*
X0121014Y0161800D03*
X0111014Y0161800D03*
X0091014Y0179300D03*
X0091014Y0191800D03*
X0073514Y0126800D03*
X0033514Y0126800D03*
X0011014Y0121800D03*
X0011014Y0111800D03*
X0011014Y0131800D03*
X0011014Y0081800D03*
X0011014Y0071800D03*
X0011014Y0061800D03*
X0011014Y0031800D03*
X0011014Y0021800D03*
X0011014Y0011800D03*
X0041014Y0011800D03*
X0051014Y0011800D03*
X0061014Y0011800D03*
X0071014Y0011800D03*
X0081014Y0011800D03*
X0196014Y0011800D03*
X0196014Y0021800D03*
X0196014Y0031800D03*
D14*
X0196014Y0041800D03*
X0196014Y0091800D03*
X0011014Y0091800D03*
X0011014Y0041800D03*
X0011014Y0141800D03*
D15*
X0051014Y0066800D03*
X0051014Y0056800D03*
X0051014Y0046800D03*
X0146014Y0186800D03*
X0166014Y0186800D03*
X0176014Y0186800D03*
X0196014Y0186800D03*
D16*
X0134262Y0141800D02*
X0127766Y0141800D01*
X0127766Y0131800D02*
X0134262Y0131800D01*
X0134262Y0121800D02*
X0127766Y0121800D01*
X0127766Y0111800D02*
X0134262Y0111800D01*
X0134262Y0101800D02*
X0127766Y0101800D01*
X0127766Y0091800D02*
X0134262Y0091800D01*
X0134262Y0081800D02*
X0127766Y0081800D01*
X0127766Y0071800D02*
X0134262Y0071800D01*
X0134262Y0061800D02*
X0127766Y0061800D01*
X0127766Y0051800D02*
X0134262Y0051800D01*
X0134262Y0041800D02*
X0127766Y0041800D01*
X0127766Y0031800D02*
X0134262Y0031800D01*
X0134262Y0021800D02*
X0127766Y0021800D01*
X0127766Y0011800D02*
X0134262Y0011800D01*
X0104262Y0011800D02*
X0097766Y0011800D01*
X0097766Y0021800D02*
X0104262Y0021800D01*
X0104262Y0031800D02*
X0097766Y0031800D01*
X0097766Y0041800D02*
X0104262Y0041800D01*
X0104262Y0051800D02*
X0097766Y0051800D01*
X0097766Y0061800D02*
X0104262Y0061800D01*
X0104262Y0071800D02*
X0097766Y0071800D01*
X0097766Y0081800D02*
X0104262Y0081800D01*
X0104262Y0091800D02*
X0097766Y0091800D01*
X0097766Y0101800D02*
X0104262Y0101800D01*
X0104262Y0111800D02*
X0097766Y0111800D01*
X0097766Y0121800D02*
X0104262Y0121800D01*
X0104262Y0131800D02*
X0097766Y0131800D01*
X0097766Y0141800D02*
X0104262Y0141800D01*
D17*
X0037014Y0169800D03*
X0037014Y0176800D03*
X0030814Y0173500D03*
X0030814Y0180400D03*
X0037014Y0183500D03*
D18*
X0016014Y0191170D03*
X0016014Y0162430D03*
D19*
X0058014Y0161800D02*
X0064014Y0161800D01*
X0064014Y0171800D02*
X0058014Y0171800D01*
X0058014Y0181800D02*
X0064014Y0181800D01*
D20*
X0061014Y0181800D02*
X0048514Y0181800D01*
X0045564Y0183500D01*
X0037014Y0183500D01*
X0040684Y0186300D02*
X0039605Y0187378D01*
X0037924Y0188075D01*
X0036104Y0188075D01*
X0034422Y0187378D01*
X0033135Y0186091D01*
X0032534Y0184639D01*
X0031724Y0184975D01*
X0029904Y0184975D01*
X0028222Y0184278D01*
X0026935Y0182991D01*
X0026239Y0181310D01*
X0026239Y0179490D01*
X0026935Y0177809D01*
X0027794Y0176950D01*
X0026935Y0176091D01*
X0026239Y0174410D01*
X0026239Y0172590D01*
X0026935Y0170909D01*
X0028222Y0169622D01*
X0029904Y0168925D01*
X0031724Y0168925D01*
X0032439Y0169221D01*
X0032439Y0168890D01*
X0033135Y0167209D01*
X0034422Y0165922D01*
X0036104Y0165225D01*
X0037924Y0165225D01*
X0039605Y0165922D01*
X0040892Y0167209D01*
X0041589Y0168890D01*
X0041589Y0170710D01*
X0040892Y0172391D01*
X0039984Y0173300D01*
X0040892Y0174209D01*
X0041589Y0175890D01*
X0041589Y0177710D01*
X0040892Y0179391D01*
X0040134Y0180150D01*
X0040684Y0180700D01*
X0044815Y0180700D01*
X0046795Y0179559D01*
X0046928Y0179426D01*
X0047274Y0179283D01*
X0047598Y0179096D01*
X0047784Y0179072D01*
X0047957Y0179000D01*
X0048331Y0179000D01*
X0048703Y0178951D01*
X0048884Y0179000D01*
X0053762Y0179000D01*
X0053775Y0178968D01*
X0055181Y0177561D01*
X0057019Y0176800D01*
X0065008Y0176800D01*
X0066846Y0177561D01*
X0068253Y0178968D01*
X0068266Y0179000D01*
X0076491Y0179000D01*
X0076563Y0178826D01*
X0078040Y0177349D01*
X0079969Y0176550D01*
X0082058Y0176550D01*
X0083988Y0177349D01*
X0085314Y0178675D01*
X0085314Y0178166D01*
X0086182Y0176071D01*
X0087785Y0174468D01*
X0088214Y0174290D01*
X0088214Y0171243D01*
X0088640Y0170214D01*
X0089254Y0169600D01*
X0086264Y0169600D01*
X0086264Y0170878D01*
X0085092Y0172050D01*
X0076935Y0172050D01*
X0075764Y0170878D01*
X0075764Y0169600D01*
X0074674Y0169600D01*
X0070888Y0173386D01*
X0070100Y0174174D01*
X0069071Y0174600D01*
X0068266Y0174600D01*
X0068253Y0174632D01*
X0066846Y0176039D01*
X0065008Y0176800D01*
X0057019Y0176800D01*
X0055181Y0176039D01*
X0053775Y0174632D01*
X0053014Y0172795D01*
X0053014Y0170805D01*
X0053775Y0168968D01*
X0055181Y0167561D01*
X0057019Y0166800D01*
X0055181Y0166039D01*
X0053775Y0164632D01*
X0053014Y0162795D01*
X0053014Y0160805D01*
X0053775Y0158968D01*
X0055181Y0157561D01*
X0057019Y0156800D01*
X0065008Y0156800D01*
X0066846Y0157561D01*
X0068253Y0158968D01*
X0069014Y0160805D01*
X0069014Y0162795D01*
X0068253Y0164632D01*
X0066846Y0166039D01*
X0065008Y0166800D01*
X0057019Y0166800D01*
X0065008Y0166800D01*
X0066846Y0167561D01*
X0067819Y0168535D01*
X0071928Y0164426D01*
X0072957Y0164000D01*
X0075764Y0164000D01*
X0075764Y0162722D01*
X0076935Y0161550D01*
X0078762Y0161550D01*
X0078040Y0161251D01*
X0076563Y0159774D01*
X0075764Y0157844D01*
X0075764Y0155756D01*
X0076563Y0153826D01*
X0078040Y0152349D01*
X0079969Y0151550D01*
X0082058Y0151550D01*
X0083988Y0152349D01*
X0085465Y0153826D01*
X0086264Y0155756D01*
X0086264Y0157844D01*
X0085465Y0159774D01*
X0083988Y0161251D01*
X0083265Y0161550D01*
X0085092Y0161550D01*
X0086264Y0162722D01*
X0086264Y0164000D01*
X0091491Y0164000D01*
X0091563Y0163826D01*
X0093040Y0162349D01*
X0094366Y0161800D01*
X0093040Y0161251D01*
X0091563Y0159774D01*
X0090764Y0157844D01*
X0090764Y0155756D01*
X0091563Y0153826D01*
X0093040Y0152349D01*
X0094969Y0151550D01*
X0097058Y0151550D01*
X0098988Y0152349D01*
X0100465Y0153826D01*
X0101264Y0155756D01*
X0101264Y0157844D01*
X0100465Y0159774D01*
X0098988Y0161251D01*
X0097662Y0161800D01*
X0098988Y0162349D01*
X0100465Y0163826D01*
X0100537Y0164000D01*
X0104854Y0164000D01*
X0105491Y0163363D01*
X0105314Y0162934D01*
X0105314Y0160666D01*
X0106182Y0158571D01*
X0107785Y0156968D01*
X0109880Y0156100D01*
X0112148Y0156100D01*
X0112576Y0156278D01*
X0123699Y0145155D01*
X0123317Y0144773D01*
X0122518Y0142844D01*
X0122518Y0142264D01*
X0119428Y0139174D01*
X0118640Y0138386D01*
X0118214Y0137357D01*
X0118214Y0096243D01*
X0118640Y0095214D01*
X0122054Y0091800D01*
X0119428Y0089174D01*
X0118640Y0088386D01*
X0118214Y0087357D01*
X0118214Y0024347D01*
X0117233Y0023366D01*
X0117233Y0020234D01*
X0119448Y0018019D01*
X0122580Y0018019D01*
X0123352Y0018791D01*
X0124793Y0017351D01*
X0126123Y0016800D01*
X0124793Y0016249D01*
X0123317Y0014773D01*
X0122518Y0012844D01*
X0122518Y0010756D01*
X0123317Y0008827D01*
X0124793Y0007351D01*
X0126722Y0006552D01*
X0135306Y0006552D01*
X0137235Y0007351D01*
X0138711Y0008827D01*
X0138782Y0009000D01*
X0191004Y0009000D01*
X0191182Y0008571D01*
X0192785Y0006968D01*
X0194880Y0006100D01*
X0197148Y0006100D01*
X0199243Y0006968D01*
X0200846Y0008571D01*
X0200864Y0008614D01*
X0200864Y0003800D01*
X0114474Y0003800D01*
X0115100Y0004426D01*
X0115887Y0005214D01*
X0116314Y0006243D01*
X0116314Y0124857D01*
X0115887Y0125886D01*
X0109510Y0132264D01*
X0109510Y0132844D01*
X0108711Y0134773D01*
X0107235Y0136249D01*
X0105904Y0136800D01*
X0107235Y0137351D01*
X0108711Y0138827D01*
X0109510Y0140756D01*
X0109510Y0142844D01*
X0108711Y0144773D01*
X0107235Y0146249D01*
X0105306Y0147048D01*
X0096722Y0147048D01*
X0094793Y0146249D01*
X0093317Y0144773D01*
X0093245Y0144600D01*
X0016714Y0144600D01*
X0016714Y0146328D01*
X0015542Y0147500D01*
X0008014Y0147500D01*
X0008014Y0196650D01*
X0010731Y0196650D01*
X0009562Y0195481D01*
X0008404Y0192684D01*
X0008404Y0189656D01*
X0009562Y0186859D01*
X0011703Y0184718D01*
X0014500Y0183560D01*
X0017528Y0183560D01*
X0020325Y0184718D01*
X0022465Y0186859D01*
X0023624Y0189656D01*
X0023624Y0192684D01*
X0022465Y0195481D01*
X0021296Y0196650D01*
X0079004Y0196650D01*
X0078040Y0196251D01*
X0076563Y0194774D01*
X0075764Y0192844D01*
X0075764Y0190756D01*
X0076563Y0188826D01*
X0078040Y0187349D01*
X0079366Y0186800D01*
X0078040Y0186251D01*
X0076563Y0184774D01*
X0076491Y0184600D01*
X0068266Y0184600D01*
X0068253Y0184632D01*
X0066846Y0186039D01*
X0065008Y0186800D01*
X0057019Y0186800D01*
X0055181Y0186039D01*
X0053775Y0184632D01*
X0053762Y0184600D01*
X0049263Y0184600D01*
X0047282Y0185741D01*
X0047150Y0185874D01*
X0046804Y0186017D01*
X0046479Y0186204D01*
X0046294Y0186228D01*
X0046121Y0186300D01*
X0045746Y0186300D01*
X0045375Y0186349D01*
X0045194Y0186300D01*
X0040684Y0186300D01*
X0039756Y0187227D02*
X0078334Y0187227D01*
X0077418Y0185629D02*
X0067256Y0185629D01*
X0061014Y0181800D02*
X0081014Y0181800D01*
X0084610Y0185629D02*
X0088214Y0185629D01*
X0088214Y0186790D02*
X0088214Y0184310D01*
X0087785Y0184132D01*
X0086264Y0182611D01*
X0086264Y0182844D01*
X0085465Y0184774D01*
X0083988Y0186251D01*
X0082662Y0186800D01*
X0083988Y0187349D01*
X0085465Y0188826D01*
X0085770Y0189564D01*
X0086182Y0188571D01*
X0087785Y0186968D01*
X0088214Y0186790D01*
X0087525Y0187227D02*
X0083693Y0187227D01*
X0085464Y0188826D02*
X0086076Y0188826D01*
X0085773Y0184030D02*
X0087683Y0184030D01*
X0091014Y0179300D02*
X0091014Y0191800D01*
X0096429Y0193621D02*
X0125599Y0193621D01*
X0125314Y0192934D02*
X0126182Y0195029D01*
X0127785Y0196632D01*
X0127828Y0196650D01*
X0094200Y0196650D01*
X0094243Y0196632D01*
X0095846Y0195029D01*
X0096714Y0192934D01*
X0096714Y0190666D01*
X0095846Y0188571D01*
X0094243Y0186968D01*
X0093814Y0186790D01*
X0093814Y0184310D01*
X0094243Y0184132D01*
X0095846Y0182529D01*
X0096714Y0180434D01*
X0096714Y0178166D01*
X0095846Y0176071D01*
X0094243Y0174468D01*
X0093814Y0174290D01*
X0093814Y0172960D01*
X0094796Y0171978D01*
X0094969Y0172050D01*
X0097058Y0172050D01*
X0098988Y0171251D01*
X0100465Y0169774D01*
X0100537Y0169600D01*
X0106571Y0169600D01*
X0107600Y0169174D01*
X0108387Y0168386D01*
X0109451Y0167322D01*
X0109880Y0167500D01*
X0112148Y0167500D01*
X0114243Y0166632D01*
X0115846Y0165029D01*
X0116014Y0164624D01*
X0116182Y0165029D01*
X0117785Y0166632D01*
X0119880Y0167500D01*
X0122148Y0167500D01*
X0124243Y0166632D01*
X0125846Y0165029D01*
X0126714Y0162934D01*
X0126714Y0160666D01*
X0125846Y0158571D01*
X0124243Y0156968D01*
X0122148Y0156100D01*
X0120674Y0156100D01*
X0129726Y0147048D01*
X0135306Y0147048D01*
X0137235Y0146249D01*
X0138711Y0144773D01*
X0138782Y0144600D01*
X0146491Y0144600D01*
X0146563Y0144774D01*
X0148040Y0146251D01*
X0149969Y0147050D01*
X0152058Y0147050D01*
X0153988Y0146251D01*
X0155465Y0144774D01*
X0156264Y0142844D01*
X0156264Y0140756D01*
X0155465Y0138826D01*
X0153988Y0137349D01*
X0152662Y0136800D01*
X0153988Y0136251D01*
X0155465Y0134774D01*
X0156264Y0132844D01*
X0156264Y0130756D01*
X0155465Y0128826D01*
X0153988Y0127349D01*
X0152058Y0126550D01*
X0149969Y0126550D01*
X0148040Y0127349D01*
X0146563Y0128826D01*
X0145764Y0130756D01*
X0145764Y0132844D01*
X0146563Y0134774D01*
X0148040Y0136251D01*
X0149366Y0136800D01*
X0148040Y0137349D01*
X0146563Y0138826D01*
X0146491Y0139000D01*
X0138782Y0139000D01*
X0138711Y0138827D01*
X0137235Y0137351D01*
X0135904Y0136800D01*
X0137235Y0136249D01*
X0138711Y0134773D01*
X0139510Y0132844D01*
X0139510Y0130756D01*
X0138711Y0128827D01*
X0137235Y0127351D01*
X0135904Y0126800D01*
X0137235Y0126249D01*
X0138711Y0124773D01*
X0138782Y0124600D01*
X0141571Y0124600D01*
X0142600Y0124174D01*
X0172174Y0094600D01*
X0179254Y0094600D01*
X0172576Y0101278D01*
X0172148Y0101100D01*
X0169880Y0101100D01*
X0167785Y0101968D01*
X0166182Y0103571D01*
X0165314Y0105666D01*
X0165314Y0107934D01*
X0166182Y0110029D01*
X0167785Y0111632D01*
X0169880Y0112500D01*
X0172148Y0112500D01*
X0174243Y0111632D01*
X0175846Y0110029D01*
X0176714Y0107934D01*
X0176714Y0105666D01*
X0176536Y0105237D01*
X0187174Y0094600D01*
X0190314Y0094600D01*
X0190314Y0096328D01*
X0191485Y0097500D01*
X0200542Y0097500D01*
X0200864Y0097178D01*
X0200864Y0183448D01*
X0199299Y0181883D01*
X0197167Y0181000D01*
X0194860Y0181000D01*
X0192728Y0181883D01*
X0191097Y0183515D01*
X0190214Y0185646D01*
X0190214Y0187954D01*
X0191097Y0190085D01*
X0192728Y0191717D01*
X0194860Y0192600D01*
X0197167Y0192600D01*
X0199299Y0191717D01*
X0200864Y0190152D01*
X0200864Y0196650D01*
X0134200Y0196650D01*
X0134243Y0196632D01*
X0135846Y0195029D01*
X0136024Y0194600D01*
X0141571Y0194600D01*
X0142600Y0194174D01*
X0144375Y0192399D01*
X0144860Y0192600D01*
X0147167Y0192600D01*
X0149299Y0191717D01*
X0150931Y0190085D01*
X0151814Y0187954D01*
X0151814Y0185646D01*
X0150931Y0183515D01*
X0149516Y0182100D01*
X0162511Y0182100D01*
X0161097Y0183515D01*
X0160214Y0185646D01*
X0160214Y0187954D01*
X0161097Y0190085D01*
X0162728Y0191717D01*
X0164860Y0192600D01*
X0167167Y0192600D01*
X0169299Y0191717D01*
X0170931Y0190085D01*
X0171014Y0189885D01*
X0171097Y0190085D01*
X0172728Y0191717D01*
X0174860Y0192600D01*
X0177167Y0192600D01*
X0179299Y0191717D01*
X0180931Y0190085D01*
X0181814Y0187954D01*
X0181814Y0185646D01*
X0180931Y0183515D01*
X0179299Y0181883D01*
X0177167Y0181000D01*
X0174860Y0181000D01*
X0174375Y0181201D01*
X0170100Y0176926D01*
X0169071Y0176500D01*
X0136024Y0176500D01*
X0135846Y0176071D01*
X0134243Y0174468D01*
X0132148Y0173600D01*
X0129880Y0173600D01*
X0127785Y0174468D01*
X0126182Y0176071D01*
X0125314Y0178166D01*
X0125314Y0180434D01*
X0126182Y0182529D01*
X0127785Y0184132D01*
X0129880Y0185000D01*
X0132148Y0185000D01*
X0134243Y0184132D01*
X0135846Y0182529D01*
X0136024Y0182100D01*
X0142511Y0182100D01*
X0141097Y0183515D01*
X0140214Y0185646D01*
X0140214Y0187954D01*
X0140415Y0188439D01*
X0139854Y0189000D01*
X0136024Y0189000D01*
X0135846Y0188571D01*
X0134243Y0186968D01*
X0132148Y0186100D01*
X0129880Y0186100D01*
X0127785Y0186968D01*
X0126182Y0188571D01*
X0125314Y0190666D01*
X0125314Y0192934D01*
X0125314Y0192023D02*
X0096714Y0192023D01*
X0096614Y0190424D02*
X0125414Y0190424D01*
X0126076Y0188826D02*
X0095951Y0188826D01*
X0094502Y0187227D02*
X0127525Y0187227D01*
X0127683Y0184030D02*
X0094345Y0184030D01*
X0093814Y0185629D02*
X0140221Y0185629D01*
X0140214Y0187227D02*
X0134502Y0187227D01*
X0135951Y0188826D02*
X0140028Y0188826D01*
X0141014Y0191800D02*
X0146014Y0186800D01*
X0151453Y0188826D02*
X0160575Y0188826D01*
X0160214Y0187227D02*
X0151814Y0187227D01*
X0151807Y0185629D02*
X0160221Y0185629D01*
X0160883Y0184030D02*
X0151144Y0184030D01*
X0149848Y0182432D02*
X0162180Y0182432D01*
X0168514Y0179300D02*
X0176014Y0186800D01*
X0179848Y0182432D02*
X0192180Y0182432D01*
X0190883Y0184030D02*
X0181144Y0184030D01*
X0181807Y0185629D02*
X0190221Y0185629D01*
X0190214Y0187227D02*
X0181814Y0187227D01*
X0181453Y0188826D02*
X0190575Y0188826D01*
X0191436Y0190424D02*
X0180592Y0190424D01*
X0178561Y0192023D02*
X0193467Y0192023D01*
X0198561Y0192023D02*
X0200864Y0192023D01*
X0200864Y0193621D02*
X0143152Y0193621D01*
X0141014Y0191800D02*
X0131014Y0191800D01*
X0126373Y0195220D02*
X0095655Y0195220D01*
X0087828Y0196650D02*
X0087785Y0196632D01*
X0086182Y0195029D01*
X0085770Y0194036D01*
X0085465Y0194774D01*
X0083988Y0196251D01*
X0083024Y0196650D01*
X0087828Y0196650D01*
X0086373Y0195220D02*
X0085019Y0195220D01*
X0077009Y0195220D02*
X0022574Y0195220D01*
X0023236Y0193621D02*
X0076086Y0193621D01*
X0075764Y0192023D02*
X0023624Y0192023D01*
X0023624Y0190424D02*
X0075901Y0190424D01*
X0076563Y0188826D02*
X0023280Y0188826D01*
X0022618Y0187227D02*
X0034271Y0187227D01*
X0032944Y0185629D02*
X0021235Y0185629D01*
X0018663Y0184030D02*
X0027974Y0184030D01*
X0026704Y0182432D02*
X0008014Y0182432D01*
X0008014Y0184030D02*
X0013364Y0184030D01*
X0010793Y0185629D02*
X0008014Y0185629D01*
X0008014Y0187227D02*
X0009410Y0187227D01*
X0008748Y0188826D02*
X0008014Y0188826D01*
X0008014Y0190424D02*
X0008404Y0190424D01*
X0008404Y0192023D02*
X0008014Y0192023D01*
X0008014Y0193621D02*
X0008792Y0193621D01*
X0009454Y0195220D02*
X0008014Y0195220D01*
X0008014Y0180833D02*
X0026239Y0180833D01*
X0026345Y0179235D02*
X0008014Y0179235D01*
X0008014Y0177636D02*
X0027108Y0177636D01*
X0026913Y0176038D02*
X0008014Y0176038D01*
X0008014Y0174439D02*
X0026251Y0174439D01*
X0026239Y0172841D02*
X0008014Y0172841D01*
X0008014Y0171242D02*
X0026797Y0171242D01*
X0028200Y0169644D02*
X0018485Y0169644D01*
X0017528Y0170040D02*
X0020325Y0168882D01*
X0022465Y0166741D01*
X0023624Y0163944D01*
X0023624Y0160916D01*
X0022465Y0158119D01*
X0020325Y0155978D01*
X0017528Y0154820D01*
X0014500Y0154820D01*
X0011703Y0155978D01*
X0009562Y0158119D01*
X0008404Y0160916D01*
X0008404Y0163944D01*
X0009562Y0166741D01*
X0011703Y0168882D01*
X0014500Y0170040D01*
X0017528Y0170040D01*
X0013543Y0169644D02*
X0008014Y0169644D01*
X0008014Y0168045D02*
X0010867Y0168045D01*
X0009440Y0166447D02*
X0008014Y0166447D01*
X0008014Y0164848D02*
X0008778Y0164848D01*
X0008404Y0163250D02*
X0008014Y0163250D01*
X0008014Y0161651D02*
X0008404Y0161651D01*
X0008761Y0160053D02*
X0008014Y0160053D01*
X0008014Y0158454D02*
X0009423Y0158454D01*
X0010826Y0156856D02*
X0008014Y0156856D01*
X0008014Y0155257D02*
X0013444Y0155257D01*
X0018584Y0155257D02*
X0075970Y0155257D01*
X0075764Y0156856D02*
X0065143Y0156856D01*
X0067739Y0158454D02*
X0076016Y0158454D01*
X0076842Y0160053D02*
X0068702Y0160053D01*
X0069014Y0161651D02*
X0076834Y0161651D01*
X0075764Y0163250D02*
X0068825Y0163250D01*
X0068037Y0164848D02*
X0071506Y0164848D01*
X0069907Y0166447D02*
X0065861Y0166447D01*
X0067330Y0168045D02*
X0068309Y0168045D01*
X0068514Y0171800D02*
X0061014Y0171800D01*
X0066847Y0176038D02*
X0086215Y0176038D01*
X0085533Y0177636D02*
X0084275Y0177636D01*
X0087854Y0174439D02*
X0069459Y0174439D01*
X0071433Y0172841D02*
X0088214Y0172841D01*
X0088214Y0171242D02*
X0085900Y0171242D01*
X0086264Y0169644D02*
X0089210Y0169644D01*
X0091014Y0171800D02*
X0091014Y0179300D01*
X0096494Y0177636D02*
X0125533Y0177636D01*
X0125314Y0179235D02*
X0096714Y0179235D01*
X0096548Y0180833D02*
X0125479Y0180833D01*
X0126141Y0182432D02*
X0095886Y0182432D01*
X0095813Y0176038D02*
X0126215Y0176038D01*
X0127854Y0174439D02*
X0094174Y0174439D01*
X0093933Y0172841D02*
X0200864Y0172841D01*
X0200864Y0174439D02*
X0134174Y0174439D01*
X0135813Y0176038D02*
X0200864Y0176038D01*
X0200864Y0177636D02*
X0170810Y0177636D01*
X0172408Y0179235D02*
X0200864Y0179235D01*
X0200864Y0180833D02*
X0174007Y0180833D01*
X0168514Y0179300D02*
X0131014Y0179300D01*
X0134345Y0184030D02*
X0140883Y0184030D01*
X0142180Y0182432D02*
X0135886Y0182432D01*
X0148561Y0192023D02*
X0163467Y0192023D01*
X0161436Y0190424D02*
X0150592Y0190424D01*
X0135655Y0195220D02*
X0200864Y0195220D01*
X0200864Y0190424D02*
X0200592Y0190424D01*
X0200864Y0182432D02*
X0199848Y0182432D01*
X0200864Y0171242D02*
X0098996Y0171242D01*
X0100518Y0169644D02*
X0200864Y0169644D01*
X0200864Y0168045D02*
X0108728Y0168045D01*
X0106014Y0166800D02*
X0096014Y0166800D01*
X0081014Y0166800D01*
X0073514Y0166800D01*
X0068514Y0171800D01*
X0073031Y0171242D02*
X0076128Y0171242D01*
X0075764Y0169644D02*
X0074630Y0169644D01*
X0077753Y0177636D02*
X0066921Y0177636D01*
X0055106Y0177636D02*
X0041589Y0177636D01*
X0041589Y0176038D02*
X0055180Y0176038D01*
X0053695Y0174439D02*
X0040988Y0174439D01*
X0040443Y0172841D02*
X0053033Y0172841D01*
X0053014Y0171242D02*
X0041368Y0171242D01*
X0041589Y0169644D02*
X0053495Y0169644D01*
X0054698Y0168045D02*
X0041239Y0168045D01*
X0040130Y0166447D02*
X0056166Y0166447D01*
X0053991Y0164848D02*
X0023249Y0164848D01*
X0023624Y0163250D02*
X0053202Y0163250D01*
X0053014Y0161651D02*
X0023624Y0161651D01*
X0023266Y0160053D02*
X0053326Y0160053D01*
X0054289Y0158454D02*
X0022604Y0158454D01*
X0021202Y0156856D02*
X0056885Y0156856D01*
X0075375Y0139000D02*
X0084175Y0134600D01*
X0093245Y0134600D01*
X0093317Y0134773D01*
X0094793Y0136249D01*
X0096123Y0136800D01*
X0094793Y0137351D01*
X0093317Y0138827D01*
X0093245Y0139000D01*
X0075375Y0139000D01*
X0073514Y0136800D02*
X0083514Y0131800D01*
X0101014Y0131800D01*
X0106014Y0131800D01*
X0113514Y0124300D01*
X0113514Y0006800D01*
X0111014Y0004300D01*
X0078514Y0004300D01*
X0071014Y0011800D01*
X0068684Y0006596D02*
X0063344Y0006596D01*
X0064243Y0006968D02*
X0062148Y0006100D01*
X0059880Y0006100D01*
X0057785Y0006968D01*
X0056182Y0008571D01*
X0056014Y0008976D01*
X0055846Y0008571D01*
X0054243Y0006968D01*
X0052148Y0006100D01*
X0049880Y0006100D01*
X0049451Y0006278D01*
X0046974Y0003800D01*
X0075054Y0003800D01*
X0072576Y0006278D01*
X0072148Y0006100D01*
X0069880Y0006100D01*
X0067785Y0006968D01*
X0066182Y0008571D01*
X0066014Y0008976D01*
X0065846Y0008571D01*
X0064243Y0006968D01*
X0065469Y0008194D02*
X0066559Y0008194D01*
X0066014Y0014624D02*
X0065846Y0015029D01*
X0064243Y0016632D01*
X0062148Y0017500D01*
X0059880Y0017500D01*
X0057785Y0016632D01*
X0056182Y0015029D01*
X0056014Y0014624D01*
X0055846Y0015029D01*
X0054243Y0016632D01*
X0052148Y0017500D01*
X0049880Y0017500D01*
X0047785Y0016632D01*
X0046182Y0015029D01*
X0046014Y0014624D01*
X0045846Y0015029D01*
X0044243Y0016632D01*
X0042148Y0017500D01*
X0039880Y0017500D01*
X0037785Y0016632D01*
X0036182Y0015029D01*
X0035314Y0012934D01*
X0035314Y0010666D01*
X0036182Y0008571D01*
X0037653Y0007100D01*
X0019674Y0007100D01*
X0016536Y0010237D01*
X0016714Y0010666D01*
X0016714Y0012934D01*
X0015846Y0015029D01*
X0014243Y0016632D01*
X0013838Y0016800D01*
X0014243Y0016968D01*
X0015846Y0018571D01*
X0016714Y0020666D01*
X0016714Y0022934D01*
X0015846Y0025029D01*
X0014243Y0026632D01*
X0013838Y0026800D01*
X0014243Y0026968D01*
X0015846Y0028571D01*
X0016024Y0029000D01*
X0044854Y0029000D01*
X0053640Y0020214D01*
X0054428Y0019426D01*
X0055457Y0019000D01*
X0080166Y0019000D01*
X0082857Y0017206D01*
X0082148Y0017500D01*
X0079880Y0017500D01*
X0077785Y0016632D01*
X0076182Y0015029D01*
X0076014Y0014624D01*
X0075846Y0015029D01*
X0074243Y0016632D01*
X0072148Y0017500D01*
X0069880Y0017500D01*
X0067785Y0016632D01*
X0066182Y0015029D01*
X0066014Y0014624D01*
X0064688Y0016187D02*
X0067339Y0016187D01*
X0074688Y0016187D02*
X0077339Y0016187D01*
X0081988Y0017785D02*
X0015060Y0017785D01*
X0014688Y0016187D02*
X0037339Y0016187D01*
X0035999Y0014588D02*
X0016029Y0014588D01*
X0016691Y0012990D02*
X0035337Y0012990D01*
X0035314Y0011391D02*
X0016714Y0011391D01*
X0016981Y0009793D02*
X0035676Y0009793D01*
X0036559Y0008194D02*
X0018580Y0008194D01*
X0018514Y0004300D02*
X0011014Y0011800D01*
X0008684Y0006596D02*
X0008014Y0006596D01*
X0008014Y0006873D02*
X0009880Y0006100D01*
X0012148Y0006100D01*
X0012576Y0006278D01*
X0015054Y0003800D01*
X0008014Y0003800D01*
X0008014Y0006873D01*
X0008014Y0004997D02*
X0013857Y0004997D01*
X0018514Y0004300D02*
X0043514Y0004300D01*
X0051014Y0011800D01*
X0053344Y0006596D02*
X0058684Y0006596D01*
X0056559Y0008194D02*
X0055469Y0008194D01*
X0048171Y0004997D02*
X0073857Y0004997D01*
X0081014Y0011800D02*
X0086014Y0006800D01*
X0108514Y0006800D01*
X0111014Y0009300D01*
X0111014Y0116800D01*
X0106014Y0121800D01*
X0101014Y0121800D01*
X0083514Y0121800D01*
X0073514Y0116800D01*
X0033514Y0116800D01*
X0023514Y0121800D01*
X0011014Y0121800D01*
X0016024Y0124600D02*
X0015846Y0125029D01*
X0014243Y0126632D01*
X0013838Y0126800D01*
X0014243Y0126968D01*
X0015846Y0128571D01*
X0016024Y0129000D01*
X0023059Y0129000D01*
X0023157Y0128968D01*
X0023613Y0129000D01*
X0024071Y0129000D01*
X0024166Y0129039D01*
X0024268Y0129047D01*
X0024677Y0129251D01*
X0025100Y0129426D01*
X0025172Y0129499D01*
X0034175Y0134000D01*
X0072853Y0134000D01*
X0081855Y0129499D01*
X0081928Y0129426D01*
X0082351Y0129251D01*
X0082760Y0129047D01*
X0082862Y0129039D01*
X0082957Y0129000D01*
X0083414Y0129000D01*
X0083871Y0128968D01*
X0083968Y0129000D01*
X0093245Y0129000D01*
X0093317Y0128827D01*
X0094793Y0127351D01*
X0096123Y0126800D01*
X0094793Y0126249D01*
X0093317Y0124773D01*
X0093245Y0124600D01*
X0083968Y0124600D01*
X0083871Y0124632D01*
X0083414Y0124600D01*
X0082957Y0124600D01*
X0082862Y0124561D01*
X0082760Y0124553D01*
X0082351Y0124349D01*
X0081928Y0124174D01*
X0081855Y0124101D01*
X0072853Y0119600D01*
X0034175Y0119600D01*
X0025172Y0124101D01*
X0025100Y0124174D01*
X0024677Y0124349D01*
X0024268Y0124553D01*
X0024166Y0124561D01*
X0024071Y0124600D01*
X0023613Y0124600D01*
X0023157Y0124632D01*
X0023059Y0124600D01*
X0016024Y0124600D01*
X0015905Y0124885D02*
X0028137Y0124885D01*
X0027814Y0125666D02*
X0028682Y0123571D01*
X0030285Y0121968D01*
X0032380Y0121100D01*
X0034648Y0121100D01*
X0036743Y0121968D01*
X0038346Y0123571D01*
X0039214Y0125666D01*
X0039214Y0127934D01*
X0038346Y0130029D01*
X0036743Y0131632D01*
X0034648Y0132500D01*
X0032380Y0132500D01*
X0030285Y0131632D01*
X0028682Y0130029D01*
X0027814Y0127934D01*
X0027814Y0125666D01*
X0027814Y0126484D02*
X0014391Y0126484D01*
X0015357Y0128082D02*
X0027875Y0128082D01*
X0028537Y0129681D02*
X0025537Y0129681D01*
X0023514Y0131800D02*
X0033514Y0136800D01*
X0073514Y0136800D01*
X0075097Y0132878D02*
X0031931Y0132878D01*
X0029932Y0131279D02*
X0028734Y0131279D01*
X0023514Y0131800D02*
X0011014Y0131800D01*
X0014800Y0136075D02*
X0025803Y0136075D01*
X0022853Y0134600D02*
X0016024Y0134600D01*
X0015846Y0135029D01*
X0014775Y0136100D01*
X0015542Y0136100D01*
X0016714Y0137272D01*
X0016714Y0139000D01*
X0031653Y0139000D01*
X0022853Y0134600D01*
X0016714Y0137673D02*
X0029000Y0137673D01*
X0037095Y0131279D02*
X0069932Y0131279D01*
X0070285Y0131632D02*
X0068682Y0130029D01*
X0067814Y0127934D01*
X0067814Y0125666D01*
X0068682Y0123571D01*
X0070285Y0121968D01*
X0072380Y0121100D01*
X0074648Y0121100D01*
X0076743Y0121968D01*
X0078346Y0123571D01*
X0079214Y0125666D01*
X0079214Y0127934D01*
X0078346Y0130029D01*
X0076743Y0131632D01*
X0074648Y0132500D01*
X0072380Y0132500D01*
X0070285Y0131632D01*
X0068537Y0129681D02*
X0038490Y0129681D01*
X0039152Y0128082D02*
X0067875Y0128082D01*
X0067814Y0126484D02*
X0039214Y0126484D01*
X0038890Y0124885D02*
X0068137Y0124885D01*
X0068966Y0123287D02*
X0038062Y0123287D01*
X0036068Y0121688D02*
X0070960Y0121688D01*
X0073832Y0120090D02*
X0033195Y0120090D01*
X0030960Y0121688D02*
X0029998Y0121688D01*
X0028966Y0123287D02*
X0026801Y0123287D01*
X0022853Y0119000D02*
X0031653Y0114600D01*
X0016024Y0114600D01*
X0015846Y0115029D01*
X0014243Y0116632D01*
X0013838Y0116800D01*
X0014243Y0116968D01*
X0015846Y0118571D01*
X0016024Y0119000D01*
X0022853Y0119000D01*
X0023870Y0118491D02*
X0015766Y0118491D01*
X0014062Y0116893D02*
X0027067Y0116893D01*
X0030264Y0115294D02*
X0015580Y0115294D01*
X0011014Y0111800D02*
X0101014Y0111800D01*
X0105904Y0106800D02*
X0107235Y0107351D01*
X0108214Y0108330D01*
X0108214Y0105270D01*
X0107235Y0106249D01*
X0105904Y0106800D01*
X0107116Y0107302D02*
X0108214Y0107302D01*
X0108214Y0105703D02*
X0107780Y0105703D01*
X0101014Y0101800D02*
X0021014Y0101800D01*
X0011014Y0091800D01*
X0016714Y0091460D02*
X0018640Y0093386D01*
X0019428Y0094174D01*
X0020457Y0094600D01*
X0093245Y0094600D01*
X0093317Y0094773D01*
X0094793Y0096249D01*
X0096123Y0096800D01*
X0094793Y0097351D01*
X0093317Y0098827D01*
X0093245Y0099000D01*
X0022174Y0099000D01*
X0016714Y0093540D01*
X0016714Y0091460D01*
X0016714Y0092915D02*
X0018169Y0092915D01*
X0017687Y0094514D02*
X0020248Y0094514D01*
X0019286Y0096112D02*
X0094656Y0096112D01*
X0094433Y0097711D02*
X0020884Y0097711D01*
X0017760Y0102506D02*
X0008014Y0102506D01*
X0008014Y0100908D02*
X0016162Y0100908D01*
X0014563Y0099309D02*
X0008014Y0099309D01*
X0008014Y0097711D02*
X0012965Y0097711D01*
X0012754Y0097500D02*
X0018640Y0103386D01*
X0019428Y0104174D01*
X0020457Y0104600D01*
X0093245Y0104600D01*
X0093317Y0104773D01*
X0094793Y0106249D01*
X0096123Y0106800D01*
X0094793Y0107351D01*
X0093317Y0108827D01*
X0093245Y0109000D01*
X0016024Y0109000D01*
X0015846Y0108571D01*
X0014243Y0106968D01*
X0012148Y0106100D01*
X0009880Y0106100D01*
X0008014Y0106873D01*
X0008014Y0097500D01*
X0012754Y0097500D01*
X0008014Y0104105D02*
X0019359Y0104105D01*
X0014577Y0107302D02*
X0094912Y0107302D01*
X0094247Y0105703D02*
X0008014Y0105703D01*
X0015982Y0108900D02*
X0093286Y0108900D01*
X0093245Y0114600D02*
X0075375Y0114600D01*
X0084175Y0119000D01*
X0093245Y0119000D01*
X0093317Y0118827D01*
X0094793Y0117351D01*
X0096123Y0116800D01*
X0094793Y0116249D01*
X0093317Y0114773D01*
X0093245Y0114600D01*
X0093838Y0115294D02*
X0076763Y0115294D01*
X0079960Y0116893D02*
X0095899Y0116893D01*
X0093653Y0118491D02*
X0083157Y0118491D01*
X0080227Y0123287D02*
X0078062Y0123287D01*
X0078890Y0124885D02*
X0093429Y0124885D01*
X0095360Y0126484D02*
X0079214Y0126484D01*
X0079152Y0128082D02*
X0094062Y0128082D01*
X0094619Y0136075D02*
X0081225Y0136075D01*
X0078028Y0137673D02*
X0094470Y0137673D01*
X0101014Y0141800D02*
X0011014Y0141800D01*
X0016714Y0145666D02*
X0094210Y0145666D01*
X0093738Y0152060D02*
X0083289Y0152060D01*
X0085297Y0153659D02*
X0091731Y0153659D01*
X0090970Y0155257D02*
X0086057Y0155257D01*
X0086264Y0156856D02*
X0090764Y0156856D01*
X0091016Y0158454D02*
X0086011Y0158454D01*
X0085186Y0160053D02*
X0091842Y0160053D01*
X0094007Y0161651D02*
X0085193Y0161651D01*
X0086264Y0163250D02*
X0092140Y0163250D01*
X0096014Y0166800D02*
X0091014Y0171800D01*
X0099888Y0163250D02*
X0105445Y0163250D01*
X0105314Y0161651D02*
X0098021Y0161651D01*
X0100186Y0160053D02*
X0105568Y0160053D01*
X0106299Y0158454D02*
X0101011Y0158454D01*
X0101264Y0156856D02*
X0108056Y0156856D01*
X0111014Y0161800D02*
X0106014Y0166800D01*
X0111014Y0161800D02*
X0131014Y0141800D01*
X0126014Y0141800D01*
X0121014Y0136800D01*
X0121014Y0096800D01*
X0126014Y0091800D01*
X0121014Y0086800D01*
X0121014Y0021800D01*
X0118083Y0019384D02*
X0116314Y0019384D01*
X0116314Y0020982D02*
X0117233Y0020982D01*
X0117233Y0022581D02*
X0116314Y0022581D01*
X0116314Y0024179D02*
X0118046Y0024179D01*
X0118214Y0025778D02*
X0116314Y0025778D01*
X0116314Y0027376D02*
X0118214Y0027376D01*
X0118214Y0028975D02*
X0116314Y0028975D01*
X0116314Y0030573D02*
X0118214Y0030573D01*
X0118214Y0032172D02*
X0116314Y0032172D01*
X0116314Y0033770D02*
X0118214Y0033770D01*
X0118214Y0035369D02*
X0116314Y0035369D01*
X0116314Y0036967D02*
X0118214Y0036967D01*
X0118214Y0038566D02*
X0116314Y0038566D01*
X0116314Y0040164D02*
X0118214Y0040164D01*
X0118214Y0041763D02*
X0116314Y0041763D01*
X0116314Y0043361D02*
X0118214Y0043361D01*
X0118214Y0044960D02*
X0116314Y0044960D01*
X0116314Y0046558D02*
X0118214Y0046558D01*
X0118214Y0048157D02*
X0116314Y0048157D01*
X0116314Y0049755D02*
X0118214Y0049755D01*
X0118214Y0051354D02*
X0116314Y0051354D01*
X0116314Y0052952D02*
X0118214Y0052952D01*
X0118214Y0054551D02*
X0116314Y0054551D01*
X0116314Y0056149D02*
X0118214Y0056149D01*
X0118214Y0057748D02*
X0116314Y0057748D01*
X0116314Y0059346D02*
X0118214Y0059346D01*
X0118214Y0060945D02*
X0116314Y0060945D01*
X0116314Y0062543D02*
X0118214Y0062543D01*
X0118214Y0064142D02*
X0116314Y0064142D01*
X0116314Y0065740D02*
X0118214Y0065740D01*
X0118214Y0067339D02*
X0116314Y0067339D01*
X0116314Y0068937D02*
X0118214Y0068937D01*
X0118214Y0070536D02*
X0116314Y0070536D01*
X0116314Y0072134D02*
X0118214Y0072134D01*
X0118214Y0073733D02*
X0116314Y0073733D01*
X0116314Y0075332D02*
X0118214Y0075332D01*
X0118214Y0076930D02*
X0116314Y0076930D01*
X0116314Y0078529D02*
X0118214Y0078529D01*
X0118214Y0080127D02*
X0116314Y0080127D01*
X0116314Y0081726D02*
X0118214Y0081726D01*
X0118214Y0083324D02*
X0116314Y0083324D01*
X0116314Y0084923D02*
X0118214Y0084923D01*
X0118214Y0086521D02*
X0116314Y0086521D01*
X0116314Y0088120D02*
X0118530Y0088120D01*
X0119972Y0089718D02*
X0116314Y0089718D01*
X0116314Y0091317D02*
X0121571Y0091317D01*
X0120939Y0092915D02*
X0116314Y0092915D01*
X0116314Y0094514D02*
X0119340Y0094514D01*
X0118268Y0096112D02*
X0116314Y0096112D01*
X0116314Y0097711D02*
X0118214Y0097711D01*
X0118214Y0099309D02*
X0116314Y0099309D01*
X0116314Y0100908D02*
X0118214Y0100908D01*
X0118214Y0102506D02*
X0116314Y0102506D01*
X0116314Y0104105D02*
X0118214Y0104105D01*
X0118214Y0105703D02*
X0116314Y0105703D01*
X0116314Y0107302D02*
X0118214Y0107302D01*
X0118214Y0108900D02*
X0116314Y0108900D01*
X0116314Y0110499D02*
X0118214Y0110499D01*
X0118214Y0112097D02*
X0116314Y0112097D01*
X0116314Y0113696D02*
X0118214Y0113696D01*
X0118214Y0115294D02*
X0116314Y0115294D01*
X0116314Y0116893D02*
X0118214Y0116893D01*
X0118214Y0118491D02*
X0116314Y0118491D01*
X0116314Y0120090D02*
X0118214Y0120090D01*
X0118214Y0121688D02*
X0116314Y0121688D01*
X0116314Y0123287D02*
X0118214Y0123287D01*
X0118214Y0124885D02*
X0116302Y0124885D01*
X0115290Y0126484D02*
X0118214Y0126484D01*
X0118214Y0128082D02*
X0113691Y0128082D01*
X0112093Y0129681D02*
X0118214Y0129681D01*
X0118214Y0131279D02*
X0110494Y0131279D01*
X0109496Y0132878D02*
X0118214Y0132878D01*
X0118214Y0134476D02*
X0108834Y0134476D01*
X0107409Y0136075D02*
X0118214Y0136075D01*
X0118345Y0137673D02*
X0107557Y0137673D01*
X0108895Y0139272D02*
X0119526Y0139272D01*
X0121124Y0140870D02*
X0109510Y0140870D01*
X0109510Y0142469D02*
X0122518Y0142469D01*
X0123025Y0144068D02*
X0109003Y0144068D01*
X0107818Y0145666D02*
X0123188Y0145666D01*
X0121589Y0147265D02*
X0015778Y0147265D01*
X0008014Y0148863D02*
X0119991Y0148863D01*
X0118392Y0150462D02*
X0008014Y0150462D01*
X0008014Y0152060D02*
X0078738Y0152060D01*
X0076731Y0153659D02*
X0008014Y0153659D01*
X0021161Y0168045D02*
X0032789Y0168045D01*
X0033897Y0166447D02*
X0022587Y0166447D01*
X0040957Y0179235D02*
X0047357Y0179235D01*
X0047478Y0185629D02*
X0054772Y0185629D01*
X0098289Y0152060D02*
X0116794Y0152060D01*
X0115195Y0153659D02*
X0100297Y0153659D01*
X0101057Y0155257D02*
X0113597Y0155257D01*
X0121516Y0155257D02*
X0143597Y0155257D01*
X0142576Y0156278D02*
X0148640Y0150214D01*
X0149428Y0149426D01*
X0150457Y0149000D01*
X0164854Y0149000D01*
X0165491Y0148363D01*
X0165314Y0147934D01*
X0165314Y0145666D01*
X0154572Y0145666D01*
X0155757Y0144068D02*
X0165976Y0144068D01*
X0166182Y0143571D02*
X0167785Y0141968D01*
X0169880Y0141100D01*
X0172148Y0141100D01*
X0174243Y0141968D01*
X0175846Y0143571D01*
X0176714Y0145666D01*
X0176714Y0147934D01*
X0175846Y0150029D01*
X0174243Y0151632D01*
X0172148Y0152500D01*
X0169880Y0152500D01*
X0169451Y0152322D01*
X0167600Y0154174D01*
X0166571Y0154600D01*
X0152174Y0154600D01*
X0150674Y0156100D01*
X0152148Y0156100D01*
X0154243Y0156968D01*
X0155846Y0158571D01*
X0156714Y0160666D01*
X0156714Y0162934D01*
X0155846Y0165029D01*
X0154243Y0166632D01*
X0152148Y0167500D01*
X0149880Y0167500D01*
X0147785Y0166632D01*
X0146182Y0165029D01*
X0146014Y0164624D01*
X0145846Y0165029D01*
X0144243Y0166632D01*
X0142148Y0167500D01*
X0139880Y0167500D01*
X0137785Y0166632D01*
X0136182Y0165029D01*
X0135314Y0162934D01*
X0135314Y0160666D01*
X0136182Y0158571D01*
X0137785Y0156968D01*
X0139880Y0156100D01*
X0142148Y0156100D01*
X0142576Y0156278D01*
X0145195Y0153659D02*
X0123115Y0153659D01*
X0124713Y0152060D02*
X0146794Y0152060D01*
X0148392Y0150462D02*
X0126312Y0150462D01*
X0127911Y0148863D02*
X0164991Y0148863D01*
X0165314Y0147265D02*
X0129509Y0147265D01*
X0131014Y0141800D02*
X0151014Y0141800D01*
X0147455Y0145666D02*
X0137818Y0145666D01*
X0137557Y0137673D02*
X0147716Y0137673D01*
X0147864Y0136075D02*
X0137409Y0136075D01*
X0138834Y0134476D02*
X0146440Y0134476D01*
X0145778Y0132878D02*
X0139496Y0132878D01*
X0139510Y0131279D02*
X0145764Y0131279D01*
X0146209Y0129681D02*
X0139064Y0129681D01*
X0137966Y0128082D02*
X0147307Y0128082D01*
X0143487Y0123287D02*
X0200864Y0123287D01*
X0200864Y0124885D02*
X0138598Y0124885D01*
X0136668Y0126484D02*
X0200864Y0126484D01*
X0200864Y0128082D02*
X0154721Y0128082D01*
X0155819Y0129681D02*
X0200864Y0129681D01*
X0200864Y0131279D02*
X0156264Y0131279D01*
X0156250Y0132878D02*
X0200864Y0132878D01*
X0200864Y0134476D02*
X0155588Y0134476D01*
X0154163Y0136075D02*
X0200864Y0136075D01*
X0200864Y0137673D02*
X0154312Y0137673D01*
X0155649Y0139272D02*
X0200864Y0139272D01*
X0200864Y0140870D02*
X0156264Y0140870D01*
X0156264Y0142469D02*
X0167284Y0142469D01*
X0166182Y0143571D02*
X0165314Y0145666D01*
X0171014Y0146800D02*
X0166014Y0151800D01*
X0151014Y0151800D01*
X0141014Y0161800D01*
X0135568Y0160053D02*
X0126460Y0160053D01*
X0126714Y0161651D02*
X0135314Y0161651D01*
X0135445Y0163250D02*
X0126583Y0163250D01*
X0125921Y0164848D02*
X0136107Y0164848D01*
X0137599Y0166447D02*
X0124428Y0166447D01*
X0117599Y0166447D02*
X0114428Y0166447D01*
X0115921Y0164848D02*
X0116107Y0164848D01*
X0123972Y0156856D02*
X0138056Y0156856D01*
X0136299Y0158454D02*
X0125729Y0158454D01*
X0144428Y0166447D02*
X0147599Y0166447D01*
X0146107Y0164848D02*
X0145921Y0164848D01*
X0154428Y0166447D02*
X0167599Y0166447D01*
X0167785Y0166632D02*
X0166182Y0165029D01*
X0165314Y0162934D01*
X0165314Y0160666D01*
X0166182Y0158571D01*
X0167785Y0156968D01*
X0169880Y0156100D01*
X0172148Y0156100D01*
X0172576Y0156278D01*
X0178640Y0150214D01*
X0179428Y0149426D01*
X0180457Y0149000D01*
X0184854Y0149000D01*
X0185491Y0148363D01*
X0185314Y0147934D01*
X0185314Y0145666D01*
X0176714Y0145666D01*
X0176714Y0147265D02*
X0185314Y0147265D01*
X0185314Y0145666D02*
X0186182Y0143571D01*
X0187785Y0141968D01*
X0189880Y0141100D01*
X0192148Y0141100D01*
X0194243Y0141968D01*
X0195846Y0143571D01*
X0196714Y0145666D01*
X0196714Y0147934D01*
X0195846Y0150029D01*
X0194243Y0151632D01*
X0192148Y0152500D01*
X0189880Y0152500D01*
X0189451Y0152322D01*
X0187600Y0154174D01*
X0186571Y0154600D01*
X0182174Y0154600D01*
X0180674Y0156100D01*
X0182148Y0156100D01*
X0184243Y0156968D01*
X0185846Y0158571D01*
X0186714Y0160666D01*
X0186714Y0162934D01*
X0185846Y0165029D01*
X0184243Y0166632D01*
X0182148Y0167500D01*
X0179880Y0167500D01*
X0177785Y0166632D01*
X0176182Y0165029D01*
X0176014Y0164624D01*
X0175846Y0165029D01*
X0174243Y0166632D01*
X0172148Y0167500D01*
X0169880Y0167500D01*
X0167785Y0166632D01*
X0166107Y0164848D02*
X0155921Y0164848D01*
X0156583Y0163250D02*
X0165445Y0163250D01*
X0165314Y0161651D02*
X0156714Y0161651D01*
X0156460Y0160053D02*
X0165568Y0160053D01*
X0166299Y0158454D02*
X0155729Y0158454D01*
X0153972Y0156856D02*
X0168056Y0156856D01*
X0168115Y0153659D02*
X0175195Y0153659D01*
X0173597Y0155257D02*
X0151516Y0155257D01*
X0171014Y0161800D02*
X0181014Y0151800D01*
X0186014Y0151800D01*
X0191014Y0146800D01*
X0196329Y0148863D02*
X0200864Y0148863D01*
X0200864Y0147265D02*
X0196714Y0147265D01*
X0196714Y0145666D02*
X0200864Y0145666D01*
X0200864Y0144068D02*
X0196052Y0144068D01*
X0194744Y0142469D02*
X0200864Y0142469D01*
X0200864Y0150462D02*
X0195413Y0150462D01*
X0193210Y0152060D02*
X0200864Y0152060D01*
X0200864Y0153659D02*
X0188115Y0153659D01*
X0183972Y0156856D02*
X0200864Y0156856D01*
X0200864Y0158454D02*
X0185729Y0158454D01*
X0186460Y0160053D02*
X0200864Y0160053D01*
X0200864Y0161651D02*
X0186714Y0161651D01*
X0186583Y0163250D02*
X0200864Y0163250D01*
X0200864Y0164848D02*
X0185921Y0164848D01*
X0184428Y0166447D02*
X0200864Y0166447D01*
X0200864Y0155257D02*
X0181516Y0155257D01*
X0176794Y0152060D02*
X0173210Y0152060D01*
X0175413Y0150462D02*
X0178392Y0150462D01*
X0176329Y0148863D02*
X0184991Y0148863D01*
X0185976Y0144068D02*
X0176052Y0144068D01*
X0174744Y0142469D02*
X0187284Y0142469D01*
X0200864Y0121688D02*
X0145085Y0121688D01*
X0146684Y0120090D02*
X0200864Y0120090D01*
X0200864Y0118491D02*
X0148282Y0118491D01*
X0149881Y0116893D02*
X0200864Y0116893D01*
X0200864Y0115294D02*
X0151479Y0115294D01*
X0153078Y0113696D02*
X0200864Y0113696D01*
X0200864Y0112097D02*
X0193120Y0112097D01*
X0192148Y0112500D02*
X0194243Y0111632D01*
X0195846Y0110029D01*
X0196714Y0107934D01*
X0196714Y0105666D01*
X0195846Y0103571D01*
X0194243Y0101968D01*
X0192148Y0101100D01*
X0189880Y0101100D01*
X0187785Y0101968D01*
X0186182Y0103571D01*
X0185314Y0105666D01*
X0185314Y0107934D01*
X0186182Y0110029D01*
X0187785Y0111632D01*
X0189880Y0112500D01*
X0192148Y0112500D01*
X0188908Y0112097D02*
X0173120Y0112097D01*
X0175376Y0110499D02*
X0186652Y0110499D01*
X0185714Y0108900D02*
X0176313Y0108900D01*
X0176714Y0107302D02*
X0185314Y0107302D01*
X0185314Y0105703D02*
X0176714Y0105703D01*
X0177669Y0104105D02*
X0185961Y0104105D01*
X0187247Y0102506D02*
X0179267Y0102506D01*
X0180866Y0100908D02*
X0200864Y0100908D01*
X0200864Y0102506D02*
X0194781Y0102506D01*
X0196067Y0104105D02*
X0200864Y0104105D01*
X0200864Y0105703D02*
X0196714Y0105703D01*
X0196714Y0107302D02*
X0200864Y0107302D01*
X0200864Y0108900D02*
X0196313Y0108900D01*
X0195376Y0110499D02*
X0200864Y0110499D01*
X0200864Y0099309D02*
X0182464Y0099309D01*
X0184063Y0097711D02*
X0200864Y0097711D01*
X0196014Y0091800D02*
X0186014Y0091800D01*
X0171014Y0106800D01*
X0168908Y0112097D02*
X0154676Y0112097D01*
X0156275Y0110499D02*
X0166652Y0110499D01*
X0165714Y0108900D02*
X0157873Y0108900D01*
X0159472Y0107302D02*
X0165314Y0107302D01*
X0165314Y0105703D02*
X0161070Y0105703D01*
X0162669Y0104105D02*
X0165961Y0104105D01*
X0167247Y0102506D02*
X0164267Y0102506D01*
X0165866Y0100908D02*
X0172946Y0100908D01*
X0174545Y0099309D02*
X0167464Y0099309D01*
X0169063Y0097711D02*
X0176143Y0097711D01*
X0177742Y0096112D02*
X0170661Y0096112D01*
X0171014Y0091800D02*
X0196014Y0091800D01*
X0191064Y0086521D02*
X0170252Y0086521D01*
X0168654Y0088120D02*
X0190314Y0088120D01*
X0190314Y0087272D02*
X0190314Y0089000D01*
X0170457Y0089000D01*
X0169428Y0089426D01*
X0168640Y0090214D01*
X0139854Y0119000D01*
X0138782Y0119000D01*
X0138711Y0118827D01*
X0137235Y0117351D01*
X0135904Y0116800D01*
X0137235Y0116249D01*
X0138711Y0114773D01*
X0138782Y0114600D01*
X0141571Y0114600D01*
X0142600Y0114174D01*
X0172174Y0084600D01*
X0191004Y0084600D01*
X0191182Y0085029D01*
X0192253Y0086100D01*
X0191485Y0086100D01*
X0190314Y0087272D01*
X0191138Y0084923D02*
X0171851Y0084923D01*
X0171014Y0081800D02*
X0196014Y0081800D01*
X0199775Y0086100D02*
X0200542Y0086100D01*
X0200864Y0086422D01*
X0200864Y0084986D01*
X0200846Y0085029D01*
X0199775Y0086100D01*
X0200864Y0078614D02*
X0200864Y0074986D01*
X0200846Y0075029D01*
X0199243Y0076632D01*
X0198838Y0076800D01*
X0199243Y0076968D01*
X0200846Y0078571D01*
X0200864Y0078614D01*
X0200864Y0078529D02*
X0200803Y0078529D01*
X0200864Y0076930D02*
X0199151Y0076930D01*
X0200543Y0075332D02*
X0200864Y0075332D01*
X0196014Y0071800D02*
X0171014Y0071800D01*
X0141014Y0101800D01*
X0131014Y0101800D01*
X0126123Y0096800D02*
X0125310Y0096463D01*
X0123814Y0097960D01*
X0123814Y0098330D01*
X0124793Y0097351D01*
X0126123Y0096800D01*
X0124433Y0097711D02*
X0124063Y0097711D01*
X0126014Y0091800D02*
X0131014Y0091800D01*
X0126123Y0086800D02*
X0124793Y0086249D01*
X0123814Y0085270D01*
X0123814Y0085640D01*
X0125310Y0087137D01*
X0126123Y0086800D01*
X0125450Y0086521D02*
X0124695Y0086521D01*
X0123814Y0078330D02*
X0124793Y0077351D01*
X0126123Y0076800D01*
X0124793Y0076249D01*
X0123814Y0075270D01*
X0123814Y0078330D01*
X0123814Y0076930D02*
X0125809Y0076930D01*
X0123875Y0075332D02*
X0123814Y0075332D01*
X0123814Y0068330D02*
X0124793Y0067351D01*
X0126123Y0066800D01*
X0124793Y0066249D01*
X0123814Y0065270D01*
X0123814Y0068330D01*
X0123814Y0067339D02*
X0124822Y0067339D01*
X0124284Y0065740D02*
X0123814Y0065740D01*
X0123814Y0058330D02*
X0124793Y0057351D01*
X0126123Y0056800D01*
X0124793Y0056249D01*
X0123814Y0055270D01*
X0123814Y0058330D01*
X0123814Y0057748D02*
X0124396Y0057748D01*
X0124693Y0056149D02*
X0123814Y0056149D01*
X0123814Y0048330D02*
X0124793Y0047351D01*
X0126123Y0046800D01*
X0124793Y0046249D01*
X0123814Y0045270D01*
X0123814Y0048330D01*
X0123814Y0048157D02*
X0123987Y0048157D01*
X0123814Y0046558D02*
X0125540Y0046558D01*
X0131014Y0041800D02*
X0156014Y0041800D01*
X0196014Y0061800D01*
X0200023Y0057748D02*
X0200864Y0057748D01*
X0200846Y0058571D02*
X0199243Y0056968D01*
X0197148Y0056100D01*
X0194880Y0056100D01*
X0192785Y0056968D01*
X0192727Y0057026D01*
X0157672Y0039499D01*
X0157600Y0039426D01*
X0157177Y0039251D01*
X0156768Y0039047D01*
X0156666Y0039039D01*
X0156571Y0039000D01*
X0156113Y0039000D01*
X0155657Y0038968D01*
X0155559Y0039000D01*
X0138782Y0039000D01*
X0138711Y0038827D01*
X0137235Y0037351D01*
X0135904Y0036800D01*
X0137235Y0036249D01*
X0138711Y0034773D01*
X0138782Y0034600D01*
X0155353Y0034600D01*
X0174355Y0044101D01*
X0174428Y0044174D01*
X0174851Y0044349D01*
X0175260Y0044553D01*
X0175362Y0044561D01*
X0175457Y0044600D01*
X0175914Y0044600D01*
X0176371Y0044632D01*
X0176468Y0044600D01*
X0190314Y0044600D01*
X0190314Y0046328D01*
X0191485Y0047500D01*
X0200542Y0047500D01*
X0200864Y0047178D01*
X0200864Y0058614D01*
X0200846Y0058571D01*
X0200864Y0056149D02*
X0197267Y0056149D01*
X0200864Y0054551D02*
X0187776Y0054551D01*
X0184579Y0052952D02*
X0200864Y0052952D01*
X0200864Y0051354D02*
X0181382Y0051354D01*
X0178185Y0049755D02*
X0200864Y0049755D01*
X0200864Y0048157D02*
X0174988Y0048157D01*
X0171791Y0046558D02*
X0190544Y0046558D01*
X0190314Y0044960D02*
X0168594Y0044960D01*
X0169678Y0041763D02*
X0162200Y0041763D01*
X0163284Y0038566D02*
X0138449Y0038566D01*
X0136308Y0036967D02*
X0160087Y0036967D01*
X0159003Y0040164D02*
X0166481Y0040164D01*
X0165397Y0043361D02*
X0172875Y0043361D01*
X0176014Y0041800D02*
X0156014Y0031800D01*
X0131014Y0031800D01*
X0126123Y0026800D02*
X0124793Y0026249D01*
X0123814Y0025270D01*
X0123814Y0028330D01*
X0124793Y0027351D01*
X0126123Y0026800D01*
X0124768Y0027376D02*
X0123814Y0027376D01*
X0123814Y0025778D02*
X0124322Y0025778D01*
X0131014Y0021800D02*
X0156014Y0021800D01*
X0176014Y0031800D01*
X0196014Y0031800D01*
X0199775Y0036100D02*
X0200542Y0036100D01*
X0200864Y0036422D01*
X0200864Y0034986D01*
X0200846Y0035029D01*
X0199775Y0036100D01*
X0200506Y0035369D02*
X0200864Y0035369D01*
X0200864Y0028614D02*
X0200864Y0024986D01*
X0200846Y0025029D01*
X0199243Y0026632D01*
X0198838Y0026800D01*
X0199243Y0026968D01*
X0200846Y0028571D01*
X0200864Y0028614D01*
X0200864Y0027376D02*
X0199651Y0027376D01*
X0200097Y0025778D02*
X0200864Y0025778D01*
X0200864Y0018614D02*
X0200864Y0014986D01*
X0200846Y0015029D01*
X0199243Y0016632D01*
X0198838Y0016800D01*
X0199243Y0016968D01*
X0200846Y0018571D01*
X0200864Y0018614D01*
X0200864Y0017785D02*
X0200060Y0017785D01*
X0199688Y0016187D02*
X0200864Y0016187D01*
X0196014Y0011800D02*
X0131014Y0011800D01*
X0135411Y0006596D02*
X0193684Y0006596D01*
X0191559Y0008194D02*
X0138078Y0008194D01*
X0138782Y0014600D02*
X0138711Y0014773D01*
X0137235Y0016249D01*
X0135904Y0016800D01*
X0137235Y0017351D01*
X0138711Y0018827D01*
X0138782Y0019000D01*
X0155559Y0019000D01*
X0155657Y0018968D01*
X0156113Y0019000D01*
X0156571Y0019000D01*
X0156666Y0019039D01*
X0156768Y0019047D01*
X0157177Y0019251D01*
X0157600Y0019426D01*
X0157672Y0019499D01*
X0176675Y0029000D01*
X0191004Y0029000D01*
X0191182Y0028571D01*
X0192785Y0026968D01*
X0193190Y0026800D01*
X0192785Y0026632D01*
X0191182Y0025029D01*
X0190314Y0022934D01*
X0190314Y0020666D01*
X0191182Y0018571D01*
X0192785Y0016968D01*
X0193190Y0016800D01*
X0192785Y0016632D01*
X0191182Y0015029D01*
X0191004Y0014600D01*
X0138782Y0014600D01*
X0137297Y0016187D02*
X0192339Y0016187D01*
X0191968Y0017785D02*
X0137669Y0017785D01*
X0138782Y0024600D02*
X0138711Y0024773D01*
X0137235Y0026249D01*
X0135904Y0026800D01*
X0137235Y0027351D01*
X0138711Y0028827D01*
X0138782Y0029000D01*
X0155559Y0029000D01*
X0155657Y0028968D01*
X0156113Y0029000D01*
X0156571Y0029000D01*
X0156666Y0029039D01*
X0156768Y0029047D01*
X0157177Y0029251D01*
X0157600Y0029426D01*
X0157672Y0029499D01*
X0176675Y0039000D01*
X0190314Y0039000D01*
X0190314Y0037272D01*
X0191485Y0036100D01*
X0192253Y0036100D01*
X0191182Y0035029D01*
X0191004Y0034600D01*
X0176468Y0034600D01*
X0176371Y0034632D01*
X0175914Y0034600D01*
X0175457Y0034600D01*
X0175362Y0034561D01*
X0175260Y0034553D01*
X0174851Y0034349D01*
X0174428Y0034174D01*
X0174355Y0034101D01*
X0155353Y0024600D01*
X0138782Y0024600D01*
X0137706Y0025778D02*
X0157708Y0025778D01*
X0160905Y0027376D02*
X0137260Y0027376D01*
X0138772Y0028975D02*
X0155635Y0028975D01*
X0155757Y0028975D02*
X0164102Y0028975D01*
X0163018Y0032172D02*
X0170496Y0032172D01*
X0173693Y0033770D02*
X0166215Y0033770D01*
X0167299Y0030573D02*
X0159821Y0030573D01*
X0156890Y0035369D02*
X0138115Y0035369D01*
X0138782Y0044600D02*
X0138711Y0044773D01*
X0137235Y0046249D01*
X0135904Y0046800D01*
X0137235Y0047351D01*
X0138711Y0048827D01*
X0139510Y0050756D01*
X0139510Y0052844D01*
X0138711Y0054773D01*
X0137235Y0056249D01*
X0135904Y0056800D01*
X0137235Y0057351D01*
X0138711Y0058827D01*
X0138782Y0059000D01*
X0150764Y0059000D01*
X0150764Y0057722D01*
X0151935Y0056550D01*
X0160092Y0056550D01*
X0161264Y0057722D01*
X0161264Y0059549D01*
X0161563Y0058826D01*
X0163040Y0057349D01*
X0164969Y0056550D01*
X0167058Y0056550D01*
X0168988Y0057349D01*
X0170465Y0058826D01*
X0171264Y0060756D01*
X0171264Y0062844D01*
X0170465Y0064774D01*
X0168988Y0066251D01*
X0167058Y0067050D01*
X0164969Y0067050D01*
X0163040Y0066251D01*
X0161563Y0064774D01*
X0161264Y0064051D01*
X0161264Y0065878D01*
X0160092Y0067050D01*
X0151935Y0067050D01*
X0150764Y0065878D01*
X0150764Y0064600D01*
X0138782Y0064600D01*
X0138711Y0064773D01*
X0137235Y0066249D01*
X0135904Y0066800D01*
X0137235Y0067351D01*
X0138711Y0068827D01*
X0139510Y0070756D01*
X0139510Y0072844D01*
X0138711Y0074773D01*
X0137235Y0076249D01*
X0135904Y0076800D01*
X0137235Y0077351D01*
X0138711Y0078827D01*
X0139510Y0080756D01*
X0139510Y0082844D01*
X0138711Y0084773D01*
X0137235Y0086249D01*
X0135904Y0086800D01*
X0137235Y0087351D01*
X0138711Y0088827D01*
X0139510Y0090756D01*
X0139510Y0092844D01*
X0138711Y0094773D01*
X0137235Y0096249D01*
X0135904Y0096800D01*
X0137235Y0097351D01*
X0138711Y0098827D01*
X0138782Y0099000D01*
X0139854Y0099000D01*
X0169428Y0069426D01*
X0170457Y0069000D01*
X0171571Y0069000D01*
X0191004Y0069000D01*
X0191182Y0068571D01*
X0192785Y0066968D01*
X0193190Y0066800D01*
X0192785Y0066632D01*
X0191182Y0065029D01*
X0190314Y0062934D01*
X0190314Y0062080D01*
X0155353Y0044600D01*
X0138782Y0044600D01*
X0138524Y0044960D02*
X0156072Y0044960D01*
X0159269Y0046558D02*
X0136488Y0046558D01*
X0138040Y0048157D02*
X0162466Y0048157D01*
X0165664Y0049755D02*
X0139095Y0049755D01*
X0139510Y0051354D02*
X0168861Y0051354D01*
X0172058Y0052952D02*
X0139465Y0052952D01*
X0138803Y0054551D02*
X0175255Y0054551D01*
X0178452Y0056149D02*
X0137334Y0056149D01*
X0137632Y0057748D02*
X0150764Y0057748D01*
X0156014Y0061800D02*
X0131014Y0061800D01*
X0137206Y0067339D02*
X0192414Y0067339D01*
X0191893Y0065740D02*
X0169498Y0065740D01*
X0170726Y0064142D02*
X0190814Y0064142D01*
X0190314Y0062543D02*
X0171264Y0062543D01*
X0171264Y0060945D02*
X0188043Y0060945D01*
X0184846Y0059346D02*
X0170680Y0059346D01*
X0169386Y0057748D02*
X0181649Y0057748D01*
X0190973Y0056149D02*
X0194761Y0056149D01*
X0200864Y0064986D02*
X0200846Y0065029D01*
X0199243Y0066632D01*
X0198838Y0066800D01*
X0199243Y0066968D01*
X0200846Y0068571D01*
X0200864Y0068614D01*
X0200864Y0064986D01*
X0200864Y0065740D02*
X0200134Y0065740D01*
X0199614Y0067339D02*
X0200864Y0067339D01*
X0191030Y0068937D02*
X0138757Y0068937D01*
X0139419Y0070536D02*
X0168318Y0070536D01*
X0166719Y0072134D02*
X0139510Y0072134D01*
X0139142Y0073733D02*
X0165121Y0073733D01*
X0163522Y0075332D02*
X0138152Y0075332D01*
X0136218Y0076930D02*
X0161924Y0076930D01*
X0160325Y0078529D02*
X0138412Y0078529D01*
X0139249Y0080127D02*
X0158727Y0080127D01*
X0157128Y0081726D02*
X0139510Y0081726D01*
X0139311Y0083324D02*
X0155530Y0083324D01*
X0153931Y0084923D02*
X0138561Y0084923D01*
X0136578Y0086521D02*
X0152333Y0086521D01*
X0150734Y0088120D02*
X0138003Y0088120D01*
X0139080Y0089718D02*
X0149136Y0089718D01*
X0147537Y0091317D02*
X0139510Y0091317D01*
X0139480Y0092915D02*
X0145939Y0092915D01*
X0144340Y0094514D02*
X0138818Y0094514D01*
X0137371Y0096112D02*
X0142742Y0096112D01*
X0141143Y0097711D02*
X0137594Y0097711D01*
X0141571Y0104600D02*
X0142600Y0104174D01*
X0143388Y0103386D01*
X0172174Y0074600D01*
X0191004Y0074600D01*
X0191182Y0075029D01*
X0192785Y0076632D01*
X0193190Y0076800D01*
X0192785Y0076968D01*
X0191182Y0078571D01*
X0191004Y0079000D01*
X0170457Y0079000D01*
X0169428Y0079426D01*
X0168640Y0080214D01*
X0139854Y0109000D01*
X0138782Y0109000D01*
X0138711Y0108827D01*
X0137235Y0107351D01*
X0135904Y0106800D01*
X0137235Y0106249D01*
X0138711Y0104773D01*
X0138782Y0104600D01*
X0141571Y0104600D01*
X0142669Y0104105D02*
X0144749Y0104105D01*
X0144267Y0102506D02*
X0146348Y0102506D01*
X0145866Y0100908D02*
X0147946Y0100908D01*
X0147464Y0099309D02*
X0149545Y0099309D01*
X0149063Y0097711D02*
X0151143Y0097711D01*
X0150661Y0096112D02*
X0152742Y0096112D01*
X0152260Y0094514D02*
X0154340Y0094514D01*
X0153858Y0092915D02*
X0155939Y0092915D01*
X0155457Y0091317D02*
X0157537Y0091317D01*
X0157055Y0089718D02*
X0159136Y0089718D01*
X0158654Y0088120D02*
X0160734Y0088120D01*
X0160252Y0086521D02*
X0162333Y0086521D01*
X0161851Y0084923D02*
X0163931Y0084923D01*
X0163449Y0083324D02*
X0165530Y0083324D01*
X0165048Y0081726D02*
X0167128Y0081726D01*
X0166647Y0080127D02*
X0168727Y0080127D01*
X0168245Y0078529D02*
X0191224Y0078529D01*
X0192876Y0076930D02*
X0169844Y0076930D01*
X0171442Y0075332D02*
X0191484Y0075332D01*
X0190314Y0096112D02*
X0185661Y0096112D01*
X0171014Y0091800D02*
X0141014Y0121800D01*
X0131014Y0121800D01*
X0126123Y0116800D02*
X0124793Y0116249D01*
X0123814Y0115270D01*
X0123814Y0118330D01*
X0124793Y0117351D01*
X0126123Y0116800D01*
X0125899Y0116893D02*
X0123814Y0116893D01*
X0123814Y0115294D02*
X0123838Y0115294D01*
X0131014Y0111800D02*
X0141014Y0111800D01*
X0171014Y0081800D01*
X0169136Y0089718D02*
X0167055Y0089718D01*
X0167537Y0091317D02*
X0165457Y0091317D01*
X0165939Y0092915D02*
X0163858Y0092915D01*
X0164340Y0094514D02*
X0162260Y0094514D01*
X0162742Y0096112D02*
X0160661Y0096112D01*
X0161143Y0097711D02*
X0159063Y0097711D01*
X0159545Y0099309D02*
X0157464Y0099309D01*
X0157946Y0100908D02*
X0155866Y0100908D01*
X0156348Y0102506D02*
X0154267Y0102506D01*
X0154749Y0104105D02*
X0152669Y0104105D01*
X0153151Y0105703D02*
X0151070Y0105703D01*
X0151552Y0107302D02*
X0149472Y0107302D01*
X0149954Y0108900D02*
X0147873Y0108900D01*
X0148355Y0110499D02*
X0146275Y0110499D01*
X0146757Y0112097D02*
X0144676Y0112097D01*
X0145158Y0113696D02*
X0143078Y0113696D01*
X0143560Y0115294D02*
X0138189Y0115294D01*
X0136129Y0116893D02*
X0141961Y0116893D01*
X0140363Y0118491D02*
X0138375Y0118491D01*
X0138741Y0108900D02*
X0139954Y0108900D01*
X0141552Y0107302D02*
X0137116Y0107302D01*
X0137780Y0105703D02*
X0143151Y0105703D01*
X0126123Y0106800D02*
X0124793Y0106249D01*
X0123814Y0105270D01*
X0123814Y0108330D01*
X0124793Y0107351D01*
X0126123Y0106800D01*
X0124912Y0107302D02*
X0123814Y0107302D01*
X0123814Y0105703D02*
X0124247Y0105703D01*
X0108214Y0098330D02*
X0108214Y0095270D01*
X0107235Y0096249D01*
X0105904Y0096800D01*
X0107235Y0097351D01*
X0108214Y0098330D01*
X0108214Y0097711D02*
X0107594Y0097711D01*
X0107371Y0096112D02*
X0108214Y0096112D01*
X0101014Y0091800D02*
X0021014Y0091800D01*
X0011014Y0081800D01*
X0008190Y0076800D02*
X0008014Y0076727D01*
X0008014Y0076873D01*
X0008190Y0076800D01*
X0011014Y0071800D02*
X0021014Y0081800D01*
X0101014Y0081800D01*
X0105904Y0076800D02*
X0107235Y0077351D01*
X0108214Y0078330D01*
X0108214Y0075270D01*
X0107235Y0076249D01*
X0105904Y0076800D01*
X0106218Y0076930D02*
X0108214Y0076930D01*
X0108214Y0075332D02*
X0108152Y0075332D01*
X0108214Y0068330D02*
X0108214Y0065270D01*
X0107235Y0066249D01*
X0105904Y0066800D01*
X0107235Y0067351D01*
X0108214Y0068330D01*
X0108214Y0067339D02*
X0107206Y0067339D01*
X0107743Y0065740D02*
X0108214Y0065740D01*
X0108214Y0058330D02*
X0108214Y0055270D01*
X0107235Y0056249D01*
X0105904Y0056800D01*
X0107235Y0057351D01*
X0108214Y0058330D01*
X0108214Y0057748D02*
X0107632Y0057748D01*
X0107334Y0056149D02*
X0108214Y0056149D01*
X0108214Y0048330D02*
X0108214Y0045270D01*
X0107235Y0046249D01*
X0105904Y0046800D01*
X0107235Y0047351D01*
X0108214Y0048330D01*
X0108214Y0048157D02*
X0108040Y0048157D01*
X0108214Y0046558D02*
X0106488Y0046558D01*
X0101014Y0051800D02*
X0076014Y0051800D01*
X0071014Y0046800D01*
X0051014Y0046800D01*
X0045214Y0046558D02*
X0016484Y0046558D01*
X0016714Y0046328D02*
X0016714Y0042100D01*
X0047511Y0042100D01*
X0046097Y0043515D01*
X0045214Y0045646D01*
X0045214Y0047954D01*
X0046097Y0050085D01*
X0047728Y0051717D01*
X0047929Y0051800D01*
X0047728Y0051883D01*
X0046097Y0053515D01*
X0045214Y0055646D01*
X0045214Y0057954D01*
X0046097Y0060085D01*
X0047728Y0061717D01*
X0047929Y0061800D01*
X0047728Y0061883D01*
X0046097Y0063515D01*
X0045214Y0065646D01*
X0045214Y0067954D01*
X0046097Y0070085D01*
X0047511Y0071500D01*
X0024674Y0071500D01*
X0016536Y0063363D01*
X0016714Y0062934D01*
X0016714Y0060666D01*
X0015846Y0058571D01*
X0014243Y0056968D01*
X0012148Y0056100D01*
X0009880Y0056100D01*
X0008014Y0056873D01*
X0008014Y0047500D01*
X0015542Y0047500D01*
X0016714Y0046328D01*
X0016714Y0044960D02*
X0045498Y0044960D01*
X0046250Y0043361D02*
X0016714Y0043361D01*
X0013514Y0039300D02*
X0011014Y0041800D01*
X0013514Y0039300D02*
X0083514Y0039300D01*
X0096014Y0031800D01*
X0101014Y0031800D01*
X0105904Y0026800D02*
X0107235Y0027351D01*
X0108214Y0028330D01*
X0108214Y0025270D01*
X0107235Y0026249D01*
X0105904Y0026800D01*
X0107260Y0027376D02*
X0108214Y0027376D01*
X0108214Y0025778D02*
X0107706Y0025778D01*
X0108214Y0018330D02*
X0108214Y0015270D01*
X0107235Y0016249D01*
X0105904Y0016800D01*
X0107235Y0017351D01*
X0108214Y0018330D01*
X0108214Y0017785D02*
X0107669Y0017785D01*
X0107297Y0016187D02*
X0108214Y0016187D01*
X0101014Y0011800D02*
X0096014Y0011800D01*
X0081014Y0021800D01*
X0056014Y0021800D01*
X0046014Y0031800D01*
X0011014Y0031800D01*
X0014775Y0036100D02*
X0015542Y0036100D01*
X0015942Y0036500D01*
X0061142Y0036500D01*
X0060540Y0036251D01*
X0059063Y0034774D01*
X0058264Y0032844D01*
X0058264Y0030756D01*
X0059063Y0028826D01*
X0060540Y0027349D01*
X0062469Y0026550D01*
X0064558Y0026550D01*
X0066488Y0027349D01*
X0067965Y0028826D01*
X0068514Y0030152D01*
X0069063Y0028826D01*
X0070540Y0027349D01*
X0072469Y0026550D01*
X0074558Y0026550D01*
X0076488Y0027349D01*
X0077965Y0028826D01*
X0078037Y0029000D01*
X0080166Y0029000D01*
X0092518Y0020766D01*
X0092518Y0020756D01*
X0093317Y0018827D01*
X0094793Y0017351D01*
X0096123Y0016800D01*
X0094793Y0016249D01*
X0094631Y0016087D01*
X0082798Y0023976D01*
X0082600Y0024174D01*
X0082339Y0024282D01*
X0082104Y0024439D01*
X0081829Y0024493D01*
X0081571Y0024600D01*
X0081288Y0024600D01*
X0081011Y0024655D01*
X0080737Y0024600D01*
X0057174Y0024600D01*
X0047600Y0034174D01*
X0046571Y0034600D01*
X0016024Y0034600D01*
X0015846Y0035029D01*
X0014775Y0036100D01*
X0015506Y0035369D02*
X0059658Y0035369D01*
X0058647Y0033770D02*
X0048003Y0033770D01*
X0049602Y0032172D02*
X0058264Y0032172D01*
X0058339Y0030573D02*
X0051200Y0030573D01*
X0052799Y0028975D02*
X0059001Y0028975D01*
X0060513Y0027376D02*
X0054397Y0027376D01*
X0055996Y0025778D02*
X0084999Y0025778D01*
X0082602Y0027376D02*
X0076515Y0027376D01*
X0078026Y0028975D02*
X0080204Y0028975D01*
X0081014Y0031800D02*
X0073514Y0031800D01*
X0068647Y0033770D02*
X0068380Y0033770D01*
X0068514Y0033448D02*
X0067965Y0034774D01*
X0066488Y0036251D01*
X0065886Y0036500D01*
X0071142Y0036500D01*
X0070540Y0036251D01*
X0069063Y0034774D01*
X0068514Y0033448D01*
X0067370Y0035369D02*
X0069658Y0035369D01*
X0075886Y0036500D02*
X0082738Y0036500D01*
X0092586Y0030591D01*
X0093317Y0028827D01*
X0094793Y0027351D01*
X0096123Y0026800D01*
X0094793Y0026249D01*
X0094631Y0026087D01*
X0082798Y0033976D01*
X0082600Y0034174D01*
X0082339Y0034282D01*
X0082104Y0034439D01*
X0081829Y0034493D01*
X0081571Y0034600D01*
X0081288Y0034600D01*
X0081011Y0034655D01*
X0080737Y0034600D01*
X0078037Y0034600D01*
X0077965Y0034774D01*
X0076488Y0036251D01*
X0075886Y0036500D01*
X0077370Y0035369D02*
X0084624Y0035369D01*
X0083106Y0033770D02*
X0087288Y0033770D01*
X0085504Y0032172D02*
X0089952Y0032172D01*
X0087902Y0030573D02*
X0092593Y0030573D01*
X0093256Y0028975D02*
X0090299Y0028975D01*
X0092697Y0027376D02*
X0094768Y0027376D01*
X0096014Y0021800D02*
X0081014Y0031800D01*
X0082587Y0024179D02*
X0087397Y0024179D01*
X0089795Y0022581D02*
X0084891Y0022581D01*
X0087288Y0020982D02*
X0092193Y0020982D01*
X0093086Y0019384D02*
X0089686Y0019384D01*
X0092084Y0017785D02*
X0094359Y0017785D01*
X0094482Y0016187D02*
X0094731Y0016187D01*
X0096014Y0021800D02*
X0101014Y0021800D01*
X0092518Y0010766D02*
X0092518Y0010756D01*
X0092997Y0009600D01*
X0087174Y0009600D01*
X0086536Y0010237D01*
X0086714Y0010666D01*
X0086714Y0012934D01*
X0085846Y0015029D01*
X0085292Y0015582D01*
X0092518Y0010766D01*
X0092917Y0009793D02*
X0086981Y0009793D01*
X0086714Y0011391D02*
X0091579Y0011391D01*
X0089182Y0012990D02*
X0086691Y0012990D01*
X0086784Y0014588D02*
X0086029Y0014588D01*
X0070513Y0027376D02*
X0066515Y0027376D01*
X0068026Y0028975D02*
X0069001Y0028975D01*
X0057339Y0016187D02*
X0054688Y0016187D01*
X0054531Y0019384D02*
X0016183Y0019384D01*
X0016714Y0020982D02*
X0052872Y0020982D01*
X0051273Y0022581D02*
X0016714Y0022581D01*
X0016198Y0024179D02*
X0049675Y0024179D01*
X0048076Y0025778D02*
X0015097Y0025778D01*
X0014651Y0027376D02*
X0046478Y0027376D01*
X0044879Y0028975D02*
X0016013Y0028975D01*
X0008190Y0026800D02*
X0008014Y0026727D01*
X0008014Y0026873D01*
X0008190Y0026800D01*
X0008014Y0016873D02*
X0008014Y0016727D01*
X0008190Y0016800D01*
X0008014Y0016873D01*
X0008014Y0048157D02*
X0045298Y0048157D01*
X0045960Y0049755D02*
X0008014Y0049755D01*
X0008014Y0051354D02*
X0047365Y0051354D01*
X0046659Y0052952D02*
X0008014Y0052952D01*
X0008014Y0054551D02*
X0045668Y0054551D01*
X0045214Y0056149D02*
X0012267Y0056149D01*
X0009761Y0056149D02*
X0008014Y0056149D01*
X0011014Y0061800D02*
X0023514Y0074300D01*
X0081014Y0074300D01*
X0078466Y0071500D02*
X0079448Y0070519D01*
X0082580Y0070519D01*
X0084795Y0072734D01*
X0084795Y0075866D01*
X0082580Y0078081D01*
X0079448Y0078081D01*
X0078466Y0077100D01*
X0022957Y0077100D01*
X0021928Y0076674D01*
X0021140Y0075886D01*
X0016714Y0071460D01*
X0016714Y0072934D01*
X0016536Y0073363D01*
X0022174Y0079000D01*
X0093245Y0079000D01*
X0093317Y0078827D01*
X0094793Y0077351D01*
X0096123Y0076800D01*
X0094793Y0076249D01*
X0093317Y0074773D01*
X0092518Y0072844D01*
X0092518Y0070756D01*
X0093317Y0068827D01*
X0094793Y0067351D01*
X0096123Y0066800D01*
X0094793Y0066249D01*
X0093317Y0064773D01*
X0093245Y0064600D01*
X0077174Y0064600D01*
X0072600Y0069174D01*
X0071571Y0069600D01*
X0056132Y0069600D01*
X0055931Y0070085D01*
X0054516Y0071500D01*
X0078466Y0071500D01*
X0079430Y0070536D02*
X0055480Y0070536D01*
X0051014Y0066800D02*
X0071014Y0066800D01*
X0076014Y0061800D01*
X0101014Y0061800D01*
X0096123Y0056800D02*
X0094793Y0056249D01*
X0093317Y0054773D01*
X0093245Y0054600D01*
X0075457Y0054600D01*
X0074428Y0054174D01*
X0073640Y0053386D01*
X0069854Y0049600D01*
X0056132Y0049600D01*
X0055931Y0050085D01*
X0054299Y0051717D01*
X0054099Y0051800D01*
X0054299Y0051883D01*
X0055931Y0053515D01*
X0056814Y0055646D01*
X0056814Y0057954D01*
X0055931Y0060085D01*
X0054299Y0061717D01*
X0054099Y0061800D01*
X0054299Y0061883D01*
X0055931Y0063515D01*
X0056132Y0064000D01*
X0069854Y0064000D01*
X0073640Y0060214D01*
X0074428Y0059426D01*
X0075457Y0059000D01*
X0093245Y0059000D01*
X0093317Y0058827D01*
X0094793Y0057351D01*
X0096123Y0056800D01*
X0094693Y0056149D02*
X0056814Y0056149D01*
X0056814Y0057748D02*
X0094396Y0057748D01*
X0094284Y0065740D02*
X0076033Y0065740D01*
X0074435Y0067339D02*
X0094822Y0067339D01*
X0093271Y0068937D02*
X0072836Y0068937D01*
X0071311Y0062543D02*
X0054960Y0062543D01*
X0055071Y0060945D02*
X0072909Y0060945D01*
X0074620Y0059346D02*
X0056237Y0059346D01*
X0056360Y0054551D02*
X0075338Y0054551D01*
X0073206Y0052952D02*
X0055369Y0052952D01*
X0054662Y0051354D02*
X0071608Y0051354D01*
X0070009Y0049755D02*
X0056067Y0049755D01*
X0056132Y0044000D02*
X0071571Y0044000D01*
X0072600Y0044426D01*
X0077174Y0049000D01*
X0093245Y0049000D01*
X0093317Y0048827D01*
X0094793Y0047351D01*
X0096123Y0046800D01*
X0094793Y0046249D01*
X0093317Y0044773D01*
X0092518Y0042844D01*
X0092518Y0040756D01*
X0093317Y0038827D01*
X0094793Y0037351D01*
X0096123Y0036800D01*
X0094793Y0036249D01*
X0094511Y0035967D01*
X0085250Y0041524D01*
X0085100Y0041674D01*
X0084777Y0041808D01*
X0084477Y0041988D01*
X0084267Y0042019D01*
X0084071Y0042100D01*
X0083721Y0042100D01*
X0083375Y0042151D01*
X0083169Y0042100D01*
X0054516Y0042100D01*
X0055931Y0043515D01*
X0056132Y0044000D01*
X0055777Y0043361D02*
X0092732Y0043361D01*
X0092518Y0041763D02*
X0084885Y0041763D01*
X0087516Y0040164D02*
X0092763Y0040164D01*
X0093578Y0038566D02*
X0090180Y0038566D01*
X0092844Y0036967D02*
X0095719Y0036967D01*
X0093504Y0044960D02*
X0073133Y0044960D01*
X0074732Y0046558D02*
X0095540Y0046558D01*
X0093987Y0048157D02*
X0076330Y0048157D01*
X0082597Y0070536D02*
X0092609Y0070536D01*
X0092518Y0072134D02*
X0084196Y0072134D01*
X0084795Y0073733D02*
X0092886Y0073733D01*
X0093875Y0075332D02*
X0084795Y0075332D01*
X0083731Y0076930D02*
X0095809Y0076930D01*
X0093615Y0078529D02*
X0021702Y0078529D01*
X0022547Y0076930D02*
X0020104Y0076930D01*
X0020586Y0075332D02*
X0018505Y0075332D01*
X0018987Y0073733D02*
X0016907Y0073733D01*
X0016714Y0072134D02*
X0017388Y0072134D01*
X0022111Y0068937D02*
X0045621Y0068937D01*
X0045214Y0067339D02*
X0020513Y0067339D01*
X0018914Y0065740D02*
X0045214Y0065740D01*
X0045837Y0064142D02*
X0017316Y0064142D01*
X0016714Y0062543D02*
X0047068Y0062543D01*
X0046956Y0060945D02*
X0016714Y0060945D01*
X0016167Y0059346D02*
X0045791Y0059346D01*
X0045214Y0057748D02*
X0015023Y0057748D01*
X0008190Y0066800D02*
X0008014Y0066727D01*
X0008014Y0066873D01*
X0008190Y0066800D01*
X0016714Y0081460D02*
X0018640Y0083386D01*
X0019428Y0084174D01*
X0020457Y0084600D01*
X0093245Y0084600D01*
X0093317Y0084773D01*
X0094793Y0086249D01*
X0096123Y0086800D01*
X0094793Y0087351D01*
X0093317Y0088827D01*
X0093245Y0089000D01*
X0022174Y0089000D01*
X0016536Y0083363D01*
X0016714Y0082934D01*
X0016714Y0081460D01*
X0016714Y0081726D02*
X0016980Y0081726D01*
X0016552Y0083324D02*
X0018578Y0083324D01*
X0018096Y0084923D02*
X0093467Y0084923D01*
X0095450Y0086521D02*
X0019695Y0086521D01*
X0021293Y0088120D02*
X0094024Y0088120D01*
X0105904Y0086800D02*
X0107235Y0087351D01*
X0108214Y0088330D01*
X0108214Y0085270D01*
X0107235Y0086249D01*
X0105904Y0086800D01*
X0106578Y0086521D02*
X0108214Y0086521D01*
X0108214Y0088120D02*
X0108003Y0088120D01*
X0108214Y0115270D02*
X0107235Y0116249D01*
X0105904Y0116800D01*
X0106717Y0117137D01*
X0108214Y0115640D01*
X0108214Y0115270D01*
X0108214Y0115294D02*
X0108189Y0115294D01*
X0106961Y0116893D02*
X0106129Y0116893D01*
X0110714Y0121060D02*
X0109510Y0122264D01*
X0109510Y0122844D01*
X0108711Y0124773D01*
X0107235Y0126249D01*
X0105904Y0126800D01*
X0106717Y0127137D01*
X0110714Y0123140D01*
X0110714Y0121060D01*
X0110714Y0121688D02*
X0110085Y0121688D01*
X0110567Y0123287D02*
X0109326Y0123287D01*
X0108969Y0124885D02*
X0108598Y0124885D01*
X0107370Y0126484D02*
X0106668Y0126484D01*
X0123814Y0126484D02*
X0125360Y0126484D01*
X0124793Y0126249D02*
X0126123Y0126800D01*
X0124793Y0127351D01*
X0123814Y0128330D01*
X0123814Y0125270D01*
X0124793Y0126249D01*
X0124062Y0128082D02*
X0123814Y0128082D01*
X0123814Y0135270D02*
X0123814Y0135640D01*
X0125310Y0137137D01*
X0126123Y0136800D01*
X0124793Y0136249D01*
X0123814Y0135270D01*
X0124249Y0136075D02*
X0124619Y0136075D01*
X0081491Y0129681D02*
X0078490Y0129681D01*
X0078294Y0131279D02*
X0077095Y0131279D01*
X0077030Y0121688D02*
X0076068Y0121688D01*
X0046547Y0070536D02*
X0023710Y0070536D01*
X0008014Y0116727D02*
X0008014Y0116873D01*
X0008190Y0116800D01*
X0008014Y0116727D01*
X0008014Y0126727D02*
X0008014Y0126873D01*
X0008190Y0126800D01*
X0008014Y0126727D01*
X0105904Y0036800D02*
X0107235Y0037351D01*
X0108214Y0038330D01*
X0108214Y0035270D01*
X0107235Y0036249D01*
X0105904Y0036800D01*
X0106308Y0036967D02*
X0108214Y0036967D01*
X0108214Y0035369D02*
X0108115Y0035369D01*
X0123814Y0035369D02*
X0123913Y0035369D01*
X0123814Y0035270D02*
X0123814Y0038330D01*
X0124793Y0037351D01*
X0126123Y0036800D01*
X0124793Y0036249D01*
X0123814Y0035270D01*
X0123814Y0036967D02*
X0125719Y0036967D01*
X0124359Y0017785D02*
X0116314Y0017785D01*
X0116314Y0016187D02*
X0124731Y0016187D01*
X0123240Y0014588D02*
X0116314Y0014588D01*
X0116314Y0012990D02*
X0122578Y0012990D01*
X0122518Y0011391D02*
X0116314Y0011391D01*
X0116314Y0009793D02*
X0122917Y0009793D01*
X0123950Y0008194D02*
X0116314Y0008194D01*
X0116314Y0006596D02*
X0126617Y0006596D01*
X0115671Y0004997D02*
X0200864Y0004997D01*
X0200864Y0006596D02*
X0198344Y0006596D01*
X0200469Y0008194D02*
X0200864Y0008194D01*
X0190845Y0019384D02*
X0157497Y0019384D01*
X0160639Y0020982D02*
X0190314Y0020982D01*
X0190314Y0022581D02*
X0163836Y0022581D01*
X0167033Y0024179D02*
X0190830Y0024179D01*
X0191930Y0025778D02*
X0170230Y0025778D01*
X0173427Y0027376D02*
X0192377Y0027376D01*
X0191014Y0028975D02*
X0176624Y0028975D01*
X0172609Y0036967D02*
X0190618Y0036967D01*
X0190314Y0038566D02*
X0175806Y0038566D01*
X0176014Y0041800D02*
X0196014Y0041800D01*
X0191522Y0035369D02*
X0169412Y0035369D01*
X0162641Y0057748D02*
X0161264Y0057748D01*
X0161264Y0059346D02*
X0161348Y0059346D01*
X0161264Y0064142D02*
X0161301Y0064142D01*
X0161264Y0065740D02*
X0162530Y0065740D01*
X0150764Y0065740D02*
X0137743Y0065740D01*
X0047339Y0016187D02*
X0044688Y0016187D01*
X0175921Y0164848D02*
X0176107Y0164848D01*
X0177599Y0166447D02*
X0174428Y0166447D01*
X0171436Y0190424D02*
X0170592Y0190424D01*
X0168561Y0192023D02*
X0173467Y0192023D01*
D21*
X0081014Y0074300D03*
X0121014Y0021800D03*
M02*
