%
M48
M72
T01C0.02362
T02C0.02756
T03C0.03150
T04C0.03200
T05C0.03543
T06C0.04000
T07C0.04331
T08C0.07480
%
T01
X81014Y74300
X121014Y21800
T02
X63514Y31800
X73514Y31800
X156014Y61800
X166014Y61800
X151014Y131800
X151014Y141800
X96014Y156800
X96014Y166800
X81014Y166800
X81014Y156800
X81014Y181800
X81014Y191800
T03
X30814Y180400
X30814Y173500
X37014Y176800
X37014Y169800
X37014Y183500
T04
X111014Y161800
X121014Y161800
X141014Y161800
X151014Y161800
X171014Y161800
X181014Y161800
T05
X33514Y126800
X73514Y126800
X91014Y179300
X91014Y191800
X131014Y191800
X131014Y179300
X146014Y186800
X166014Y186800
X176014Y186800
X196014Y186800
X191014Y146800
X171014Y146800
X171014Y106800
X191014Y106800
X51014Y66800
X51014Y56800
X51014Y46800
T06
X11014Y11800
X11014Y21800
X11014Y31800
X11014Y41800
X11014Y61800
X11014Y71800
X11014Y81800
X11014Y91800
X11014Y111800
X11014Y121800
X11014Y131800
X11014Y141800
X61014Y161800
X61014Y171800
X61014Y181800
X196014Y91800
X196014Y81800
X196014Y71800
X196014Y61800
X196014Y41800
X196014Y31800
X196014Y21800
X196014Y11800
X81014Y11800
X71014Y11800
X61014Y11800
X51014Y11800
X41014Y11800
T07
X101014Y11800
X101014Y21800
X101014Y31800
X101014Y41800
X101014Y51800
X101014Y61800
X101014Y71800
X101014Y81800
X101014Y91800
X101014Y101800
X101014Y111800
X101014Y121800
X101014Y131800
X101014Y141800
X131014Y141800
X131014Y131800
X131014Y121800
X131014Y111800
X131014Y101800
X131014Y91800
X131014Y81800
X131014Y71800
X131014Y61800
X131014Y51800
X131014Y41800
X131014Y31800
X131014Y21800
X131014Y11800
T08
X16014Y162430
X16014Y191170
M30
