G75*
%MOIN*%
%OFA0B0*%
%FSLAX25Y25*%
%IPPOS*%
%LPD*%
%AMOC8*
5,1,8,0,0,1.08239X$1,22.5*
%
%ADD10C,0.00000*%
%ADD11C,0.06900*%
%ADD12R,0.06900X0.06900*%
%ADD13C,0.07800*%
%ADD14R,0.07800X0.07800*%
%ADD15C,0.08000*%
%ADD16C,0.06896*%
%ADD17C,0.05550*%
%ADD18C,0.11620*%
%ADD19C,0.06400*%
D10*
X0006014Y0001800D02*
X0006014Y0198650D01*
X0202864Y0198650D01*
X0202864Y0001800D01*
X0006014Y0001800D01*
D11*
X0063514Y0031800D03*
X0073514Y0031800D03*
X0166014Y0061800D03*
X0151014Y0131800D03*
X0151014Y0141800D03*
X0096014Y0156800D03*
X0096014Y0166800D03*
X0081014Y0156800D03*
X0081014Y0181800D03*
X0081014Y0191800D03*
D12*
X0081014Y0166800D03*
X0156014Y0061800D03*
D13*
X0196014Y0061800D03*
X0196014Y0071800D03*
X0196014Y0081800D03*
X0191014Y0106800D03*
X0171014Y0106800D03*
X0171014Y0146800D03*
X0171014Y0161800D03*
X0181014Y0161800D03*
X0191014Y0146800D03*
X0151014Y0161800D03*
X0141014Y0161800D03*
X0131014Y0179300D03*
X0131014Y0191800D03*
X0121014Y0161800D03*
X0111014Y0161800D03*
X0091014Y0179300D03*
X0091014Y0191800D03*
X0073514Y0126800D03*
X0033514Y0126800D03*
X0011014Y0121800D03*
X0011014Y0111800D03*
X0011014Y0131800D03*
X0011014Y0081800D03*
X0011014Y0071800D03*
X0011014Y0061800D03*
X0011014Y0031800D03*
X0011014Y0021800D03*
X0011014Y0011800D03*
X0041014Y0011800D03*
X0051014Y0011800D03*
X0061014Y0011800D03*
X0071014Y0011800D03*
X0081014Y0011800D03*
X0196014Y0011800D03*
X0196014Y0021800D03*
X0196014Y0031800D03*
D14*
X0196014Y0041800D03*
X0196014Y0091800D03*
X0011014Y0091800D03*
X0011014Y0041800D03*
X0011014Y0141800D03*
D15*
X0051014Y0066800D03*
X0051014Y0056800D03*
X0051014Y0046800D03*
X0146014Y0186800D03*
X0166014Y0186800D03*
X0176014Y0186800D03*
X0196014Y0186800D03*
D16*
X0134262Y0141800D02*
X0127766Y0141800D01*
X0127766Y0131800D02*
X0134262Y0131800D01*
X0134262Y0121800D02*
X0127766Y0121800D01*
X0127766Y0111800D02*
X0134262Y0111800D01*
X0134262Y0101800D02*
X0127766Y0101800D01*
X0127766Y0091800D02*
X0134262Y0091800D01*
X0134262Y0081800D02*
X0127766Y0081800D01*
X0127766Y0071800D02*
X0134262Y0071800D01*
X0134262Y0061800D02*
X0127766Y0061800D01*
X0127766Y0051800D02*
X0134262Y0051800D01*
X0134262Y0041800D02*
X0127766Y0041800D01*
X0127766Y0031800D02*
X0134262Y0031800D01*
X0134262Y0021800D02*
X0127766Y0021800D01*
X0127766Y0011800D02*
X0134262Y0011800D01*
X0104262Y0011800D02*
X0097766Y0011800D01*
X0097766Y0021800D02*
X0104262Y0021800D01*
X0104262Y0031800D02*
X0097766Y0031800D01*
X0097766Y0041800D02*
X0104262Y0041800D01*
X0104262Y0051800D02*
X0097766Y0051800D01*
X0097766Y0061800D02*
X0104262Y0061800D01*
X0104262Y0071800D02*
X0097766Y0071800D01*
X0097766Y0081800D02*
X0104262Y0081800D01*
X0104262Y0091800D02*
X0097766Y0091800D01*
X0097766Y0101800D02*
X0104262Y0101800D01*
X0104262Y0111800D02*
X0097766Y0111800D01*
X0097766Y0121800D02*
X0104262Y0121800D01*
X0104262Y0131800D02*
X0097766Y0131800D01*
X0097766Y0141800D02*
X0104262Y0141800D01*
D17*
X0037014Y0169800D03*
X0037014Y0176800D03*
X0030814Y0173500D03*
X0030814Y0180400D03*
X0037014Y0183500D03*
D18*
X0016014Y0191170D03*
X0016014Y0162430D03*
D19*
X0058014Y0161800D02*
X0064014Y0161800D01*
X0064014Y0171800D02*
X0058014Y0171800D01*
X0058014Y0181800D02*
X0064014Y0181800D01*
M02*
